<svg xmlns="http://www.w3.org/2000/svg" width="24" height="24" viewBox="0 0 24 24"><defs><style>.a{fill:none;}.b{fill:#332a0c;}</style></defs><g transform="translate(-47 -422)"><rect class="a" width="24" height="24" transform="translate(47 422)"/><g transform="translate(48.333 428)"><path class="b" d="M22.534,34.412h-.9l-.224-.473L19.773,30.5a.363.363,0,0,0-.345-.2H16.148v5.483H2.1V38.87a.368.368,0,0,0,.38.347H4.016a1.081,1.081,0,0,0-.035.331A2.516,2.516,0,0,0,6.6,41.943a2.516,2.516,0,0,0,2.623-2.395,2.358,2.358,0,0,0-.035-.347h7.145a2.16,2.16,0,0,0-.035.347,2.516,2.516,0,0,0,2.623,2.395,2.516,2.516,0,0,0,2.623-2.395,2.358,2.358,0,0,0-.035-.347h1.536a.368.368,0,0,0,.38-.347V35.263A.84.84,0,0,0,22.534,34.412ZM6.6,41.06a1.572,1.572,0,0,1-1.64-1.5,1.369,1.369,0,0,1,.086-.473c0-.016,0-.016.017-.032a1.534,1.534,0,0,1,.846-.851c.017-.016.052-.016.069-.032.017,0,.035-.016.052-.016.035-.016.069-.016.086-.032.017,0,.035-.016.069-.016.017,0,.035-.016.052-.016.035,0,.069-.016.1-.016s.086-.016.121-.016h.276a.32.32,0,0,1,.121.016c.035,0,.069.016.1.016a.067.067,0,0,1,.052.016c.017,0,.035.016.052.016.035,0,.052.016.086.016.017.016.052.016.069.032a.062.062,0,0,1,.035.016s.017,0,.017.016c.017.016.052.016.069.032a.062.062,0,0,1,.035.016c.017.016.035.016.052.032a.136.136,0,0,0,.069.032,1.5,1.5,0,0,1,.621.74c0,.016,0,.016.017.032a1.441,1.441,0,0,1,.086.473A1.546,1.546,0,0,1,6.6,41.06Zm12.357,0a1.572,1.572,0,0,1-1.64-1.5,1.369,1.369,0,0,1,.086-.473c0-.016,0-.016.017-.032a1.534,1.534,0,0,1,.846-.851c.017-.016.052-.016.069-.032.017,0,.035-.016.052-.016.035-.016.069-.016.086-.032.017,0,.035-.016.069-.016.017,0,.035-.016.052-.016.035,0,.069-.016.1-.016s.086-.016.121-.016H19.1a.319.319,0,0,1,.121.016c.035,0,.069.016.1.016a.067.067,0,0,1,.052.016c.017,0,.035.016.052.016.035,0,.052.016.086.016.017.016.052.016.069.032a.062.062,0,0,1,.035.016s.017,0,.017.016c.017.016.052.016.069.032a.062.062,0,0,1,.035.016c.017.016.035.016.052.032a.136.136,0,0,0,.069.032,1.5,1.5,0,0,1,.621.74c0,.016,0,.016.017.032a1.441,1.441,0,0,1,.086.473A1.556,1.556,0,0,1,18.961,41.06Z" transform="translate(-2.1 -29.276)"/><path class="b" d="M5.134,28.684H6.342a1.183,1.183,0,0,0,.38.614,1.473,1.473,0,0,0,1.9,0A1.183,1.183,0,0,0,9,28.684h4.712a1.183,1.183,0,0,0,.38.614,1.473,1.473,0,0,0,1.9,0,1.183,1.183,0,0,0,.38-.614h1.139a.255.255,0,0,0,.259-.236V27.3a1.128,1.128,0,0,0-.966-1.071l-1.553-.567H15.2l-2.52-1.386a3.835,3.835,0,0,0-1.864-.473h-2.4a1.647,1.647,0,0,0-1.1.425L5.738,25.675h0l-.086.079.017.016c-.138.189-.38.473-.6.819a.962.962,0,0,0-.173.567v1.323C4.875,28.574,5,28.684,5.134,28.684Zm9.872-1.024h.035a.929.929,0,0,1,.466.126.733.733,0,0,1,.362.63.832.832,0,1,1-.863-.756ZM7.671,29.172a.759.759,0,1,1,0-1.512.806.806,0,0,1,.828.756A.8.8,0,0,1,7.671,29.172Zm2.589-4.9h.552a3.2,3.2,0,0,1,1.588.41l1.26.693v.284h-3.4Zm-2.571.284a1.083,1.083,0,0,1,.725-.284H9.776v1.386H6.48Z" transform="translate(-4.409 -23.8)"/></g></g></svg>