<svg xmlns="http://www.w3.org/2000/svg" width="16" height="16" viewBox="0 0 16 16"><defs><style>.a{fill:#5fcc3d;}.b{fill:#fff;}</style></defs><circle class="a" cx="8" cy="8" r="8"/><g transform="translate(4 4.667)"><path class="b" d="M.27,3.056A.713.713,0,0,1,1.3,3.144L2.852,4.728,7.457.239A.71.71,0,0,1,8.484.3a.709.709,0,0,1-.059,1.027l-5.1,4.987a.6.6,0,0,1-.264.147H3.028a.108.108,0,0,1-.088.029H2.676c-.029,0-.088-.029-.117-.029h0a1.378,1.378,0,0,1-.264-.176L.211,4.112A.717.717,0,0,1,.27,3.056Z" transform="translate(-0.008 -0.048)"/></g></svg>