<svg xmlns="http://www.w3.org/2000/svg" width="20" height="20" viewBox="0 0 20 20"><defs><style>.a{fill:none;}.b{fill:#325a8f;}</style></defs><g transform="translate(-1395 -818)"><rect class="a" width="20" height="20" transform="translate(1395 818)"/><g transform="translate(1396.667 822.167)"><path class="b" d="M25.356,974.333a1.249,1.249,0,0,0-.859.377c-.282.282-2.349,2.4-4.483,4.587-1.761,1.8-3.037,3.107-3.689,3.774l-4.32-3.455a1.25,1.25,0,0,0-1.562,1.952l5.205,4.164a1.249,1.249,0,0,0,1.666-.1c.282-.282,2.349-2.4,4.483-4.587s4.335-4.439,4.47-4.574a1.249,1.249,0,0,0-.911-2.141Z" transform="translate(-9.975 -974.332)"/></g></g></svg>