<svg xmlns="http://www.w3.org/2000/svg" width="24" height="24" viewBox="0 0 24 24"><defs><style>.a{fill:none;}.b{fill:#332a0c;}</style></defs><rect class="a" width="24" height="24"/><path class="b" d="M16.559,4.992H14.808V4.125a.728.728,0,0,0-.725-.725.713.713,0,0,0-.707.725v.867H8.424V4.125A.728.728,0,0,0,7.7,3.4a.717.717,0,0,0-.725.725v.867H5.241A2.743,2.743,0,0,0,2.5,7.733v9.39a2.743,2.743,0,0,0,2.741,2.741H16.559A2.743,2.743,0,0,0,19.3,17.123V7.733A2.755,2.755,0,0,0,16.559,4.992ZM5.241,6.424H6.992v.867a.728.728,0,0,0,.725.725.717.717,0,0,0,.725-.725V6.424h4.952v.867a.728.728,0,0,0,.725.725.717.717,0,0,0,.725-.725V6.424h1.715a1.306,1.306,0,0,1,1.309,1.309V9.855H3.932V7.733A1.306,1.306,0,0,1,5.241,6.424Z" transform="translate(1.1 1.4)"/></svg>