<svg xmlns="http://www.w3.org/2000/svg" width="24" height="24" viewBox="0 0 24 24"><defs><style>.a{fill:none;}.b{fill:#8e8e8e;}</style></defs><g transform="translate(-325 -191)"><rect class="a" width="24" height="24" transform="translate(325 191)"/><g transform="translate(328.006 194)"><path class="b" d="M10.517,7.771l5.261-6.393H2.209L7.526,7.771a.886.886,0,0,1,.166.5V14l2.6,1.268V8.212A.679.679,0,0,1,10.517,7.771Zm7.31-6.614-6.092,7.33V16.37a.7.7,0,0,1-1,.661L6.7,15.1a.744.744,0,0,1-.443-.661V8.488L.16,1.157A.708.708,0,0,1,.714,0H17.273A.7.7,0,0,1,17.827,1.157Z" transform="translate(0)"/></g></g></svg>