<svg xmlns="http://www.w3.org/2000/svg" width="24" height="24" viewBox="0 0 24 24"><defs><style>.a{fill:none;}.b{fill:#8e8e8e;fill-rule:evenodd;}</style></defs><g transform="translate(-1822 1943)"><rect class="a" width="24" height="24" transform="translate(1822 -1943)"/><g transform="translate(2072.5 -1478)"><path class="b" d="M-248.234-458.547A2.464,2.464,0,0,1-246-460H-231a2.464,2.464,0,0,1,2.237,1.453,2.9,2.9,0,0,1,.266,1.174v8.747A2.564,2.564,0,0,1-231-446H-246a2.564,2.564,0,0,1-2.5-2.627v-8.747A2.523,2.523,0,0,1-248.234-458.547Zm2.29.279,7.031,4.024a.814.814,0,0,0,.8,0l7.031-4.024Zm15.739,1.481-7.137,4.08a2.441,2.441,0,0,1-2.4,0l-7.137-4.08v8.132a.851.851,0,0,0,.826.866h14.993a.851.851,0,0,0,.826-.866v-8.132Z" transform="translate(0 0)"/></g></g></svg>