<svg xmlns="http://www.w3.org/2000/svg" xmlns:xlink="http://www.w3.org/1999/xlink" width="66" height="35" viewBox="0 0 66 35"><defs><style>.a{fill:url(#a);}.b{fill:#fff;}</style><linearGradient id="a" x1="0.948" y1="0.154" x2="0.159" y2="1" gradientUnits="objectBoundingBox"><stop offset="0" stop-color="#f2421b"/><stop offset="1" stop-color="#ff9982"/></linearGradient></defs><rect class="a" width="66" height="35" rx="17.5"/><path class="b" d="M16.741,14.573,12.8,10.613a6.307,6.307,0,0,0,1.57-4.153A6.586,6.586,0,0,0,7.675,0,6.586,6.586,0,0,0,.984,6.46a6.586,6.586,0,0,0,6.691,6.46,6.784,6.784,0,0,0,3.833-1.169l3.974,3.991a.9.9,0,0,0,1.234.023A.823.823,0,0,0,16.741,14.573ZM7.675,1.685A4.868,4.868,0,0,1,12.621,6.46a4.868,4.868,0,0,1-4.946,4.775A4.868,4.868,0,0,1,2.73,6.46,4.868,4.868,0,0,1,7.675,1.685Z" transform="translate(24.016 10)"/></svg>