<svg xmlns="http://www.w3.org/2000/svg" width="24" height="24" viewBox="0 0 24 24"><defs><style>.a{fill:#f2421b;}.b{fill:#fff;fill-rule:evenodd;}</style></defs><g transform="translate(-1882 -1279)"><rect class="a" width="24" height="24" rx="3" transform="translate(1882 1279)"/><g transform="translate(1886 1283)"><path class="b" d="M60.684,66.656a3.842,3.842,0,0,1,1.448.575l.516-.495.972.932-.515.495a3.519,3.519,0,0,1,.6,1.388h.729v1.318H63.7a3.523,3.523,0,0,1-.6,1.388l.515.494-.972.932-.516-.495a3.849,3.849,0,0,1-1.448.575v.7H59.309v-.7a3.828,3.828,0,0,1-1.448-.575l-.516.495-.972-.932.516-.495a3.517,3.517,0,0,1-.6-1.388H55.56V69.551h.729a3.516,3.516,0,0,1,.6-1.388l-.516-.495.972-.932.516.495a3.834,3.834,0,0,1,1.447-.575v-.7h1.375Zm2.178-7.766,2.311.594,1.221,2.027-.619,2.216,3.137,5.209,2.065.53,1.251,2.076-.554,1.982-2.166,1.2-2.067-.531-1.25-2.076.553-1.98-3.137-5.209-2.311-.594-1.221-2.027.619-2.216,1.259,2.091a.823.823,0,0,0,1.1.282l.78-.432a.753.753,0,0,0,.293-1.05L62.861,58.89Zm5.61,11.715a1.509,1.509,0,0,1,2.014.517,1.382,1.382,0,0,1-.539,1.93,1.509,1.509,0,0,1-2.014-.517A1.382,1.382,0,0,1,68.471,70.605ZM60,68.9a1.311,1.311,0,1,1-1.366,1.31A1.339,1.339,0,0,1,60,68.9Zm0-.717a2.028,2.028,0,1,1-2.114,2.027A2.071,2.071,0,0,1,60,68.183Z" transform="translate(-55.56 -58.89)"/></g></g></svg>