<svg xmlns="http://www.w3.org/2000/svg" width="26" height="24" viewBox="0 0 26 24"><defs><style>.a{fill:none;}.b{fill:#8e8e8e;}.c{fill:#f2421b;fill-rule:evenodd;}.d,.e{stroke:none;}.e{fill:#fff;}</style></defs><g transform="translate(-1822 1943)"><rect class="a" width="24" height="24" transform="translate(1822 -1943)"/><g transform="translate(1820.1 -1956)"><g transform="translate(10.839 18)"><path class="b" d="M37.949,25.313A3.658,3.658,0,1,1,41.5,21.656,3.609,3.609,0,0,1,37.949,25.313Zm0-5.906a2.251,2.251,0,1,0,2.184,2.25A2.218,2.218,0,0,0,37.949,19.406Z" transform="translate(-34.4 -18)"/></g><g transform="translate(3.9 20.25)"><g transform="translate(14.516)"><path class="b" d="M70.294,32.944a2.673,2.673,0,1,1,2.594-2.672A2.632,2.632,0,0,1,70.294,32.944Zm0-3.938a1.266,1.266,0,1,0,1.229,1.266A1.242,1.242,0,0,0,70.294,29.006Z" transform="translate(-67.7 -27.6)"/></g><g transform="translate(1.274)"><path class="b" d="M12.094,32.944a2.673,2.673,0,1,1,2.594-2.672A2.632,2.632,0,0,1,12.094,32.944Zm0-3.938a1.266,1.266,0,1,0,1.229,1.266A1.242,1.242,0,0,0,12.094,29.006Z" transform="translate(-9.5 -27.6)"/></g><g transform="translate(0 3.961)"><g transform="translate(13.515)"><path class="b" d="M66.918,51.063a13.481,13.481,0,0,1-2-.117l-.569-.094v-.68a4.764,4.764,0,0,0-.819-2.648l-.228-.352.182-.375a3.919,3.919,0,0,1,3.413-2.3,4.155,4.155,0,0,1,3.891,4.219C70.785,51.063,68.647,51.063,66.918,51.063Zm-1.229-1.453c.387.023.819.047,1.229.047,2.3,0,2.5-.234,2.5-.938a2.786,2.786,0,0,0-2.525-2.812,2.453,2.453,0,0,0-2,1.172A6.089,6.089,0,0,1,65.689,49.609Z" transform="translate(-63.3 -44.5)"/></g><path class="b" d="M7.768,51.063c-1.729,0-3.868,0-3.868-2.344A4.1,4.1,0,0,1,7.768,44.5a3.9,3.9,0,0,1,3.413,2.3l.182.375-.228.352a4.763,4.763,0,0,0-.8,2.648v.7l-.569.07A13.481,13.481,0,0,1,7.768,51.063Zm0-5.156a2.734,2.734,0,0,0-2.5,2.812c0,.7.2.938,2.5.938A10.967,10.967,0,0,0,9,49.609a6.4,6.4,0,0,1,.774-2.531A2.453,2.453,0,0,0,7.768,45.906Z" transform="translate(-3.9 -44.5)"/></g></g><g transform="translate(8.951 23.906)"><path class="b" d="M31.538,52.294c-2.548,0-5.438,0-5.438-3.141A5.778,5.778,0,0,1,31.538,43.2a5.778,5.778,0,0,1,5.438,5.953C36.975,52.294,34.086,52.294,31.538,52.294Zm0-7.687a4.455,4.455,0,0,0-4.073,4.547c0,1.43.728,1.734,4.073,1.734s4.073-.3,4.073-1.734A4.455,4.455,0,0,0,31.538,44.606Z" transform="translate(-26.1 -43.2)"/></g></g><g transform="translate(1837 -1942)"><g class="c"><path class="d" d="M 5 10.5 C 4.14857006072998 10.5 3.455879926681519 9.807310104370117 3.455879926681519 8.955880165100098 L 3.455879926681519 6.544119834899902 L 1.044119954109192 6.544119834899902 C 0.1926899999380112 6.544119834899902 -0.5 5.85142993927002 -0.5 5 C -0.5 4.14857006072998 0.1926899999380112 3.455879926681519 1.044119954109192 3.455879926681519 L 3.455879926681519 3.455879926681519 L 3.455879926681519 1.044119954109192 C 3.455879926681519 0.1926899999380112 4.14857006072998 -0.5 5 -0.5 C 5.85142993927002 -0.5 6.544119834899902 0.1926899999380112 6.544119834899902 1.044119954109192 L 6.544119834899902 3.455879926681519 L 8.955880165100098 3.455879926681519 C 9.807310104370117 3.455879926681519 10.5 4.14857006072998 10.5 5 C 10.5 5.85142993927002 9.807310104370117 6.544119834899902 8.955880165100098 6.544119834899902 L 6.544119834899902 6.544119834899902 L 6.544119834899902 8.955880165100098 C 6.544119834899902 9.807310104370117 5.85142993927002 10.5 5 10.5 Z"/><path class="e" d="M 5 0 C 4.426469802856445 0 3.955880165100098 0.4705896377563477 3.955880165100098 1.044119834899902 L 3.955880165100098 3.955880165100098 L 1.044119834899902 3.955880165100098 C 0.4705896377563477 3.955880165100098 0 4.426469802856445 0 5 C 0 5.573530197143555 0.4705896377563477 6.044119834899902 1.044119834899902 6.044119834899902 L 3.955880165100098 6.044119834899902 L 3.955880165100098 8.955880165100098 C 3.955880165100098 9.529410362243652 4.426469802856445 10 5 10 C 5.573530197143555 10 6.044119834899902 9.529410362243652 6.044119834899902 8.955880165100098 L 6.044119834899902 6.044119834899902 L 8.955880165100098 6.044119834899902 C 9.529410362243652 6.044119834899902 10 5.573530197143555 10 5 C 10 4.426469802856445 9.529410362243652 3.955880165100098 8.955880165100098 3.955880165100098 L 6.044119834899902 3.955880165100098 L 6.044119834899902 1.044119834899902 C 6.044119834899902 0.4705896377563477 5.573530197143555 0 5 0 M 5 -1 C 6.127130031585693 -1 7.044119834899902 -0.08300971984863281 7.044119834899902 1.044119834899902 L 7.044119834899902 2.955880165100098 L 8.955880165100098 2.955880165100098 C 10.08300971984863 2.955880165100098 11 3.872869968414307 11 5 C 11 6.127130031585693 10.08300971984863 7.044119834899902 8.955880165100098 7.044119834899902 L 7.044119834899902 7.044119834899902 L 7.044119834899902 8.955880165100098 C 7.044119834899902 10.08300971984863 6.127130031585693 11 5 11 C 3.872869968414307 11 2.955880165100098 10.08300971984863 2.955880165100098 8.955880165100098 L 2.955880165100098 7.044119834899902 L 1.044119834899902 7.044119834899902 C -0.08300971984863281 7.044119834899902 -1 6.127130031585693 -1 5 C -1 3.872869968414307 -0.08300971984863281 2.955880165100098 1.044119834899902 2.955880165100098 L 2.955880165100098 2.955880165100098 L 2.955880165100098 1.044119834899902 C 2.955880165100098 -0.08300971984863281 3.872869968414307 -1 5 -1 Z"/></g></g></g></svg>