<svg xmlns="http://www.w3.org/2000/svg" xmlns:xlink="http://www.w3.org/1999/xlink" width="130" height="130" viewBox="0 0 130 130"><defs><style>.a{fill:#818e94;opacity:0.1;}.b{fill:#8e8e8e;}.c{filter:url(#a);}</style><filter id="a" x="0" y="0" width="130" height="130" filterUnits="userSpaceOnUse"><feOffset dy="10" input="SourceAlpha"/><feGaussianBlur stdDeviation="15" result="b"/><feFlood flood-color="#656565" flood-opacity="0.102"/><feComposite operator="in" in2="b"/><feComposite in="SourceGraphic"/></filter></defs><g transform="translate(44.549 35)"><g class="c" transform="matrix(1, 0, 0, 1, -44.55, -35)"><circle class="a" cx="20" cy="20" r="20" transform="translate(45 35)"/></g><g transform="translate(10 9)"><path class="b" d="M21.449,25.267a6.733,6.733,0,0,1-9.5,0,6.662,6.662,0,0,1,0-9.422l9.442-9.378a5.064,5.064,0,0,1,7.129,0,4.963,4.963,0,0,1,0,7.067l-8.664,8.6a3.349,3.349,0,1,1-4.749-4.722L20.6,11.967a.556.556,0,0,1,.79,0l.6.589a.555.555,0,0,1,0,.789L16.5,18.789a1.4,1.4,0,0,0,1.98,1.967l8.664-8.589a3.042,3.042,0,0,0,0-4.322,3.094,3.094,0,0,0-4.36,0l-9.464,9.378a4.719,4.719,0,0,0,0,6.667,4.808,4.808,0,0,0,6.728,0l6.284-6.233a.568.568,0,0,1,.8,0l.589.589a.533.533,0,0,1,0,.778Z" transform="translate(-10 -5)"/></g></g></svg>