<svg xmlns="http://www.w3.org/2000/svg" width="127" height="55" viewBox="0 0 127 55"><defs><style>.a{fill:#f2421b;}</style></defs><g transform="translate(-353.201 -74.887)"><path class="a" d="M526.866,125.272H506.947a45.54,45.54,0,0,0,2.282-12.09,3.956,3.956,0,0,1,1.281-2.469,7.25,7.25,0,0,0,.77-.776l1.982-2.369a24.7,24.7,0,0,0,.37,2.885s2.38,8.921,8.454,1.152c0,0,1.452-2.483,2.629-4.829h0s3.7-4.494.914-6.448c0,0-1.346-1.631-5.809-2.631-4.731-1.06-12.947-1.45-26.03.161,0,0,13.384-1,22.589.7-1.167.843-2.743,2.638-3.089,6.264l-.037-.249s-2.581,5.037-3.72,5.525c0,0-.038-9.978-1.139-11.229,0,0-.835-.968-1.006.479a.735.735,0,0,1-.74-.025s-3.9-2.1-5.619,4.46c-.259.988-1.106,3.125-.789,4.693-.169,1.911-.691,5.188-2.3,5.958,0,0-1.721.827-2.328-4.535l.1-6.666s.456-1.8-3.037-1.9c-.405.05-1.974-.5-2.581.5,0,0-3.8,4.811-5.467,1.278,0,0-1.177-4.623-4.29-2.669,0,0-.417.038-2.43,3.834l-.349-4.591a.883.883,0,0,0-.972-.807l-1.374.136.15,3.143a61.881,61.881,0,0,0-2.579,8.244s-1.139,5.338-3.151.977c0,0-.987-1.729-.532-7.668l.1-1.742a1.632,1.632,0,0,0-1.362-1.7l-2.064-.353s-2.145-.414-2.7,1.353a17.951,17.951,0,0,0-1.331,3.554.172.172,0,0,0-.03.036,2.408,2.408,0,0,1-1.384,1.158l-.013.005c-.215.1-6.324,3.024-8.372,1.459a.251.251,0,0,1-.1-.2V106.9a.173.173,0,0,1,.114-.162,12.039,12.039,0,0,0,5.4-3.977,1.183,1.183,0,0,0-.265-1.823.179.179,0,0,0-.2,0,12.361,12.361,0,0,0-.883,1.055c-.272.268-4.111,4.054-4.847,3.068a.157.157,0,0,1-.022-.039c-.04-.108-.153-.627.4-2.3a.178.178,0,0,1,.069-.091,13.769,13.769,0,0,0,4.693-5.056c.044-.089.091-.177.142-.262.6-.988,4.533-7.543,5.592-10.544l0-.008c.072-.155,2.216-4.825-.377-5.391a2.194,2.194,0,0,0-1.618.3c-1.971,1.227-3.944,3.366-5.894,6.751-2.578,4.474-4.043,10.514-4.918,14.748a2.892,2.892,0,0,1-.667,1.3.185.185,0,0,0-.05.076V104.5s-2.573,2.25-3.863.914a1.533,1.533,0,0,1-.3-.478c-.309-.738-1.646-3.7-3.274-3.807a16.654,16.654,0,0,0-2.486-.02c-.088.008-.175.009-.262.015-.189.012-.679.194-1.04,1.672-.033.136-.1.344-.174.58l-.9,1.124h0s-2.573,2.25-3.863.914a1.538,1.538,0,0,1-.3-.478c-.309-.738-1.646-3.7-3.273-3.807a12.859,12.859,0,0,0-2.23-.019,1.928,1.928,0,0,1-.234.013c-.3,0-.937.156-1.307,1.673-.132.543-.772,2.242-.772,2.242s-1.468,5.463,1.873,7.217c0,0,1.772.451,2.379-.251,0,0,1.519-.839,2.835-5.281,0,0,0-.645.911-.176a3.038,3.038,0,0,0,3.683.019l.3-.113h0l.073-.009c-.2,1.742-.139,4.624,2.121,5.81,0,0,1.772.451,2.379-.251,0,0,1.519-.839,2.835-5.281,0,0,0-.645.911-.176a3.037,3.037,0,0,0,3.682.019l.3-.113v-.019a.2.2,0,0,0,.062-.04.176.176,0,0,1,.3.146c-.19,1.762-.682,7.8,1.524,7.718,0,0,1.015.219.514-1.472a14.415,14.415,0,0,1-.124-4.222.176.176,0,0,1,.322-.047c.408.708,1.7,2.075,5.331.87l.012,0a10.4,10.4,0,0,0,4.688-2.8l.025-.029.356-.514a5.4,5.4,0,0,0,.012,1.431,2.608,2.608,0,0,0,2.089,2.255s.929.338,1.4-1.635c0,0,1.4-4.66,1.879-4.9l.2.263v4.744a5.922,5.922,0,0,0,.388,2.113c.6,1.568,1.937,4.058,4.334,3.775a3.352,3.352,0,0,0,2.809-2.419c.129-.452.27-1.036.416-1.786l.7.694.058,1.224s1.708,2.218,1.746-.15c0,0,.405-6.9,3.091-9.67.232-.239.446-.493.656-.75.286-.35.812-.7,1.3.5a4.834,4.834,0,0,0,2.9,3.345,2.9,2.9,0,0,0,3.164-.476l-.481,2.4s-.684,2.837,1.594,3.915c0,0,1.417.827,1.923-1.98,0,0,1.468-4.711,1.924-4.561,0,0-.919,8.239,2.88,10.457l-5.835-.051-5.866-.029-11.731-.024-11.731.024-5.865.029-5.865.051,5.865.051,5.865.029,11.731.024,11.731-.024,5.866-.029,5.836-.051a4.23,4.23,0,0,0,2.383.543s2.126.6,2.936-5.162V110.2a4.386,4.386,0,0,0,1.216.154s1.417-.1,2.075-2.656l2.379-5.713s.861-1.654-.253,9.622c0,0-.354,1.153-.759,1.153,0,0-8.218,4.736-10.084,12.516H475.671v1.019h20.534a13.245,13.245,0,0,0-.153,2.817,5.417,5.417,0,0,0,2.994,4.615c1.509.733,3.388.733,4.869-2.2a21.959,21.959,0,0,0,2.663-5.234h20.288ZM518.45,99.312a.287.287,0,0,1,.393.263c0,.665-.331,2.157-2.894,3.986C515.949,103.562,516.393,100.143,518.45,99.312Zm-2.893,5.928s3.085.286,4.5-5.242a1.736,1.736,0,0,0,.05-.5c2.9.98,4.809,2.432,4.768,4.559v0a6.76,6.76,0,0,0-.313.7s-5.388,9.1-7.877,8.2C514.883,112.306,514.734,109.726,515.556,105.241Zm-63.626-4.662s.962-10.549,7.188-17.165c0,0,2.917-2.642,3.147-.429a2.328,2.328,0,0,1-.109.95,54.026,54.026,0,0,1-9.568,16.644S451.829,101.4,451.931,100.579Zm-22.373,6.146c-1.185,2.661-2.184,3.526-2.691,3.806a.444.444,0,0,1-.62-.194c-.436-.979.262-3.281.262-3.281a11.093,11.093,0,0,1,2.581-4.586C430.8,103.868,429.558,106.725,429.558,106.725Zm12.3,0c-1.721,3.865-3.05,3.94-3.05,3.94-.911-.6,0-3.608,0-3.608a11.09,11.09,0,0,1,2.582-4.586C443.1,103.868,441.862,106.725,441.862,106.725Zm21.709.261a.172.172,0,0,1-.2.083.169.169,0,0,1-.111-.218,40.812,40.812,0,0,1,2.1-5.067.528.528,0,0,1,.444-.237h.641Zm26.449,1.348s-.455.113,0-.94l1.62-3.88a1.09,1.09,0,0,1,1.008-.667h.524Zm16.6-7.125c-.728,3.529-4.4,7.5-4.4,7.5l.323-1.742c1.136-4.787,2.8-5.9,3.637-6.149A.341.341,0,0,1,506.621,101.21Zm.255,12.348a37.057,37.057,0,0,1-2.578,11.714H498.2C499.583,117.7,506.876,113.558,506.876,113.558Zm-5.391,17.252c-2.848,5.224-3.341-.865-3.341-.865a14.248,14.248,0,0,1-.088-3.655h5.819A28.107,28.107,0,0,1,501.485,130.81Z" transform="translate(-46.665 -4.243)"/><rect class="a" width="51.997" height="1.021" transform="translate(353.201 121.013)"/><path class="a" d="M509.381,207.781l-.845,2.467h.332l.258-.776h.881l.266.776h.343l-.849-2.467Zm-.188,1.442.243-.714c.048-.15.089-.3.125-.447h.008c.037.143.074.289.129.45l.243.71Z" transform="translate(-102.146 -87.782)"/><path class="a" d="M516.981,209.825h-.325v1.087a.464.464,0,0,1-.029.165.469.469,0,0,1-.428.293c-.295,0-.4-.227-.4-.564v-.981h-.325v1.036c0,.622.336.776.616.776a.672.672,0,0,0,.59-.329h.008l.018.289H517c-.011-.139-.015-.3-.015-.483Z" transform="translate(-106.709 -89.131)"/><path class="a" d="M521.439,208.33l-.317.084v.424h-.277v.245h.277v.966a.652.652,0,0,0,.125.461.451.451,0,0,0,.35.135.8.8,0,0,0,.288-.044l-.015-.242a.72.72,0,0,1-.188.022c-.181,0-.243-.124-.243-.344v-.955h.465v-.245h-.465Z" transform="translate(-110.24 -88.145)"/><path class="a" d="M525.451,209.707a.868.868,0,0,0-.886.941.845.845,0,0,0,.856.911.869.869,0,0,0,.889-.941A.842.842,0,0,0,525.451,209.707Zm-.015,1.61c-.317,0-.542-.293-.542-.681,0-.336.166-.688.55-.688s.535.381.535.68C525.979,211.028,525.747,211.317,525.437,211.317Z" transform="translate(-112.687 -89.053)"/><path class="a" d="M534.042,207.93a1.173,1.173,0,0,1,.5.1l.077-.26a1.335,1.335,0,0,0-.59-.11,1.233,1.233,0,0,0-1.3,1.3,1.157,1.157,0,0,0,1.229,1.248,1.6,1.6,0,0,0,.656-.117l-.066-.252a1.293,1.293,0,0,1-.524.1.9.9,0,0,1-.955-.992A.92.92,0,0,1,534.042,207.93Z" transform="translate(-118.057 -87.704)"/><path class="a" d="M539.772,209.707a.868.868,0,0,0-.885.941.845.845,0,0,0,.856.911.869.869,0,0,0,.889-.941A.842.842,0,0,0,539.772,209.707Zm-.015,1.61c-.318,0-.543-.293-.543-.681,0-.336.166-.688.55-.688s.535.381.535.68C540.3,211.028,540.067,211.317,539.758,211.317Z" transform="translate(-122.104 -89.053)"/><path class="a" d="M546.031,209.707a.658.658,0,0,0-.591.333h-.007l-.018-.293h-.288c.011.146.015.3.015.479v1.292h.324v-1.065a.473.473,0,0,1,.458-.479c.306,0,.413.238.413.523v1.021h.325v-1.058C546.662,209.853,546.278,209.707,546.031,209.707Z" transform="translate(-126.208 -89.053)"/><path class="a" d="M552,209.707a.658.658,0,0,0-.59.333H551.4l-.018-.293H551.1c.011.146.015.3.015.479v1.292h.325v-1.065a.472.472,0,0,1,.457-.479c.306,0,.413.238.413.523v1.021h.325v-1.058C552.633,209.853,552.249,209.707,552,209.707Z" transform="translate(-130.134 -89.053)"/><path class="a" d="M557.574,209.707a.862.862,0,0,0-.838.955.825.825,0,0,0,.878.893,1.453,1.453,0,0,0,.594-.11l-.055-.23a1.18,1.18,0,0,1-.494.092.57.57,0,0,1-.613-.615H558.3a1.18,1.18,0,0,0,.011-.15A.752.752,0,0,0,557.574,209.707Zm-.524.754a.536.536,0,0,1,.5-.523.46.46,0,0,1,.45.523Z" transform="translate(-133.841 -89.053)"/><path class="a" d="M563.085,209.974a.76.76,0,0,1,.376.084l.074-.249a1.1,1.1,0,0,0-.45-.091.9.9,0,0,0-.959.94.845.845,0,0,0,.889.9,1.207,1.207,0,0,0,.513-.1l-.056-.241a.926.926,0,0,1-.4.088.667.667,0,0,1,.011-1.332Z" transform="translate(-137.386 -89.06)"/><path class="a" d="M567.464,208.33l-.318.084v.424h-.277v.245h.277v.966a.652.652,0,0,0,.126.461.45.45,0,0,0,.35.135.8.8,0,0,0,.288-.044l-.015-.242a.72.72,0,0,1-.188.022c-.181,0-.243-.124-.243-.344v-.955h.465v-.245h-.465Z" transform="translate(-140.505 -88.145)"/><path class="a" d="M358.238,109.826a3.176,3.176,0,0,0,0-1.431s-1.164-4.744,2.632-17.6l3.493-8.937a15.891,15.891,0,0,1,5.011-6.275s2.177-.352,1.316,5.472a23.108,23.108,0,0,1-4.5,10.543,20.61,20.61,0,0,1-5.289,4.318,1.45,1.45,0,0,0,.936,1.531s.682.6,1.1.176c0,0,4.227-4.217,9.162-2.071,0,0,2.733,1.017.8,7.38,0,0,.493.527-7.4,3.464,0,0-6.008,1.475-7.493,6.384a3.554,3.554,0,0,0,1.211,3.846c1.584,1.233,4.443,2.174,8.8-.879a31.544,31.544,0,0,0,6.783-12.4s3.609-2.625,3.446-4.547a.467.467,0,0,0-.91-.1,4.593,4.593,0,0,1-2.181,2.511s1.569-8.008-8.149-7.154c0,0,6.125-7.681,5.72-15.915a3.816,3.816,0,0,0-3.644-3.259s-3.746.1-7.745,10.187c0,0-3.644,9.74-3.847,10.895,0,0,.506-9.389,1.114-11.949,0,0,.9-2.405-1.187-3.158a1.244,1.244,0,0,0-1.483.534l-.835,9s-.443,13.505.417,17.622A2.474,2.474,0,0,0,358.238,109.826Zm2.968,6.71a1.285,1.285,0,0,1-.972-.629c-2.2-3.844,4.179-7.536,4.179-7.536l7.593-3.264C368.02,116.233,362.967,116.74,361.206,116.536Z" transform="translate(-1.165 0)"/><path class="a" d="M416.821,189.87l2.885.029c1.924.017,3.847.016,5.77.024,1.924-.008,3.847-.007,5.771-.024l2.885-.029c.962-.017,1.923-.028,2.885-.051-.962-.024-1.923-.034-2.885-.051l-2.885-.029c-1.923-.017-3.847-.016-5.771-.024-1.923.009-3.847.007-5.77.025l-2.885.029c-.962.017-1.924.028-2.885.051C414.9,189.843,415.859,189.853,416.821,189.87Z" transform="translate(-39.945 -75.834)"/><path class="a" d="M453.529,184.189c-2.583-.016-5.166-.016-7.749-.023-2.583.008-5.166.007-7.749.024l-3.874.029c-1.292.018-2.583.028-3.874.051,1.291.024,2.583.034,3.874.051l3.874.029c2.583.017,5.166.015,7.749.024,2.583-.008,5.166-.007,7.749-.024l3.874-.029c1.292-.017,2.583-.028,3.874-.051-1.291-.024-2.583-.034-3.874-.051Z" transform="translate(-50.7 -72.17)"/><path class="a" d="M582.036,174.394c1.573-.008,3.147-.007,4.72-.024l2.36-.029c.787-.017,1.573-.028,2.36-.051-.786-.024-1.573-.034-2.36-.051l-2.36-.029c-1.573-.017-3.147-.016-4.72-.024-1.573.009-3.146.007-4.72.025l-2.36.029c-.787.017-1.573.028-2.36.051.787.023,1.573.034,2.36.051l2.36.029C578.89,174.387,580.462,174.385,582.036,174.394Z" transform="translate(-144.29 -65.578)"/><path class="a" d="M497.382,126.864c-.853.013-1.706.027-2.559.048.844.02,1.688.034,2.532.047Z" transform="translate(-93.129 -34.326)"/><path class="a" d="M522.464,111.447c-.9.005-1.8.008-2.693.017l-.192,0-.141.235.333,0c2.925.029,5.85.033,8.775.037s5.85-.008,8.775-.036l4.388-.044c1.463-.026,2.925-.042,4.387-.077-1.462-.036-2.925-.051-4.387-.077l-4.388-.044c-2.168-.021-4.337-.028-6.505-.031v-.168l13.875-.734-14.122-.15s19.437-7.853,28.738-4.115c0,0,2.506.312,6.53,3.324l3.549-.113s-8.111-7.292-19.408-5.585c0,0-7.652.351-21.825,6.326H522Z" transform="translate(-109.371 -18.986)"/><path class="a" d="M709,142.972a4.126,4.126,0,0,0-3.721-2.44C705.711,142.912,709,142.972,709,142.972Z" transform="translate(-231.529 -43.355)"/></g></svg>