<svg xmlns="http://www.w3.org/2000/svg" width="20" height="20" viewBox="0 0 20 20"><defs><style>.a{fill:none;}.b{fill:#464646;}</style></defs><g transform="translate(-1104 -93)"><rect class="a" width="20" height="20" transform="translate(1104 93)"/><path class="b" d="M16.447,4.979H14.711v-.86a.719.719,0,1,0-1.439,0v.86H8.377v-.86A.723.723,0,0,0,7.658,3.4a.711.711,0,0,0-.719.719v.86H5.219A2.722,2.722,0,0,0,2.5,7.7v9.316a2.722,2.722,0,0,0,2.719,2.719H16.447a2.722,2.722,0,0,0,2.719-2.719V7.7A2.733,2.733,0,0,0,16.447,4.979ZM5.219,6.4H6.956v.86a.723.723,0,0,0,.719.719.711.711,0,0,0,.719-.719V6.4h4.912v.86a.719.719,0,1,0,1.439,0V6.4h1.7a1.3,1.3,0,0,1,1.3,1.3V9.365H3.921V7.7A1.3,1.3,0,0,1,5.219,6.4ZM16.447,18.312H5.219a1.3,1.3,0,0,1-1.3-1.3V10.8H17.746v6.211A1.3,1.3,0,0,1,16.447,18.312Z" transform="translate(1103.167 91.267)"/></g></svg>