<svg xmlns="http://www.w3.org/2000/svg" width="20" height="20" viewBox="0 0 20 20"><defs><style>.a{fill:none;}.b{fill:#325a8f;}</style></defs><g transform="translate(-0.5)"><rect class="a" width="20" height="20" transform="translate(0.5)"/><g transform="translate(1.667 1.667)"><path class="b" d="M22.095,21.957A1.223,1.223,0,0,0,22.14,20.2c-.754-.795-1.529-1.574-2.326-2.329a1.221,1.221,0,0,0-1.8-.043,7.5,7.5,0,0,0-2.156,2.509,3.33,3.33,0,0,0,0,1.587,15.933,15.933,0,0,0,3.116,6.036A17.106,17.106,0,0,0,27.3,33.787c.248.075.5.143.744.213a2.666,2.666,0,0,0,1.464,0,7.832,7.832,0,0,0,2.512-2.161,1.15,1.15,0,0,0,0-1.747q-1.162-1.248-2.424-2.4a1.155,1.155,0,0,0-1.74.08c-.416.389-.825.787-1.213,1.2a.564.564,0,0,1-.8.148,13.289,13.289,0,0,1-5.126-5.158.541.541,0,0,1,.125-.747C21.283,22.811,21.7,22.4,22.095,21.957Z" transform="translate(-15.758 -17.453)"/></g></g></svg>