<svg xmlns="http://www.w3.org/2000/svg" width="24" height="24" viewBox="0 0 24 24"><defs><style>.a{fill:none;}.b{fill:#818e94;}</style></defs><g transform="translate(-849 -144)"><rect class="a" width="24" height="24" transform="translate(849 144)"/><path class="b" d="M19.237,5.237H17.153v-1a.864.864,0,0,0-1.726,0v1H9.553v-1A.854.854,0,0,0,8.689,3.4a.841.841,0,0,0-.863.837v1H5.763A3.217,3.217,0,0,0,2.5,8.4V19.237A3.217,3.217,0,0,0,5.763,22.4H19.237A3.217,3.217,0,0,0,22.5,19.237V8.4A3.231,3.231,0,0,0,19.237,5.237ZM5.763,6.89H7.847v1a.854.854,0,0,0,.863.837.841.841,0,0,0,.863-.837v-1h5.895v1a.864.864,0,0,0,1.726,0v-1h2.042A1.531,1.531,0,0,1,20.795,8.4v1.939H4.205V8.4A1.531,1.531,0,0,1,5.763,6.89ZM19.237,20.747H5.763a1.531,1.531,0,0,1-1.558-1.51V12.012H20.795v7.224A1.531,1.531,0,0,1,19.237,20.747Z" transform="translate(849 143)"/></g></svg>