<svg xmlns="http://www.w3.org/2000/svg" width="20" height="20" viewBox="0 0 20 20"><defs><style>.a{fill:none;}.b{fill:#8e8e8e;}</style></defs><g transform="translate(-639 -296)"><rect class="a" width="20" height="20" transform="translate(639 296)"/><path class="b" d="M18.095,6.053a1.706,1.706,0,0,0-1.737-1.737H14.041V3.737A1.706,1.706,0,0,0,12.3,2H8.83A1.706,1.706,0,0,0,7.093,3.737v.579H4.777A1.674,1.674,0,0,0,3.1,6.111,1.687,1.687,0,0,0,4.256,7.732l.984,9.033a1.75,1.75,0,0,0,1.737,1.448h7.18a1.748,1.748,0,0,0,1.737-1.505l.984-9.033A1.668,1.668,0,0,0,18.095,6.053ZM8.251,3.737a.547.547,0,0,1,.579-.579H12.3a.547.547,0,0,1,.579.579v.579H8.251Zm6.485,12.854a.564.564,0,0,1-.579.463H6.977a.564.564,0,0,1-.579-.463l-.984-8.8H15.721Zm1.621-9.959H4.777A.547.547,0,0,1,4.2,6.053a.547.547,0,0,1,.579-.579H16.358a.547.547,0,0,1,.579.579A.547.547,0,0,1,16.358,6.632ZM8.251,14.739V9.527a.579.579,0,0,1,1.158,0v5.211a.579.579,0,1,1-1.158,0Zm3.474,0V9.527a.579.579,0,0,1,1.158,0v5.211a.579.579,0,1,1-1.158,0Z" transform="translate(638.405 295.667)"/></g></svg>