<svg xmlns="http://www.w3.org/2000/svg" width="230" height="245" viewBox="0 0 230 245"><defs><style>.a{fill:#de5500;}.a,.c,.g,.h,.i,.j,.l,.m,.n,.o,.p,.q,.r,.s,.u,.w{fill-rule:evenodd;}.b,.g{fill:#244066;}.c{fill:#003273;}.d,.l{fill:#c93218;}.e{fill:#5c5d5f;}.f{fill:#001026;}.h{fill:#6e6e6e;}.i,.k{fill:#f2421b;}.j{fill:#e6e6e6;}.m{fill:#ffdba7;}.n{fill:#1f1c1d;}.o{fill:#b5b9ba;}.p{fill:#a3a3a3;}.q{fill:#f0c17d;}.r{fill:#632404;}.s{fill:#f05c00;}.t{fill:#032747;}.u,.v{fill:#0f4283;}.w{fill:#e3e7ea;}</style></defs><g transform="translate(-72 -131)"><g transform="translate(-39 -52)"><path class="a" d="M272.777,260.653l1.986-.393-.039-3.855,0-.427.4-.14a15.886,15.886,0,0,0,1.864-.773,16.175,16.175,0,0,0,1.748-1l.358-.237.335.265,3.027,2.382,1.52-1.331-1.963-3.32-.217-.368.28-.323a16.192,16.192,0,0,0,2.237-3.342l.192-.382.423.062,3.817.551.652-1.915-3.355-1.89-.374-.211.081-.42a16.018,16.018,0,0,0,.267-4.016l-.025-.426.4-.159,3.578-1.43-.393-1.986-3.853.039-.429,0-.138-.4a16.1,16.1,0,0,0-1.771-3.611l-.235-.358.263-.334,2.383-3.027-1.331-1.522-3.319,1.963-.368.217-.323-.279a16.264,16.264,0,0,0-3.342-2.237l-.382-.192.061-.422.552-3.817-1.915-.652-1.891,3.354-.212.374-.42-.081a15.71,15.71,0,0,0-2-.258,16.1,16.1,0,0,0-2.018-.008l-.427.025-.159-.4-1.43-3.578-1.986.393.04,3.854,0,.428-.4.14a15.988,15.988,0,0,0-3.611,1.771l-.358.235-.335-.263-3.027-2.384-1.521,1.332,1.963,3.318.217.368-.279.324a16.261,16.261,0,0,0-2.237,3.342l-.193.381-.422-.06L250.9,233l-.652,1.915,3.354,1.89.374.212-.081.42a16.012,16.012,0,0,0-.267,4.015l.025.427-.4.159-3.577,1.43.392,1.985,3.855-.039.427,0,.139.4a16.017,16.017,0,0,0,1.772,3.61l.235.359-.264.334-2.382,3.027,1.331,1.521,3.319-1.963.368-.218.324.28a15.9,15.9,0,0,0,1.6,1.222,16.4,16.4,0,0,0,1.74,1.017l.382.191-.061.423-.551,3.817,1.915.652,1.891-3.355.21-.374.421.081a15.953,15.953,0,0,0,1.995.259,16.309,16.309,0,0,0,2.018.008l.426-.026.16.4,1.43,3.579Zm2.7.678-2.952.583-.481.1-.184-.458-1.456-3.645q-.875.029-1.733-.027a17.209,17.209,0,0,1-1.723-.2L265.02,261.1l-.243.431-.466-.159-2.849-.971-.469-.161.07-.487.563-3.887a17.331,17.331,0,0,1-1.486-.893c-.479-.322-.944-.666-1.389-1.032l-3.38,2-.424.25-.325-.371-1.981-2.266-.325-.372.3-.386,2.427-3.084a16.859,16.859,0,0,1-.842-1.517q-.384-.781-.688-1.592l-3.923.041-.493,0-.1-.484-.584-2.952-.1-.482.459-.182,3.645-1.458a17.23,17.23,0,0,1,.026-1.731,16.98,16.98,0,0,1,.2-1.725l-3.415-1.924-.431-.243.159-.467.971-2.849.159-.468.487.071,3.889.561a17.68,17.68,0,0,1,1.925-2.874l-2-3.381-.25-.424.371-.324,2.266-1.983.372-.324.386.3,3.084,2.427q.732-.454,1.517-.841t1.592-.686l-.041-3.925,0-.493.483-.1,2.953-.584.482-.094.183.458,1.457,3.644a17.486,17.486,0,0,1,3.456.228l1.925-3.417.242-.43.468.159,2.849.971.469.16-.072.487-.561,3.888q.762.409,1.485.891t1.39,1.034l3.38-2,.424-.251.324.372,1.982,2.266.324.372-.3.386-2.428,3.084a16.713,16.713,0,0,1,.841,1.515c.257.523.486,1.055.688,1.593l3.923-.04.492,0,.1.484.584,2.952.1.482-.458.182-3.644,1.457q.029.875-.026,1.733t-.2,1.723l3.416,1.925.43.242-.159.467-.971,2.85-.16.468-.486-.071-3.889-.561c-.272.507-.57,1-.892,1.484s-.667.944-1.033,1.39l2,3.38.25.424-.371.325-2.265,1.983-.373.324-.386-.3-3.083-2.427q-.731.454-1.515.84a17.237,17.237,0,0,1-1.594.687l.04,3.925.006.492-.485.1Zm-3.657-10.745a10.227,10.227,0,0,0,5.761-3.34l.344-.4.435.291,2.595,1.738.545.365-.415.5a14.542,14.542,0,0,1-18.154,3.591l-.576-.309.365-.544,1.737-2.595.292-.436.47.236a10.223,10.223,0,0,0,6.6.9Zm3.756-.16a11.477,11.477,0,0,0,2.551-2.015l1.612,1.079a13.363,13.363,0,0,1-15.659,3.1l1.079-1.614a11.473,11.473,0,0,0,10.417-.55Zm3.431-5.307a10.264,10.264,0,0,0-2.446-12.366l-.4-.343.291-.436,1.739-2.595.365-.544.5.414a14.55,14.55,0,0,1,3.591,18.156l-.31.574-.543-.364-2.6-1.738-.434-.291.235-.467Zm2.177-3.068a11.478,11.478,0,0,0-1.443-7.291,11.373,11.373,0,0,0-2.014-2.55l1.08-1.613a13.361,13.361,0,0,1,3.1,15.659l-1.614-1.081a11.439,11.439,0,0,0,.892-3.124Zm-6.749-10.722a10.263,10.263,0,0,0-12.365,2.445l-.344.4-.435-.292-2.6-1.738-.544-.365.414-.5a14.55,14.55,0,0,1,18.155-3.592l.576.311-.365.544-1.738,2.595-.291.434-.467-.234Zm-3.068-2.178a11.442,11.442,0,0,0-9.841,3.458l-1.614-1.08a13.36,13.36,0,0,1,15.66-3.1l-1.08,1.614a11.458,11.458,0,0,0-3.125-.893ZM260.645,235.9a10.253,10.253,0,0,0,2.445,12.363l.4.343-.292.436-1.737,2.595-.365.545-.506-.415a14.549,14.549,0,0,1-3.591-18.155l.31-.575.544.364,2.595,1.739.436.292-.235.468Zm-2.178,3.067a11.447,11.447,0,0,0,3.457,9.841l-1.079,1.613a13.36,13.36,0,0,1-3.1-15.659l1.613,1.08a11.409,11.409,0,0,0-.892,3.125Zm18.587,6.383a8.719,8.719,0,0,1-2.4,2.4h0a8.7,8.7,0,1,1,2.417-12.068h0a8.681,8.681,0,0,1-.015,9.665Zm-3.061,1.412h0a7.512,7.512,0,1,1,2.088-10.422l0,0a7.521,7.521,0,0,1-2.088,10.42Z" transform="translate(541.011 -65.324) rotate(90)"/><path class="a" d="M245.227,287.885l1.759-.309.037-3.4,0-.378.359-.115a14.234,14.234,0,0,0,1.657-.646,14.487,14.487,0,0,0,1.56-.847l.319-.2.291.239,2.624,2.158,1.367-1.146-1.669-2.964-.184-.328.253-.28a14.207,14.207,0,0,0,1.108-1.39,14.41,14.41,0,0,0,.928-1.515l.176-.333.371.062,3.356.557.611-1.676-2.922-1.73-.327-.193.08-.368a14.267,14.267,0,0,0,.31-3.534l-.015-.378.354-.132,3.182-1.195-.309-1.759-3.4-.037-.378,0-.116-.359a14.28,14.28,0,0,0-.646-1.655,13.766,13.766,0,0,0-.848-1.561l-.2-.32.238-.291,2.158-2.625-1.146-1.367-2.963,1.669-.329.184-.279-.252a14.182,14.182,0,0,0-1.39-1.109,14.5,14.5,0,0,0-1.515-.927l-.334-.177.063-.37.557-3.356-1.677-.611-1.729,2.922-.194.326-.368-.08a14.326,14.326,0,0,0-3.534-.309l-.377.015-.132-.354-1.194-3.183-1.76.309-.037,3.4,0,.378-.358.116a14.109,14.109,0,0,0-3.217,1.494l-.321.2-.29-.238-2.624-2.159L230.8,256.9l1.669,2.963.184.328-.253.279a14.406,14.406,0,0,0-2.036,2.906l-.177.333-.37-.062-3.355-.557-.611,1.676,2.921,1.729.326.193-.079.369a14.256,14.256,0,0,0-.31,3.535l.015.377-.353.131-3.182,1.195.308,1.759,3.4.037.377,0,.116.359a14.051,14.051,0,0,0,1.494,3.217l.2.32-.238.29-2.158,2.626,1.146,1.366,2.964-1.669.327-.184.28.253a14.366,14.366,0,0,0,2.9,2.036l.333.176-.061.37-.558,3.357,1.676.61,1.73-2.921.193-.326.368.079a14.14,14.14,0,0,0,3.535.309l.376-.014.133.354,1.195,3.183Zm2.367.648-2.615.46-.428.074-.152-.406-1.216-3.242q-.773.009-1.528-.057a15.2,15.2,0,0,1-1.515-.21l-1.762,2.977-.222.375-.408-.149-2.494-.909-.41-.15.071-.429.568-3.418c-.443-.249-.874-.522-1.294-.814s-.82-.606-1.2-.937l-3.019,1.7-.378.213-.28-.334-1.7-2.034-.28-.334.276-.335,2.2-2.674q-.388-.655-.714-1.352t-.576-1.417l-3.461-.037-.435,0-.075-.43-.459-2.614-.075-.426.407-.154,3.241-1.216a15.169,15.169,0,0,1,.265-3.043l-2.975-1.762-.375-.223.149-.408.909-2.493.15-.409.428.071,3.418.568c.25-.442.521-.875.814-1.292s.606-.82.938-1.207l-1.7-3.019-.213-.379.334-.279,2.034-1.7.334-.28.335.276,2.673,2.2q.655-.388,1.353-.714t1.416-.576l.038-3.462,0-.435.429-.075,2.615-.458.427-.076.153.407,1.216,3.242a15.366,15.366,0,0,1,3.043.265l1.762-2.976.223-.375.408.149,2.493.91.409.149-.07.428-.568,3.419c.443.249.874.521,1.292.814s.821.605,1.207.937l3.018-1.7.379-.212.279.332,1.7,2.036.28.333-.275.336-2.2,2.673q.388.654.713,1.352a15.225,15.225,0,0,1,.577,1.417l3.461.038.435,0,.075.429.458,2.614.076.428-.407.152-3.24,1.216q.009.773-.058,1.528a15.176,15.176,0,0,1-.209,1.516l2.976,1.761.374.222-.149.409-.909,2.494-.15.409-.427-.07-3.419-.569q-.375.664-.815,1.293a15.147,15.147,0,0,1-.937,1.206l1.7,3.019.212.378-.332.28-2.036,1.7-.333.28-.335-.275-2.674-2.2a15.27,15.27,0,0,1-1.35.713c-.465.215-.939.409-1.419.577l-.037,3.461,0,.435-.428.074Zm-3.023-9.543a9.016,9.016,0,0,0,5.142-2.836l.31-.344.379.264,2.256,1.583.472.332-.374.438a12.836,12.836,0,0,1-16.076,2.825l-.5-.284.332-.473,1.582-2.255.265-.379.408.216a9.02,9.02,0,0,0,5.805.913Zm3.314-.07a10.131,10.131,0,0,0,2.287-1.728l1.4.982a11.777,11.777,0,0,1-13.865,2.437l.982-1.4a10.122,10.122,0,0,0,9.2-.291Zm3.125-4.615a9.052,9.052,0,0,0-1.924-10.95l-.343-.31.264-.379,1.582-2.256.332-.473.438.375a12.828,12.828,0,0,1,2.825,16.076l-.284.5-.472-.33-2.256-1.583-.378-.264.216-.406Zm1.978-2.666a10.1,10.1,0,0,0-2.863-8.742l.982-1.4a11.785,11.785,0,0,1,2.437,13.866l-1.4-.983a10.094,10.094,0,0,0,.847-2.739Zm-5.75-9.581a9.053,9.053,0,0,0-10.948,1.924l-.311.343-.378-.265-2.256-1.581-.473-.332.374-.439a12.827,12.827,0,0,1,16.076-2.824l.5.283-.331.473-1.582,2.256-.265.378-.406-.216Zm-2.665-1.978a10.1,10.1,0,0,0-8.742,2.863l-1.4-.982a11.789,11.789,0,0,1,13.866-2.438l-.983,1.4a10.137,10.137,0,0,0-2.739-.846Zm-9.58,5.753a9.047,9.047,0,0,0,1.923,10.946l.344.311-.265.378-1.582,2.256-.332.472-.437-.373a12.83,12.83,0,0,1-2.826-16.076l.284-.5.473.331,2.256,1.582.378.264-.216.41Zm-1.977,2.662a10.085,10.085,0,0,0,2.862,8.742l-.982,1.4a11.784,11.784,0,0,1-2.438-13.866l1.4.982a10.086,10.086,0,0,0-.844,2.74Zm16.269,5.978a7.7,7.7,0,0,1-2.164,2.072h0a7.67,7.67,0,1,1,2.36-10.6h0a7.657,7.657,0,0,1-.195,8.523Zm-2.725,1.188h0a6.624,6.624,0,1,1,2.037-9.152l0,0a6.638,6.638,0,0,1-2.037,9.15Z" transform="translate(293.14 -128.795) rotate(45)"/></g><g transform="translate(20 -0.6)"><rect class="b" width="230" height="23.537" transform="translate(52 319.063)"/><rect class="b" width="207.145" height="152.048" transform="translate(63.428 190.552)"/><path class="c" d="M19.633,354.467h230l-2.984-3.362H22.617Z" transform="translate(32.367 -35.32)"/><rect class="d" width="139.221" height="103.8" transform="translate(97.2 238.801)"/><rect class="e" width="127.611" height="103.8" transform="translate(102.998 238.801)"/><rect class="f" width="207.145" height="21.026" transform="translate(63.428 190.552)"/><path class="g" d="M23.276,220.611H245.99l-2.983,20.91H26.26Z" transform="translate(32.367 -35.011)"/><path class="h" d="M93.151,347.676h81.476L198.439,378H70.828Z" transform="translate(32.17 -35.404)"/><g transform="translate(96.835 239.045)"><rect class="d" width="139.954" height="25.973"/><path class="i" d="M66.52,294.743H203.48l1.5,1.255-1.5,1.26H66.52l-1.5-1.331Z" transform="translate(-65.023 -274.204)"/><path class="i" d="M66.52,299.322H203.48l1.5,1.255-1.5,1.26H66.52l-1.5-1.33Z" transform="translate(-65.023 -274.204)"/><path class="j" d="M66.52,285.765H203.48l1.5,1.254-1.5,1.26H66.52l-1.5-1.33Z" transform="translate(-65.023 -274.204)"/><path class="i" d="M66.52,290.344H203.48l1.5,1.254-1.5,1.26H66.52l-1.5-1.33Z" transform="translate(-65.023 -274.204)"/></g><g transform="translate(91.774 218.293)"><rect class="k" width="150.451" height="32.466"/><path class="l" d="M64.265,288.976h141.47l4.49-3.108H59.774Z" transform="translate(-59.774 -253.401)"/></g></g><g transform="translate(84 264)"><path class="m" d="M52.917,338.427c.137,5.345-.574,7.927-.882,13.275l-2.659,1.365a85.226,85.226,0,0,1-1.433-14.212l-1.517-5.741,4.491-2.048A53.306,53.306,0,0,1,52.917,338.427Z" transform="translate(-20.043 -294.969)"/><g transform="translate(4.559 46.953)"><path class="n" d="M46.193,387.886l1.955,2.308,2.929,2.576c.3.213.386,1.592-.15,1.516l-3.02.228a5.814,5.814,0,0,1-2.863-.718c-.633-.314-1.251-.84-2.04-1.328l-.344.628-2.846-.979-.069-1.922c-.359-2.07.467-2.408.754-3.847l4.975.1Z" transform="translate(-25.202 -329.965)"/><path class="n" d="M35.746,386.666l-.116,5.419-2.851,3.007-4.661-.593-.193-4.057,2.5-4.441Z" transform="translate(-27.925 -330.046)"/><path class="o" d="M32.769,340.587l-1.285,9.406a42.588,42.588,0,0,0-1.019,8.136l-1.506,39.539,3.486.909,3.966-.42,4.051-41.333.886-.419,1.345-15.456Z" transform="translate(-27.685 -340.587)"/><path class="p" d="M48.331,340.824,49.588,348a36.757,36.757,0,0,1,.392,11.687l-3,38.627-3.619.309-4.011-.168.214-41.405-.561-.7V340.894Z" transform="translate(-25.352 -340.532)"/><path class="o" d="M45.249,356.336,43.4,398.579l-4.045-.14.214-41.4-.561-.7V340.881l4.086.383Z" transform="translate(-25.352 -340.519)"/></g><g transform="translate(11.477)"><g transform="translate(0 1.997)"><path class="q" d="M35.777,312.384h6.75c-.017,1.825-.037,3.63,0,5.455l-2.173,4.9L35.6,317.874Z" transform="translate(-33.49 -300.716)"/><path class="m" d="M39.486,317.177H39.43a3.238,3.238,0,0,1-1.38-.163c-.355-.15-.527-.5-1.016-.97-.415-.4-1.162-.808-1.343-1.243a7.487,7.487,0,0,1-.262-1.881c-.387.212-.8-.891-.882-1.254-.12-.534-.5-1.443-.625-2.053-.069-.35-.027-.626.09-.715.25-.186.508-.085.881.423.025-.429.052-.874.038-1.345a11.642,11.642,0,0,1,.057-2.233,2.62,2.62,0,0,1,.864-1.6h0a4.468,4.468,0,0,1,.95-.638l.011,0c.022-.01.046-.022.069-.035s.025-.01.038-.017a.572.572,0,0,1,.055-.026l.054-.023a.588.588,0,0,1,.058-.025.327.327,0,0,1,.052-.023c.025-.01.048-.021.074-.03a.312.312,0,0,0,.036-.015l.111-.041h0a6.212,6.212,0,0,1,2.974-.282,5.055,5.055,0,0,1,2.624,1.154,2.625,2.625,0,0,1,.86,1.593,11.614,11.614,0,0,1,.062,2.225c-.015.474.016.92.041,1.353.367-.494.622-.591.87-.408.118.089.159.365.09.715-.12.61-.505,1.519-.626,2.053-.081.359-.484,1.442-.866,1.26a7.214,7.214,0,0,1-.254,1.833c-.181.439-.922.853-1.334,1.257-.487.476-.659.826-1.012.982A3.061,3.061,0,0,1,39.486,317.177Z" transform="translate(-33.888 -302.915)"/></g><path class="r" d="M36.144,305.454a11.855,11.855,0,0,0-1.035,5.461c-1.1-3.882-1.684-6.655.694-8.4,3.123-2.291,6.895-.818,7.2.06,2.5.855,1.5,4.719.808,7.794a10.361,10.361,0,0,0-1.147-4.8c-.189-.179-1,.844-1.185.833C39.629,306.289,38.984,305.894,36.144,305.454Z" transform="translate(-33.826 -301.294)"/></g><path class="l" d="M46.153,318.287a5.087,5.087,0,0,1,1.658.6c1.437,1.278,1.534,3.987,1.923,6.235.654,3.783,2.178,8,2.808,11.807l-2.867,1.609-1.958,1.258c-.934-3.54-2.733-6.878-3.471-10.462Z" transform="translate(-20.549 -297.682)"/><path class="i" d="M33.065,349.185a10.1,10.1,0,0,0-.266-2.724c-.83-4.683-.232-6.771-1.148-11.535-.75-3.907-2.058-8.6-3-15.822l5.777-1.747,2.654-1.915c.041.4.095.8.159,1.2l2.578,2.679,2.511.651.614-.148,1.624-2.557c-.084-.233-.17-.463-.26-.694,2.348,1.342,2.835,1.667,4.514,2.091.225.054,1.066.3,1.594.474,1,.334.792.909,1.126,2.3.593,2.463.2,5.7-.233,9.041-.274,2.111-.96,12.453-.472,15.319Z" transform="translate(-23.197 -298.329)"/><path class="o" d="M32.174,350.392c.107-1.089.278-4.018.222-4.336a44.943,44.943,0,0,1-.58-6.6c2.5-5.313,1.381-16.542-1.427-21.4l2.873-.869c2.818,5.011,3.433,10.631,4.234,16.244.349,2.441.423,2.637,1.894,2.695a29.8,29.8,0,0,0,4.134-.113c2.4-.221,1.9-.335,2.161-2.919a126.3,126.3,0,0,0,.3-15.748,9.61,9.61,0,0,0,2.436.918l.063.015c.27,5.743.166,11.244.052,16.916a8.649,8.649,0,0,0,1.867,5.955c-.036,1.959-.033,3.581.035,4.248.118,1.179-.042,2.07.166,3.253Z" transform="translate(-23.21 -297.962)"/><path class="l" d="M44.181,317.7a11.358,11.358,0,0,0,1.406.437c.225.054,1.066.3,1.594.474,1,.334.792.909,1.126,2.3.593,2.463.341,5.7-.092,9.041-.466,3.579-1.193,15.127-.515,18.955l-4.545-.1c-.17-2.148-.891-6.172-.361-10.33A143.413,143.413,0,0,0,44.181,317.7Z" transform="translate(-20.648 -297.844)"/><path class="p" d="M44.216,317.7a11.358,11.358,0,0,0,1.406.437l.063.015c.27,5.743.166,11.244.052,16.916a8.649,8.649,0,0,0,1.867,5.955c-.036,1.959-.033,3.581.035,4.248.12,1.179.238,3.154.446,4.337l-5.161.9a17.07,17.07,0,0,1-.4-3.01,53.07,53.07,0,0,1,.308-9.028A143.411,143.411,0,0,0,44.216,317.7Z" transform="translate(-20.668 -297.851)"/><path class="s" d="M35.661,314.858a17.919,17.919,0,0,0,4.916,5.2,5.518,5.518,0,0,0-1.909,2.7,15.86,15.86,0,0,1-3.281-7.046Z" transform="translate(-22.042 -298.145)"/><path class="s" d="M41.576,315.786a9.271,9.271,0,0,1-1.99,4.051,13.789,13.789,0,0,1,1.64,2.685,10.955,10.955,0,0,0,1.089-6.013Z" transform="translate(-21.182 -298.174)"/><path class="m" d="M28.117,322.964l-3.61,12.406c-.633,3.178,2.422,7,5.329.66L32.9,329.48C32.676,328.356,30.226,315.713,28.117,322.964Z" transform="translate(-24.179 -297.151)"/><path class="i" d="M29.577,318.382c-.771-.027-1.671,3.045-1.98,4.219l-2.442,9.283,5.133,3.757,3-5.405C32.832,327.948,32.219,318.437,29.577,318.382Z" transform="translate(-24.009 -297.647)"/><path class="i" d="M51.885,346.509l-.113,3.91-.014-.007a20.539,20.539,0,0,1,.246,4.65c0,.61.049.97-.574,1.026a7.708,7.708,0,0,0-1.182.168c-.429.107-1.416-.192-2.18.149l-.356-1.885c.731-.155.538-.081.759.718l1.466-.3a3.433,3.433,0,0,0-.522-1.35l-.658-.163-.489-1.007a2.9,2.9,0,0,1-.037-1.092,2.134,2.134,0,0,1,.662-.973l.042-.143h-.009l-.633-3.435Z" transform="translate(-19.744 -291.584)"/><rect class="t" width="14.617" height="17.554" rx="0.454" transform="translate(21.947 64.661)"/><path class="u" d="M43.065,354.5h14.3a.587.587,0,0,1,.594.574v7.364a.588.588,0,0,1-.594.574h-14.3a.587.587,0,0,1-.593-.574v-7.364A.585.585,0,0,1,43.065,354.5Z" transform="translate(-20.961 -289.856)"/><path class="v" d="M.369,0H1.73A.369.369,0,0,1,2.1.369v3.11a.368.368,0,0,1-.368.368H.369A.369.369,0,0,1,0,3.478V.369A.369.369,0,0,1,.369,0Z" transform="translate(28.761 61.577)"/><path class="i" d="M50.063,350.115,48.627,352.6c-.2.3-.548.832-.94.887-.351.049-.667-.249-.521-.726a15.1,15.1,0,0,1,.757-1.488,3.134,3.134,0,0,1,.441-1.109,2.325,2.325,0,0,1,1.088-.685Z" transform="translate(-19.691 -290.901)"/><g transform="translate(0 29.647)"><path class="w" d="M44.882,326.07l.4,1.073.4,1.073-.728.887-.727.887-.044-.007-.494,7.132h.012l.548.9.548.9-.5.923-.5.922-.191-.075.124-1.267-.271-.443-.271-.444-.519.013-.519.013-.248.456-.248.456.14,1.222-.11.1-.535-.875-.548-.9.5-.922.469-.862h-.011l.526-7.591-.119-.021-.4-1.073-.4-1.073.727-.887.711-.865.1.124-.336,1.3.2.531.2.531.559.091.56.093.36-.438.36-.438.057-1.39Z" transform="translate(-20.423 -325.718)"/><g transform="translate(0 3.991)"><path class="m" d="M26.568,337.391c5.683.5,8.465-1.31,14.294-1.544a8.914,8.914,0,0,1,.132-3.062s-8.621-.594-13.428-1.373C24.024,330.839,22.708,336.98,26.568,337.391Z" transform="translate(-24.225 -328.396)"/><path class="l" d="M36.625,333.126c.554-.134,2.484.044,2.754-.439.944-1.689.93-.988,2.446-2.24,1.294-1.067,1.893-1.859,2.38-1.313.935,1.045-.43,1.339-1.418,2.727a5.432,5.432,0,0,0,1.732-.434,2.425,2.425,0,0,0,.547-.631c.456.614.763,1.113.272,1.825a.812.812,0,0,1-.185,1.41c.189.653-.134.835-.728,1.175.144.648-.461.612-1.146.882L41,336.551l-.806-.213-3.388.6Z" transform="translate(-21.347 -328.957)"/></g></g></g></g></svg>