<svg xmlns="http://www.w3.org/2000/svg" width="20" height="20" viewBox="0 0 20 20"><defs><style>.a{fill:none;}.b{fill:#464646;}</style></defs><g transform="translate(-1104 -116)"><rect class="a" width="20" height="20" transform="translate(1104 116)"/><g transform="translate(473.242 -260.923)"><path class="b" d="M640.888,378.923l-.129,0a6.852,6.852,0,0,0-7,6.679c0,4.981,6.354,9.04,6.624,9.211a.71.71,0,0,0,.753,0c.27-.171,6.623-4.231,6.623-9.214A6.864,6.864,0,0,0,640.888,378.923Zm5.466,6.681c0,3.531-4.173,6.776-5.6,7.778-1.424-1-5.6-4.228-5.6-7.771a5.594,5.594,0,0,1,5.593-5.293c.093,0,.185,0,.278.007A5.563,5.563,0,0,1,646.355,385.6Z"/><path class="b" d="M640.8,381.971a3.248,3.248,0,1,0,3.27,3.247A3.263,3.263,0,0,0,640.8,381.971Zm1.865,3.251a1.865,1.865,0,1,1-1.865-1.852A1.863,1.863,0,0,1,642.668,385.222Z" transform="translate(-0.045 -0.056)"/></g></g></svg>