<svg xmlns="http://www.w3.org/2000/svg" xmlns:xlink="http://www.w3.org/1999/xlink" width="284" height="73" viewBox="0 0 284 73"><defs><style>.a{fill:#f2421b;}.b,.c{fill:#325a8f;}.b{font-size:42px;font-family:Montserrat-ExtraBold, Montserrat;font-weight:800;}.c{font-size:15px;font-family:Montserrat-Medium, Montserrat;font-weight:500;}.d{clip-path:url(#a);}.e{fill:#fff;}</style><clipPath id="a"><path class="a" d="M501.538,390.439c-3.571,6.379-17.3,22.989-23.41,30.3a3.972,3.972,0,0,1-3.006,1.381,3.759,3.759,0,0,1-2.945-1.381c-3.36-4.016-9.076-10.848-14.093-17.242-2.437-3.108-4.71-6.112-6.464-8.643a43.929,43.929,0,0,1-2.78-4.41c-7.065-13.458-1.426-31.223,13.1-38.292,14.467-7.02,32.116-1.431,39.416,12.481l.108.207C505.827,373.212,505.986,382.6,501.538,390.439Z" transform="translate(-445.806 -349.116)"/></clipPath></defs><g transform="translate(-94 -31.862)"><g transform="translate(173 33)"><text class="b" transform="translate(0 40.862)"><tspan x="0" y="0">Bookarage</tspan></text><text class="c" transform="translate(0 66.862)"><tspan x="0" y="0">WE CARE FOR YOUR CAR.</tspan></text></g><g transform="translate(94 31.862)"><path class="a" d="M501.538,390.439c-3.571,6.379-17.3,22.989-23.41,30.3a3.972,3.972,0,0,1-3.006,1.381,3.759,3.759,0,0,1-2.945-1.381c-3.36-4.016-9.076-10.848-14.093-17.242-2.437-3.108-4.71-6.112-6.464-8.643a43.929,43.929,0,0,1-2.78-4.41c-7.065-13.458-1.426-31.223,13.1-38.292,14.467-7.02,32.116-1.431,39.416,12.481l.108.207C505.827,373.212,505.986,382.6,501.538,390.439Z" transform="translate(-445.806 -349.116)"/><g class="d"><path class="e" d="M493.447,392.68l-9.358,9.077a9.383,9.383,0,0,1-5.7-2.659,8.823,8.823,0,0,1-2.74-5.53L485,384.49a16.742,16.742,0,0,0-15.293,4.2c-6.156,5.979-.457,12.837-2.052,14.386-3.642,3.537-7.418,6.852-10.517,9.472,1.755,2.531,4.027,5.535,6.464,8.643,2.755-3.113,6.505-7.212,10.671-11.253,1.6-1.549,8.9,3.542,14.837-2.21A16.128,16.128,0,0,0,493.447,392.68Z" transform="translate(-451.325 -366.817)"/></g></g></g></svg>