<svg xmlns="http://www.w3.org/2000/svg" width="200" height="193" viewBox="0 0 200 193"><defs><style>.a{fill:#ebebeb;}.b{fill:#e0e0e0;}.c{fill:#fff;}.d{fill:#263238;}.e{fill:#242424;}.f{fill:#f2421b;}.g{opacity:0.3;}</style></defs><g transform="translate(-31.9 -44.6)"><g transform="translate(41.424 44.6)"><path class="a" d="M.018.012,17.567.03l.027,26.092L.044,26.1Z" transform="translate(148.052 106.242) rotate(-68.53)"/><path class="b" d="M413.953,251.195a1.376,1.376,0,0,1-.312.128l-.917.329-3.356,1.143-11.142,3.745-.092.032-.05-.087-.115-.2-5.919-10.32-1.765-3.128-.458-.86a1.436,1.436,0,0,1-.147-.306,1.723,1.723,0,0,1,.188.283l.513.837,1.834,3.1,5.961,10.284.119.2-.142-.05,11.169-3.681,3.384-1.084.917-.284A2.228,2.228,0,0,1,413.953,251.195Z" transform="translate(-235.16 -151.558)"/><path class="b" d="M375.59,269.547c-.027-.055,2.682-1.578,6.052-3.4s6.135-3.251,6.167-3.2-2.678,1.578-6.052,3.4S375.622,269.606,375.59,269.547Z" transform="translate(-227.53 -163.106)"/><path class="b" d="M420,269.45c.064,0,.995,2.908,2.077,6.543s1.907,6.589,1.834,6.607-.995-2.908-2.077-6.543S419.947,269.468,420,269.45Z" transform="translate(-251.576 -166.635)"/><path class="a" d="M.014.021,26.1.052,26.122,17.6.035,17.573Z" transform="translate(50.846 170.212) rotate(-26.53)"/><path class="b" d="M187.337,391.79a2.436,2.436,0,0,1-.115.315l-.367.892c-.335.8-.807,1.907-1.376,3.265l-4.668,10.768-.041.087h-.1l-.229-.05-11.646-2.52-3.526-.791-.954-.229a2.529,2.529,0,0,1-.33-.091,1.452,1.452,0,0,1,.339.046l.963.183,3.54.718,11.669,2.433.229.05-.133.069c1.834-4.188,3.517-7.975,4.732-10.736.61-1.349,1.1-2.451,1.458-3.237.17-.361.3-.654.4-.873a1.541,1.541,0,0,1,.147-.3Z" transform="translate(-112.95 -233.034)"/><path class="b" d="M181.105,435.572c-.064,0,.614-3.041,1.513-6.758s1.687-6.722,1.747-6.7-.614,3.041-1.513,6.758S181.165,435.585,181.105,435.572Z" transform="translate(-122.216 -249.49)"/><path class="b" d="M204.94,413.228c.028-.059,2.834,1.212,6.263,2.839s6.194,3,6.144,3.055-2.829-1.212-6.263-2.84S204.912,413.283,204.94,413.228Z" transform="translate(-135.124 -244.668)"/><path class="a" d="M88.526,191.269c8.877-5.908,11.041-17.083,10.853-27.161-.032-1.683.183-3.452-.605-4.943s-2.673-2.524-4.214-1.829c-1.279.572-1.834,2.017-2.581,3.2a9.931,9.931,0,0,1-4.067,3.708,3.859,3.859,0,0,1-3.512.261c-1.463-.823-1.6-2.83-1.568-4.5l.206-9.351a14.747,14.747,0,0,0-.459-4.975,5.251,5.251,0,0,0-3.255-3.553,3.213,3.213,0,0,0-3.994,2.049,19.4,19.4,0,0,0-.078,2.081,1.775,1.775,0,0,1-1.073,1.642,2.028,2.028,0,0,1-1.834-.8,22.188,22.188,0,0,1-3.961-6.086,31.76,31.76,0,0,0-3.668-6.278,9.178,9.178,0,0,0-6.176-3.53,5.5,5.5,0,0,0-5.7,3.612c-.656,2.346.711,4.76,2.2,6.69a37.551,37.551,0,0,0,7.795,7.526,3.072,3.072,0,0,1,1.3,1.418c.353,1.12-.738,2.213-1.862,2.565a20.119,20.119,0,0,1-3.971.38,3.871,3.871,0,0,0-3.3,1.911c-.72,1.7.706,3.512,2.114,4.71a32.761,32.761,0,0,0,9.5,5.6,10.835,10.835,0,0,1,3.549,1.76,3.062,3.062,0,0,1,.949,3.562,3.234,3.234,0,0,1-3.5,1.267,22.656,22.656,0,0,1-3.7-1.459c-2.32-.915-5.342-.791-6.878,1.175a5.225,5.225,0,0,0-.642,4.673,12.166,12.166,0,0,0,2.508,4.17,32.684,32.684,0,0,0,13.8,9.859c5.387,1.93,10.4,2.506,15.814.645" transform="translate(-52.672 -91.595)"/><path class="b" d="M89.071,186.54a149.038,149.038,0,0,0-5.8-16.219q-.88-2.122-1.738-4.179c-.578-1.372-1.146-2.744-1.784-4.019a74.934,74.934,0,0,0-4.127-7.229c-1.417-2.236-2.852-4.307-4.2-6.237s-2.659-3.695-3.911-5.263a59.965,59.965,0,0,0-6.465-6.946c-.825-.759-1.486-1.331-1.935-1.71l-.518-.43-.179-.137s.05.055.165.16l.5.457c.459.393,1.087.969,1.9,1.738A63.312,63.312,0,0,1,67.4,143.5c1.243,1.568,2.531,3.347,3.879,5.272s2.751,4.01,4.177,6.246a75.034,75.034,0,0,1,4.085,7.211c.637,1.289,1.2,2.634,1.774,4.01s1.151,2.744,1.738,4.175a151.454,151.454,0,0,1,5.8,16.187" transform="translate(-55.785 -93.213)"/><path class="b" d="M104.808,173.454a4.235,4.235,0,0,0,.165-.713c.092-.457.206-1.134.335-1.966.261-1.66.55-3.969.857-6.511s.633-4.847.917-6.5c.147-.828.275-1.5.367-1.957a4.561,4.561,0,0,0,.119-.718,3.9,3.9,0,0,0-.216.7c-.124.457-.275,1.116-.458,1.943-.344,1.646-.7,3.951-1,6.5s-.573,4.806-.779,6.521c-.105.8-.193,1.459-.257,1.971A4.053,4.053,0,0,0,104.808,173.454Z" transform="translate(-80.903 -104.567)"/><path class="b" d="M57.3,185.746a1.315,1.315,0,0,0,.225.037l.647.064c.559.055,1.376.133,2.37.256,1.994.238,4.746.668,7.758,1.271s5.708,1.28,7.648,1.829c.972.265,1.751.5,2.293.658l.624.183a.953.953,0,0,0,.225.05.812.812,0,0,0-.206-.1l-.61-.229c-.532-.192-1.3-.457-2.293-.741-1.93-.59-4.631-1.285-7.648-1.9a78.013,78.013,0,0,0-7.795-1.2c-1-.105-1.834-.155-2.384-.178H57.5A.717.717,0,0,0,57.3,185.746Z" transform="translate(-55.178 -121.204)"/><path class="b" d="M124.75,215.408a1.17,1.17,0,0,0,.147-.261c.1-.2.229-.457.385-.777.326-.672.779-1.66,1.32-2.885,1.087-2.446,2.485-5.876,3.98-9.68s2.866-7.238,3.906-9.7l1.252-2.913.335-.8a1.539,1.539,0,0,0,.105-.283,1.278,1.278,0,0,0-.151.261l-.381.777c-.33.672-.779,1.66-1.32,2.885-1.091,2.446-2.485,5.876-3.98,9.68s-2.866,7.238-3.911,9.7l-1.247,2.913-.339.8a1.287,1.287,0,0,0-.1.283Z" transform="translate(-91.702 -122.489)"/><path class="b" d="M61.75,226.73a1.84,1.84,0,0,0,.289.114l.839.283,3.113,1.029c2.613.873,6.208,2.122,10.179,3.512s7.575,2.611,10.206,3.443c1.311.412,2.38.741,3.122.951l.853.238a1.282,1.282,0,0,0,.3.069,1.41,1.41,0,0,0-.289-.114l-.839-.288-3.095-1.029c-2.613-.869-6.208-2.117-10.179-3.507s-7.575-2.611-10.2-3.443c-1.316-.416-2.384-.741-3.127-.951l-.853-.242A1.379,1.379,0,0,0,61.75,226.73Z" transform="translate(-57.588 -143.449)"/><rect class="b" width="32.325" height="19.182" rx="7.04" transform="translate(7.193)"/><path class="b" d="M111.24,85.22l7.643,6.767.628-6.649" transform="translate(-84.386 -66.646)"/><path class="c" d="M89.989,63.949A1.884,1.884,0,1,1,88.1,62.07,1.882,1.882,0,0,1,89.989,63.949Z" transform="translate(-70.838 -54.082)"/><path class="c" d="M104.109,63.949a1.877,1.877,0,1,1-.549-1.329A1.882,1.882,0,0,1,104.109,63.949Z" transform="translate(-78.484 -54.082)"/><path class="c" d="M118.239,63.949a1.884,1.884,0,1,1-1.88-1.879A1.882,1.882,0,0,1,118.239,63.949Z" transform="translate(-86.135 -54.082)"/><path class="a" d="M.018.012,17.567.03l.027,26.092L.044,26.1Z" transform="translate(123.461 36.917) rotate(-68.53)"/><path class="b" d="M360.312,99.595a1.5,1.5,0,0,1-.312.133l-.917.325-3.356,1.157-11.146,3.745-.092.032-.05-.087-.115-.2L338.4,94.377c-.734-1.308-1.339-2.373-1.77-3.141l-.458-.86a1.681,1.681,0,0,1-.151-.306,1.78,1.78,0,0,1,.193.284l.509.837c.459.759,1.068,1.829,1.834,3.1l5.961,10.284.115.206-.137-.055,11.165-3.658,3.388-1.088.917-.284A2.415,2.415,0,0,1,360.312,99.595Z" transform="translate(-206.104 -69.278)"/><path class="b" d="M322,117.947c-.032-.055,2.678-1.578,6.048-3.4s6.135-3.251,6.167-3.2-2.678,1.578-6.052,3.4S322,118.006,322,117.947Z" transform="translate(-198.511 -80.826)"/><path class="b" d="M366.386,117.85c.06,0,.99,2.913,2.072,6.543s1.912,6.594,1.834,6.612-.99-2.913-2.072-6.543S366.322,117.868,366.386,117.85Z" transform="translate(-222.545 -84.356)"/></g><g transform="translate(31.9 237.362)"><path class="d" d="M231.9,466.279c0,.064-44.773.119-100,.119s-100-.055-100-.119,44.764-.119,100-.119S231.9,466.21,231.9,466.279Z" transform="translate(-31.9 -466.16)"/></g><g transform="translate(61.868 105.658)"><ellipse class="e" cx="5.915" cy="5.899" rx="5.915" ry="5.899" transform="translate(67.74 25.145)"/><ellipse class="e" cx="5.915" cy="5.899" rx="5.915" ry="5.899" transform="translate(88.097 25.145)"/><path class="e" d="M274.312,178.651a1.256,1.256,0,0,1,.348-.023,4.818,4.818,0,0,1,1.022.114,5.588,5.588,0,0,1,1.591.594,5.873,5.873,0,0,1,1.779,1.532,5.79,5.79,0,0,1,1.169,2.744,6.386,6.386,0,0,1,.073.846v2.689c.023,2.538.041,5.455.069,8.725.032,6.543.069,14.5.115,23.659q0,3.434.028,7.088v6.557a7.149,7.149,0,0,1-.092,1.033,6.253,6.253,0,0,1-5.961,5.213l-8.354.027.5-.457c-.541,5.858-1.11,12.044-1.706,18.464l-.092,1-.779-.64-22.425-18.428.367.128-45.951.023h-11.88a6.328,6.328,0,0,1-5.016-2.661,6.435,6.435,0,0,1-.986-2.108,8.332,8.332,0,0,1-.206-2.241V220.042c0-10.974.023-21.537.032-31.61v-3.75a6.6,6.6,0,0,1,.252-1.989,6.467,6.467,0,0,1,.857-1.829,6.335,6.335,0,0,1,3.132-2.382,6.109,6.109,0,0,1,1.939-.352h1.811l13.92.027,24.984.073,36.181.187,9.835.114,2.558.059a4.891,4.891,0,0,1,.871.059,4.384,4.384,0,0,1-.871.059l-2.558.059-9.835.114-36.181.187-24.984.073-13.92.027h-1.788a5.01,5.01,0,0,0-1.614.3,5.267,5.267,0,0,0-2.591,1.985,5.362,5.362,0,0,0-.917,3.2c0,1.239,0,2.492,0,3.75,0,10.06.023,20.645.037,31.61V232.5a6.982,6.982,0,0,0,.174,1.948,5.175,5.175,0,0,0,3.929,3.763,5.544,5.544,0,0,0,.954.114h11.935l45.951.023h.206l.161.133,22.375,18.487-.876.361c.619-6.4,1.215-12.6,1.784-18.455l.041-.457h8.785a5.319,5.319,0,0,0,5.089-4.413,6.246,6.246,0,0,0,.078-.882c0-.32,0-.64,0-.956v-5.6q0-3.658.027-7.088c.046-9.145.083-17.115.115-23.659.028-3.269.046-6.187.069-8.725v-2.689a6.433,6.433,0,0,0-.05-.8,5.533,5.533,0,0,0-1.041-2.6,5.681,5.681,0,0,0-1.655-1.514,5.768,5.768,0,0,0-1.513-.645C274.784,178.67,274.312,178.7,274.312,178.651Z" transform="translate(-140.933 -178.13)"/><path class="f" d="M103.4,243.47h89.308a6.136,6.136,0,0,1,6.144,6.127v48.04a6.136,6.136,0,0,1-6.144,6.127H103.4a6.131,6.131,0,0,1-6.139-6.123V249.6A6.131,6.131,0,0,1,103.4,243.47Z" transform="translate(-97.26 -213.593)"/><path class="f" d="M232.04,371.11l24.021,21.272,1.972-20.892" transform="translate(-170.243 -282.868)"/><ellipse class="c" cx="5.915" cy="5.899" rx="5.915" ry="5.899" transform="translate(25.75 54.976)"/><ellipse class="c" cx="5.915" cy="5.899" rx="5.915" ry="5.899" transform="translate(46.107 54.976)"/><ellipse class="c" cx="5.915" cy="5.899" rx="5.915" ry="5.899" transform="translate(66.465 54.976)"/><g class="g" transform="translate(14.434 29.841)"><path d="M212.105,243.669l-9.546-.279H128.74c6.135,6.086,14.906,9.342,23.521,10.092s17.276-.558,25.8-2.03,17.084-3.118,25.736-3.054a14.509,14.509,0,0,0,5.415-.585C210.909,247.135,212.358,245.5,212.105,243.669Z" transform="translate(-128.74 -243.39)"/></g><ellipse class="e" cx="5.915" cy="5.899" rx="5.915" ry="5.899" transform="translate(108.455 25.145)"/></g></g></svg>