<svg xmlns="http://www.w3.org/2000/svg" width="250" height="185" viewBox="0 0 250 185"><defs><style>.a{fill:#e6e6e6;}.b{fill:#f0f0f0;}.c{fill:#fafafa;}.d,.j,.q{fill:#fff;}.e,.h{fill:#e0e0e0;}.f{fill:#f5f5f5;}.g{fill:#ebebeb;}.h,.j{opacity:0.7;}.i,.n,.o{fill:#011c40;}.k{opacity:0.2;}.l{opacity:0.4;}.m{fill:#f3f3f3;}.n{opacity:0.33;}.o{opacity:0.27;}.p{fill:#f2421b;}.q{opacity:0.8;}.r{opacity:0.54;}</style></defs><g transform="translate(0 -55)"><g transform="translate(0 55)"><rect class="a" width="250" height="0.125" transform="translate(0 162.479)"/><rect class="a" width="5.305" height="0.125" transform="translate(206.75 169.476)"/><rect class="a" width="21.575" height="0.125" transform="translate(181.505 169.535)"/><rect class="a" width="36.41" height="0.125" transform="translate(118.425 168.349)"/><rect class="a" width="11.555" height="0.125" transform="translate(85.925 170.513)"/><rect class="a" width="15.91" height="0.125" transform="translate(43.065 168.408)"/><rect class="a" width="14.87" height="0.125" transform="translate(61.75 168.408)"/><rect class="a" width="15.185" height="0.125" transform="translate(32.645 166.229)"/><path class="a" d="M137.6,196.031H41.06a2.851,2.851,0,0,1-2.85-2.848V57.823A2.851,2.851,0,0,1,41.06,55H137.6a2.851,2.851,0,0,1,2.855,2.848V193.184A2.851,2.851,0,0,1,137.6,196.031ZM41.06,55.1a2.726,2.726,0,0,0-2.725,2.723V193.184a2.726,2.726,0,0,0,2.725,2.723H137.6a2.731,2.731,0,0,0,2.73-2.723V57.823A2.731,2.731,0,0,0,137.6,55.1Z" transform="translate(-19.105 -55)"/><path class="a" d="M353.9,196.031h-96.55a2.856,2.856,0,0,1-2.855-2.848V57.823A2.856,2.856,0,0,1,257.355,55H353.9a2.851,2.851,0,0,1,2.845,2.823V193.184A2.851,2.851,0,0,1,353.9,196.031ZM257.355,55.1a2.731,2.731,0,0,0-2.73,2.723V193.184a2.731,2.731,0,0,0,2.73,2.723H353.9a2.731,2.731,0,0,0,2.73-2.723V57.823A2.731,2.731,0,0,0,353.9,55.1Z" transform="translate(-127.25 -55)"/><rect class="a" width="77.875" height="67.588" transform="translate(27.045 10.707)"/><rect class="b" width="79.575" height="67.588" transform="translate(28.535 10.707)"/><rect class="a" width="77.875" height="2.713" transform="translate(27.045 77.927)"/><rect class="b" width="79.575" height="2.713" transform="translate(33.845 77.927)"/><rect class="c" width="58.692" height="70.65" transform="translate(103.65 15.155) rotate(90)"/><path class="d" d="M88.88,144.081,102.51,85.39h18.705l-13.63,58.691Z" transform="translate(-44.44 -70.235)"/><path class="a" d="M70.82,136.859a.32.32,0,0,1-.32-.319V90.869a.32.32,0,0,1,.64,0V136.54A.32.32,0,0,1,70.82,136.859Z" transform="translate(-35.25 -72.821)"/><path class="d" d="M133.96,144.081,147.59,85.39h6.47l-13.63,58.691Z" transform="translate(-66.98 -70.235)"/><rect class="a" width="58.692" height="0.565" transform="translate(103.645 15.15) rotate(90)"/><path class="e" d="M140.045,85H62.17l-.41-1.351h77.875Z" transform="translate(-30.88 -69.362)"/><path class="e" d="M140.045,89.471H62.17l-.41-1.351h77.875Z" transform="translate(-30.88 -71.603)"/><path class="e" d="M140.045,93.941H62.17l-.41-1.351h77.875Z" transform="translate(-30.88 -73.844)"/><path class="e" d="M140.045,98.411H62.17l-.41-1.351h77.875Z" transform="translate(-30.88 -76.085)"/><path class="e" d="M140.045,102.881H62.17l-.41-1.351h77.875Z" transform="translate(-30.88 -78.326)"/><path class="e" d="M140.045,107.351H62.17L61.76,106h77.875Z" transform="translate(-30.88 -80.567)"/><rect class="a" width="32.745" height="58.223" transform="translate(168.85 15.105)"/><path class="e" d="M372.115,86.447a2.494,2.494,0,1,1,2.525-2.493A2.522,2.522,0,0,1,372.115,86.447Zm0-4.538a2,2,0,1,0,1.43.575A2,2,0,0,0,372.115,81.909Z" transform="translate(-184.82 -68.265)"/><rect class="b" width="33.82" height="58.223" transform="translate(171.315 15.105)"/><rect class="c" width="52.572" height="28.155" transform="translate(202.305 17.928) rotate(90)"/><rect class="e" width="52.572" height="0.35" transform="translate(202.305 17.928) rotate(90)"/><path class="a" d="M354.76,243.56s.35,5.87,13.725,5.87,13.72-5.87,13.72-5.87Z" transform="translate(-177.38 -149.977)"/><rect class="a" width="13.66" height="56.113" transform="translate(136.67 103.718)"/><rect class="a" width="71.37" height="2.648" transform="translate(139.295 159.831)"/><rect class="f" width="62.955" height="56.113" transform="translate(213.285 159.831) rotate(180)"/><rect class="a" width="52.215" height="13.704" transform="translate(207.915 138.787) rotate(180)"/><rect class="a" width="52.215" height="13.704" transform="translate(207.915 154.834) rotate(180)"/><path class="f" d="M362.675,308.21H347.06a.939.939,0,0,1-.94-.938h0a.944.944,0,0,1,.94-.943h15.615a.944.944,0,0,1,.94.943h0A.939.939,0,0,1,362.675,308.21Z" transform="translate(-173.06 -181.58)"/><rect class="a" width="52.215" height="13.704" transform="translate(207.915 122.661) rotate(180)"/><path class="f" d="M362.675,275.72H347.06a.944.944,0,0,1-.94-.943h0a.939.939,0,0,1,.94-.938h15.615a.939.939,0,0,1,.94.938h0A.944.944,0,0,1,362.675,275.72Z" transform="translate(-173.06 -165.217)"/><path class="f" d="M362.675,340.71H347.06a.944.944,0,0,1-.94-.943h0a.939.939,0,0,1,.94-.938h15.615a.939.939,0,0,1,.94.938h0A.944.944,0,0,1,362.675,340.71Z" transform="translate(-173.06 -198.079)"/><rect class="g" width="64.775" height="4.608" transform="translate(150.33 99.428)"/><rect class="e" width="15.57" height="4.608" transform="translate(150.33 104.041) rotate(180)"/><rect class="a" width="13.575" height="16.228" transform="translate(155.505 99.476) rotate(180)"/><rect class="c" width="24.09" height="16.228" transform="translate(155.505 83.253)"/><path class="d" d="M335.105,237.89c0,1.162-2.5,2.1-5.555,2.1s-5.55-.952-5.55-2.1,2.5-2.1,5.56-2.1S335.105,236.718,335.105,237.89Z" transform="translate(-162 -146.059)"/><rect class="h" width="37.805" height="1.112" transform="translate(179.735 86.468) rotate(180)"/><rect class="a" width="14.325" height="3.222" transform="translate(155.5 85.838) rotate(180)"/><rect class="c" width="24.835" height="3.222" transform="translate(155.505 82.611)"/><path class="a" d="M122.09,239.06H70.34l3.23,71.483h51.75Z" transform="translate(-35.17 -148.064)"/><path class="c" d="M123.59,239.06H71.84l3.23,71.483h51.75Z" transform="translate(-35.92 -148.064)"/><rect class="e" width="13.575" height="16.228" transform="translate(60.905 162.479) rotate(180)"/><rect class="b" width="64.985" height="16.228" transform="translate(60.91 146.251)"/><rect class="h" width="78.705" height="1.112" transform="translate(126.035 149.443) rotate(180)"/><rect class="e" width="14.325" height="3.222" transform="translate(60.91 148.8) rotate(180)"/><rect class="b" width="65.735" height="3.222" transform="translate(60.91 145.578)"/><rect class="a" width="17.665" height="29.318" transform="translate(76.25 145.578) rotate(180)"/><rect class="g" width="44.14" height="29.318" transform="translate(76.245 116.26)"/><rect class="h" width="61.99" height="1.446" transform="translate(120.57 120.644) rotate(180)"/><rect class="a" width="18.64" height="6.663" transform="translate(76.25 119.817) rotate(180)"/><rect class="g" width="45.115" height="6.663" transform="translate(76.245 113.155)"/><ellipse class="b" cx="12.485" cy="12.452" rx="12.485" ry="12.452" transform="translate(26.42 137.574)"/><path class="h" d="M63.388,340.338c.74-.768,1.04-1.686.66-2.045s-1.285-.035-2.025.733-1.04,1.686-.665,2.05S62.643,341.111,63.388,340.338Z" transform="translate(-30.598 -197.737)"/><path class="h" d="M73.907,335.924c1.05-.2,1.825-.778,1.725-1.292s-1.03-.768-2.085-.564-1.82.778-1.725,1.292S72.832,336.129,73.907,335.924Z" transform="translate(-35.907 -195.657)"/><path class="h" d="M71.553,344.151c1-.354,1.655-1.142,1.435-1.76s-1.215-.833-2.225-.5-1.65,1.142-1.435,1.76S70.543,344.505,71.553,344.151Z" transform="translate(-34.643 -199.536)"/></g><g transform="translate(28.055 228.71)"><ellipse class="f" cx="96.945" cy="5.645" rx="96.945" ry="5.645"/></g><g transform="translate(84.515 82.093)"><rect class="i" width="72.16" height="151.997" rx="14.62" transform="translate(4.255 0.259)"/><rect class="j" width="72.16" height="151.997" rx="14.62" transform="translate(4.255 0.259)"/><rect class="i" width="72.16" height="151.997" rx="14.62" transform="translate(6.185)"/><rect class="k" width="72.16" height="151.997" rx="14.62" transform="translate(6.185)"/><path class="i" d="M252.68,399.022a3.256,3.256,0,1,1-3.25-3.242A3.246,3.246,0,0,1,252.68,399.022Z" transform="translate(-207.6 -253.722)"/><path class="l" d="M252.68,399.022a3.256,3.256,0,1,1-3.25-3.242A3.246,3.246,0,0,1,252.68,399.022Z" transform="translate(-207.6 -253.722)"/><path class="i" d="M252.76,261.448h-71.8V130.83h72.3Z" transform="translate(-174.995 -120.901)"/><path class="m" d="M253.355,261.313l-72.475.085V130.775l72.41-.075Z" transform="translate(-174.955 -120.836)"/><rect class="n" width="0.5" height="6.593" transform="translate(0 12.118)"/><rect class="n" width="0.5" height="2.065" transform="translate(0 20.541)"/><rect class="d" width="59.745" height="39.567" rx="9.94" transform="translate(7.96 15.335)"/><path class="o" d="M6.612.006A6.6,6.6,0,1,1,.006,6.6,6.621,6.621,0,0,1,6.612.006Z" transform="matrix(0.923, -0.386, 0.386, 0.923, 8.458, 20.934)"/><path class="d" d="M203.259,154.523a5.33,5.33,0,0,1-.66,2.593,5.442,5.442,0,1,1,.66-2.593Z" transform="translate(-180.684 -130.047)"/><path class="o" d="M203.26,163.731a5.467,5.467,0,0,1-9.6,0A8.664,8.664,0,0,1,203.26,163.731Z" transform="translate(-181.345 -136.667)"/><ellipse class="o" cx="2.43" cy="2.424" rx="2.43" ry="2.424" transform="translate(14.685 20.182)"/><rect class="d" width="59.745" height="13.849" rx="6.924" transform="translate(7.96 58.557)"/><path class="p" d="M283.724,257.451l7.065,19.419a2.043,2.043,0,0,1-1.225,2.608L252.5,292.889a2.051,2.051,0,0,1-2.615-1.217l-7.065-19.424a2.033,2.033,0,0,1,1.225-2.6l37.065-13.415a2.051,2.051,0,0,1,2.615,1.222Z" transform="translate(-205.864 -183.704)"/><path class="i" d="M282.83,256.267l-10.595,17.39a8.306,8.306,0,0,1-9.775,3.536l-19.31-6.573a2.038,2.038,0,0,1,1.12-1l37.065-13.415A2.055,2.055,0,0,1,282.83,256.267Z" transform="translate(-206.09 -183.696)"/><path class="d" d="M282.83,256.267l-10.595,17.39a8.306,8.306,0,0,1-9.775,3.536l-19.31-6.573a2.038,2.038,0,0,1,1.12-1l37.065-13.415A2.055,2.055,0,0,1,282.83,256.267Z" transform="translate(-206.09 -183.696)"/><path class="p" d="M264.315,323.313l-.34,17.494a1.733,1.733,0,0,1-1.76,1.691l-33.395-.648a1.723,1.723,0,0,1-1.69-1.755l.335-17.494a1.725,1.725,0,0,1,1.76-1.691l33.395.643a1.733,1.733,0,0,1,1.7,1.76Z" transform="translate(-198.08 -216.189)"/><path class="i" d="M264.725,322.042l-13.68,10.532a7.054,7.054,0,0,1-8.81-.17L229,321.349a1.733,1.733,0,0,1,1.185-.439l33.4.643A1.732,1.732,0,0,1,264.725,322.042Z" transform="translate(-199.015 -216.189)"/><path class="d" d="M264.725,322.042l-13.68,10.532a7.054,7.054,0,0,1-8.81-.17L229,321.349a1.733,1.733,0,0,1,1.185-.439l33.4.643A1.732,1.732,0,0,1,264.725,322.042Z" transform="translate(-199.015 -216.189)"/><path class="i" d="M234.13,118.022a1.148,1.148,0,1,1,.335.814A1.149,1.149,0,0,1,234.13,118.022Z" transform="translate(-201.58 -113.908)"/><path class="i" d="M243.23,116.87h9.555a1.153,1.153,0,0,1,1.15,1.147h0a1.153,1.153,0,0,1-1.15,1.152H243.23a1.153,1.153,0,0,1-1.15-1.152h0A1.153,1.153,0,0,1,243.23,116.87Z" transform="translate(-205.555 -113.903)"/><path class="l" d="M234.13,118.022a1.148,1.148,0,1,1,.335.814A1.149,1.149,0,0,1,234.13,118.022Z" transform="translate(-201.58 -113.908)"/><path class="l" d="M243.23,116.87h9.555a1.153,1.153,0,0,1,1.15,1.147h0a1.153,1.153,0,0,1-1.15,1.152H243.23a1.153,1.153,0,0,1-1.15-1.152h0A1.153,1.153,0,0,1,243.23,116.87Z" transform="translate(-205.555 -113.903)"/><rect class="i" width="8.775" height="18.477" rx="4.01" transform="translate(71.675 26.077)"/><rect class="q" width="8.775" height="18.477" rx="4.01" transform="translate(71.675 26.077)"/><rect class="i" width="8.775" height="10.423" rx="3.01" transform="translate(71.675 49.885)"/><rect class="q" width="8.775" height="10.423" rx="3.01" transform="translate(71.675 49.885)"/></g><g transform="translate(137.9 77.162)"><path class="i" d="M318.9,99.44H281.8a5.992,5.992,0,0,0-6,5.984v11.47a5.992,5.992,0,0,0,6,5.984h3.1v5.885l5.9-5.885h28.1a5.992,5.992,0,0,0,6-5.984v-11.47A5.992,5.992,0,0,0,318.9,99.44Z" transform="translate(-275.8 -99.44)"/><path class="p" d="M318.9,99.44H281.8a5.992,5.992,0,0,0-6,5.984v11.47a5.992,5.992,0,0,0,6,5.984h3.1v5.885l5.9-5.885h28.1a5.992,5.992,0,0,0,6-5.984v-11.47A5.992,5.992,0,0,0,318.9,99.44Z" transform="translate(-275.8 -99.44)"/><g class="r" transform="translate(5.485 4.768)"><rect class="f" width="38.12" height="2.743" rx="1.371"/></g><g class="r" transform="translate(18.175 10.213)"><path class="f" d="M336.2,122.668H313.53a1.383,1.383,0,0,1-1.38-1.376h0a1.378,1.378,0,0,1,1.38-1.371H336.2a1.373,1.373,0,0,1,1.375,1.371h0A1.378,1.378,0,0,1,336.2,122.668Z" transform="translate(-312.15 -119.92)"/></g><g class="r" transform="translate(5.485 10.213)"><path class="f" d="M294.11,122.668h-5.965a1.378,1.378,0,0,1-1.375-1.376h0a1.373,1.373,0,0,1,1.375-1.371h5.965a1.373,1.373,0,0,1,1.375,1.371h0A1.378,1.378,0,0,1,294.11,122.668Z" transform="translate(-286.77 -119.92)"/></g><g class="r" transform="translate(5.485 15.659)"><path class="f" d="M314.68,133.588H288.145a1.373,1.373,0,0,1-1.375-1.371h0a1.378,1.378,0,0,1,1.375-1.376H314.68a1.378,1.378,0,0,1,1.375,1.376h0a1.373,1.373,0,0,1-1.375,1.371Z" transform="translate(-286.77 -130.84)"/></g></g></g></svg>