<svg xmlns="http://www.w3.org/2000/svg" width="32" height="32" viewBox="0 0 32 32"><defs><style>.a{fill:none;}.b{fill:#332a0c;}</style></defs><g transform="translate(-474 -519)"><rect class="a" width="32" height="32" transform="translate(474 519)"/><g transform="translate(476.667 521.667)"><g transform="translate(0 0)"><path class="b" d="M32.553,45.638h2.013a2.516,2.516,0,0,0,5.031,0H41.61a4.528,4.528,0,1,1-9.057,0Zm17.61-2.517v.5a2.01,2.01,0,0,1-2.013,2.012H26.013A2.012,2.012,0,0,1,24,43.627v-.5a3.524,3.524,0,0,1,3.019-3.485V33.563a10.063,10.063,0,0,1,20.126,0v6.074A3.521,3.521,0,0,1,50.164,43.122Zm-2.013,0a1.509,1.509,0,0,0-1.514-1.509,1.508,1.508,0,0,1-1.5-1.506V33.563a8.05,8.05,0,0,0-16.1,0v6.545a1.508,1.508,0,0,1-1.5,1.506,1.512,1.512,0,0,0-1.514,1.509v.5H48.15S48.151,43.122,48.151,43.122Z" transform="translate(-24 -23.5)"/></g></g></g></svg>