<svg xmlns="http://www.w3.org/2000/svg" xmlns:xlink="http://www.w3.org/1999/xlink" width="700" height="610" viewBox="0 0 700 610"><defs><style>.a{fill:#fff;}.b{clip-path:url(#c);}.c{opacity:0.5;}.d{fill:#f3f3f3;}.e{opacity:0.2;}.f{filter:url(#a);}</style><filter id="a" x="-45" y="-35" width="790" height="700" filterUnits="userSpaceOnUse"><feOffset dy="10" input="SourceAlpha"/><feGaussianBlur stdDeviation="15" result="b"/><feFlood flood-color="#656565" flood-opacity="0.102"/><feComposite operator="in" in2="b"/><feComposite in="SourceGraphic"/></filter><clipPath id="c"><g class="f" transform="matrix(1, 0, 0, 1, 0, 0)"><rect class="a" width="700" height="610" rx="15" transform="translate(96 87)"/></g></clipPath></defs><g class="b" transform="translate(-96 -87)"><g class="c" transform="translate(93.474 -337.32)"><g transform="translate(179.467 87.974)"><path class="d" d="M201.974,140.625H191.9l-1.6-3.227a4.077,4.077,0,0,0-3.664-2.286H181.5v-5.694h1.364a1.377,1.377,0,0,0,0-2.755H169.222a1.377,1.377,0,0,0,0,2.755h1.364v5.694h-1.364a4.119,4.119,0,0,0-4.092,4.136v1.616a4.131,4.131,0,0,0-2.733,3.893v24.8a4.119,4.119,0,0,0,4.1,4.132h35.481a4.118,4.118,0,0,0,4.092-4.132v-24.8A4.118,4.118,0,0,0,201.974,140.625Zm-28.66-11.207h5.461v5.694h-5.461Zm-5.457,9.83a1.371,1.371,0,0,1,1.364-1.377h17.417a1.357,1.357,0,0,1,1.221.761l.99,1.994H167.858Zm-2.728,9.645h5.457v16.531H165.13Zm38.209,20.668a1.374,1.374,0,0,1-1.364,1.377H166.494a1.374,1.374,0,0,1-1.364-1.377v-1.382h38.209Zm-30.024-4.136V148.893h5.461v16.531Zm8.189,0V148.893h5.461v16.531Zm8.189,0V148.893h5.457v16.531Zm13.646,0h-5.461V148.893h5.461Zm0-19.29H165.13v-1.377a1.374,1.374,0,0,1,1.364-1.377h35.481a1.374,1.374,0,0,1,1.364,1.377Z" transform="translate(-162.397 -126.664)"/></g><g transform="translate(68.613 195.904)"><g transform="translate(0)"><ellipse class="d" cx="1.978" cy="1.978" rx="1.978" ry="1.978" transform="translate(15.874 31.326)"/><ellipse class="d" cx="1.978" cy="1.978" rx="1.978" ry="1.978" transform="translate(27.679 31.326)"/><ellipse class="d" cx="1.978" cy="1.978" rx="1.978" ry="1.978" transform="translate(39.484 31.326)"/><path class="d" d="M246.616,162.917h-3.938a1.962,1.962,0,0,0-1.39.568l-3.359,3.344h-5.224v-1.96a1.961,1.961,0,0,0-1.969-1.952H220.9V159h1.969a1.961,1.961,0,0,0,1.961-1.96v-5.881H226.8a1.96,1.96,0,1,0,0-3.92H195.312a1.96,1.96,0,1,0,0,3.92h1.969v5.881A1.968,1.968,0,0,0,199.25,159h1.969v3.92h-9.845a1.961,1.961,0,0,0-1.969,1.952v1.96h-4.066v-1.96a1.969,1.969,0,0,0-3.938,0v23.514a1.969,1.969,0,0,0,3.938,0v-1.96h5.224l7.3,7.265a1.969,1.969,0,0,0,1.39.576h31.486a1.968,1.968,0,0,0,1.969-1.96v-1.96h5.224l3.359,3.344a1.969,1.969,0,0,0,1.39.576h3.938a1.968,1.968,0,0,0,1.969-1.96V164.869A1.961,1.961,0,0,0,246.616,162.917Zm-57.211,19.594h-4.066V170.749h4.066Zm11.813-31.355H220.9v3.92H201.219ZM216.962,159v3.92H205.148V159Zm11.805,29.387v1.96H200.061l-6.719-6.689V174.67h35.424Zm0-17.634H193.343v-3.92h35.424Zm8,15.674h-4.066V170.749h4.066Zm7.876,3.921H243.49l-2.781-2.768v-17.97l2.781-2.776h1.157Z" transform="translate(-181.401 -147.235)"/></g></g><g transform="translate(266.806 -11.423)"><path class="d" d="M219.685,148.084a9.357,9.357,0,0,0-1.878,18.521v9.65a1.873,1.873,0,0,1-1.863,1.878H199V166.605a9.352,9.352,0,1,0-3.741,0v11.528H176.428V166.605a9.352,9.352,0,1,0-3.741,0v26.8a9.352,9.352,0,1,0,3.741,0V181.874h18.827V193.4a9.352,9.352,0,1,0,3.741,0V181.874h16.949a5.62,5.62,0,0,0,5.6-5.619v-9.65a9.355,9.355,0,0,0-1.863-18.521Zm-39.516,54.48a5.611,5.611,0,1,1-5.6-5.619A5.617,5.617,0,0,1,180.169,202.564Zm-5.6-39.516a5.611,5.611,0,1,1,5.6-5.6A5.62,5.62,0,0,1,174.565,163.048Zm28.172,39.516a5.611,5.611,0,1,1-5.619-5.619A5.62,5.62,0,0,1,202.737,202.564Zm-5.619-39.516a5.611,5.611,0,1,1,5.619-5.6A5.617,5.617,0,0,1,197.118,163.048Zm22.568,0a5.611,5.611,0,1,1,5.6-5.6A5.621,5.621,0,0,1,219.685,163.048Z" transform="translate(-165.205 -148.084)"/></g><g transform="translate(454.249 190.865)"><g transform="translate(0 0)"><path class="d" d="M247.634,68.572a27.713,27.713,0,1,0,19.6,33.94A27.771,27.771,0,0,0,247.634,68.572Zm-13.5,50.4a24.465,24.465,0,1,1,29.965-17.3A24.491,24.491,0,0,1,234.13,118.972Z" transform="translate(-212.749 -67.627)"/><path class="d" d="M241.315,70.582A20.912,20.912,0,1,0,256.1,96.193,20.938,20.938,0,0,0,241.315,70.582Zm10.933,16.337a4.89,4.89,0,0,0,.782-.563,17.533,17.533,0,0,1,.569,4.274,4.825,4.825,0,0,0-3.229-.388,14.128,14.128,0,0,0-.356-2.68A4.832,4.832,0,0,0,252.248,86.919Zm-3.217-5.573a1.609,1.609,0,0,1,2.1.441c.061.1.12.2.178.307a1.609,1.609,0,1,1-2.277-.747ZM246.78,93.7a11.26,11.26,0,1,1-7.961-13.791A11.275,11.275,0,0,1,246.78,93.7Zm-1.895-18.164a17.558,17.558,0,0,1,3.416,2.63,4.541,4.541,0,0,0-.879.4,4.81,4.81,0,0,0-1.676,1.609,14.27,14.27,0,0,0-2.14-1.647,4.846,4.846,0,0,0,1.279-2.989Zm-4.4-1.842a1.608,1.608,0,1,1-1.971,1.136A1.609,1.609,0,0,1,240.483,73.691Zm-4.732-.6a4.82,4.82,0,0,0-.388,3.226,14.617,14.617,0,0,0-2.677.356,4.861,4.861,0,0,0-1.209-3.016A17.532,17.532,0,0,1,235.751,73.087Zm-8.843,2.47c.1-.061.2-.12.307-.178a1.613,1.613,0,1,1-.307.178Zm-3.623,2.829a4.726,4.726,0,0,0,.4.879,4.816,4.816,0,0,0,1.612,1.673,14.316,14.316,0,0,0-1.65,2.143,4.776,4.776,0,0,0-2.029-1.124,5.03,5.03,0,0,0-.958-.155A17.43,17.43,0,0,1,223.285,78.385ZM218.812,86.2a1.608,1.608,0,1,1,1.136,1.968A1.608,1.608,0,0,1,218.812,86.2Zm.747,8.443a4.741,4.741,0,0,0-.785.563,17.707,17.707,0,0,1-.566-4.274,4.8,4.8,0,0,0,3.226.385A14.4,14.4,0,0,0,221.793,94,4.762,4.762,0,0,0,219.559,94.646Zm3.217,5.573a1.613,1.613,0,0,1-2.1-.441c-.061-.1-.12-.2-.178-.309a1.608,1.608,0,1,1,2.277.75Zm4.146,5.809a17.535,17.535,0,0,1-3.416-2.627,5.118,5.118,0,0,0,.879-.4,4.817,4.817,0,0,0,1.676-1.611,14.286,14.286,0,0,0,2.14,1.649,4.8,4.8,0,0,0-1.121,2.029A4.75,4.75,0,0,0,226.922,106.029Zm4.4,1.845a1.609,1.609,0,1,1,1.971-1.139A1.609,1.609,0,0,1,231.325,107.874Zm4.732.6a4.825,4.825,0,0,0,.388-3.229,14.128,14.128,0,0,0,2.677-.356,4.832,4.832,0,0,0,1.209,3.016A17.7,17.7,0,0,1,236.057,108.478Zm8.843-2.47c-.1.061-.2.12-.309.178a1.608,1.608,0,1,1,.309-.178Zm3.623-2.829a4.738,4.738,0,0,0-.4-.879,4.79,4.79,0,0,0-1.611-1.673,14.457,14.457,0,0,0,1.649-2.143,4.8,4.8,0,0,0,2.029,1.121,4.969,4.969,0,0,0,.958.158A17.431,17.431,0,0,1,248.523,103.179Zm2.5-6.679A1.609,1.609,0,1,1,253,95.361,1.611,1.611,0,0,1,251.025,96.5Z" transform="translate(-208.19 -63.068)"/><path class="d" d="M226.815,75.55a5.017,5.017,0,1,0,3.548,6.144A5.021,5.021,0,0,0,226.815,75.55Zm-1.73,6.462a1.673,1.673,0,1,1,2.049-1.184A1.677,1.677,0,0,1,225.085,82.012Z" transform="translate(-197.804 -52.682)"/></g></g><g transform="translate(553.345 82.935)"><path class="d" d="M264.9,95.848h-6.036v-1.98a1.965,1.965,0,1,0-3.93,0v1.98H225.278a25.7,25.7,0,1,0,23.75,15.833h5.908v1.98a1.965,1.965,0,1,0,3.93,0v-1.98H264.9a1.968,1.968,0,0,0,1.969-1.98V97.828A1.973,1.973,0,0,0,264.9,95.848Zm-17.843,11.881H225.278a13.825,13.825,0,1,0,9.629,3.952h9.79a21.715,21.715,0,1,1-19.418-11.873h21.781Zm-27.351,15.833c.072.194.153.388.241.574l-2.877,2.9a9.824,9.824,0,0,1-1.439-3.475Zm-4.075-3.96a9.823,9.823,0,0,1,1.439-3.475l2.877,2.893c-.088.194-.169.38-.241.582Zm7.1,7.339a4.553,4.553,0,0,0,.579.234v4.106a9.8,9.8,0,0,1-3.456-1.447Zm0-10.717-2.877-2.893a9.8,9.8,0,0,1,3.456-1.447v4.1A6.2,6.2,0,0,0,222.73,116.223Zm2.548,3.378a1.98,1.98,0,1,1-1.969,1.98A1.978,1.978,0,0,1,225.278,119.6Zm1.969,7.573a4.971,4.971,0,0,0,.571-.234l2.885,2.893a9.859,9.859,0,0,1-3.456,1.447Zm0-11.194v-4.1a9.86,9.86,0,0,1,3.456,1.447l-2.885,2.893C227.633,116.134,227.44,116.053,227.247,115.981Zm3.36,8.147a4.641,4.641,0,0,0,.233-.582h4.083a9.908,9.908,0,0,1-1.439,3.475Zm.233-4.526a5.178,5.178,0,0,0-.233-.582l2.877-2.893a9.972,9.972,0,0,1,1.439,3.475Zm24.1-11.873H251v-7.92h3.938Zm8,0h-4.067v-7.92h4.067Z" transform="translate(-199.687 -91.888)"/></g><g transform="translate(351.793 81.256)"><g transform="translate(0)"><path class="d" d="M259.607,172.485l-3.5-1.7a25.129,25.129,0,0,0-2.574-6.2l1.2-3.6a1.721,1.721,0,0,0-.408-1.772l-4.881-4.866a1.726,1.726,0,0,0-1.758-.422l-3.6,1.21a25.588,25.588,0,0,0-6.218-2.588l-1.688-3.488a1.746,1.746,0,0,0-1.547-.97h-6.893a1.715,1.715,0,0,0-1.548.97l-1.7,3.488a25.823,25.823,0,0,0-6.218,2.588l-3.6-1.21a1.733,1.733,0,0,0-1.758.422l-4.867,4.866a1.727,1.727,0,0,0-.422,1.772l1.2,3.6a25.708,25.708,0,0,0-2.574,6.2l-3.489,1.7a1.73,1.73,0,0,0-.971,1.547v6.891a1.715,1.715,0,0,0,.971,1.547l3.489,1.7a26.037,26.037,0,0,0,2.574,6.216l-1.2,3.6a1.7,1.7,0,0,0,.422,1.758l4.867,4.866a1.732,1.732,0,0,0,1.758.422l3.6-1.209a25.3,25.3,0,0,0,6.218,2.588l1.7,3.488a1.716,1.716,0,0,0,1.548.97h6.893a1.747,1.747,0,0,0,1.547-.97l1.688-3.488a25.071,25.071,0,0,0,6.218-2.588l3.6,1.209a1.725,1.725,0,0,0,1.758-.422l4.881-4.866a1.7,1.7,0,0,0,.408-1.758l-1.2-3.6a25.445,25.445,0,0,0,2.574-6.216l3.5-1.7a1.7,1.7,0,0,0,.956-1.547v-6.891A1.717,1.717,0,0,0,259.607,172.485Zm-2.476,7.355-3.249,1.589a1.745,1.745,0,0,0-.928,1.153,21.891,21.891,0,0,1-2.771,6.68,1.726,1.726,0,0,0-.169,1.463l1.111,3.333-3.362,3.375-3.348-1.125a1.7,1.7,0,0,0-1.449.183,22.5,22.5,0,0,1-6.7,2.771,1.719,1.719,0,0,0-1.154.914l-1.575,3.249H228.8l-1.576-3.249a1.688,1.688,0,0,0-1.153-.914,22.262,22.262,0,0,1-6.682-2.771,1.73,1.73,0,0,0-1.463-.183l-3.334,1.125-3.376-3.375,1.111-3.333a1.677,1.677,0,0,0-.169-1.463,22.253,22.253,0,0,1-2.771-6.68,1.67,1.67,0,0,0-.928-1.153l-3.235-1.589v-4.725l3.235-1.575a1.693,1.693,0,0,0,.928-1.167,22.556,22.556,0,0,1,2.771-6.68,1.652,1.652,0,0,0,.169-1.449l-1.111-3.347,3.376-3.361,3.334,1.111a1.779,1.779,0,0,0,1.463-.169,22.292,22.292,0,0,1,6.682-2.785,1.688,1.688,0,0,0,1.153-.914l1.576-3.249h4.741l1.575,3.249a1.746,1.746,0,0,0,1.154.928,22.126,22.126,0,0,1,6.7,2.77,1.752,1.752,0,0,0,1.449.169l3.348-1.111,3.362,3.361-1.111,3.347a1.7,1.7,0,0,0,.169,1.449,22.184,22.184,0,0,1,2.771,6.68,1.769,1.769,0,0,0,.928,1.167l3.249,1.575Z" transform="translate(-201.777 -148.084)"/><path class="d" d="M216.135,149.712a19.223,19.223,0,0,0-11.531,0,1.747,1.747,0,0,0-1.227,1.67v.942a6.985,6.985,0,1,0,13.971,0v-.942A1.734,1.734,0,0,0,216.135,149.712Zm-5.765,6.108a3.507,3.507,0,0,1-3.482-3.111,15.864,15.864,0,0,1,6.95,0A3.482,3.482,0,0,1,210.37,155.82Z" transform="translate(-180.969 -138.411)"/><path class="d" d="M210.37,150.786a7,7,0,0,0-6.993,6.993v.942a1.748,1.748,0,0,0,1.227,1.67,19.227,19.227,0,0,0,11.531,0,1.735,1.735,0,0,0,1.213-1.67v-.942A6.992,6.992,0,0,0,210.37,150.786Zm0,6.993a15.781,15.781,0,0,1-3.482-.385,3.5,3.5,0,0,1,6.95,0A15.653,15.653,0,0,1,210.37,157.779Z" transform="translate(-180.969 -112.905)"/><path class="d" d="M211.226,149.855l-.8-.471a1.767,1.767,0,0,0-2.069.228,19.2,19.2,0,0,0-5.765,9.989,1.735,1.735,0,0,0,.827,1.884l.814.471a6.988,6.988,0,1,0,6.993-12.1Zm-.471,7.806a3.48,3.48,0,0,1-4.424,1.441,15.826,15.826,0,0,1,3.482-6.008A3.486,3.486,0,0,1,210.755,157.661Z" transform="translate(-191.73 -134.229)"/><path class="d" d="M215.628,151.643l-.814-.471a6.988,6.988,0,0,0-6.992,12.1l.813.471a1.745,1.745,0,0,0,2.055-.228,19.138,19.138,0,0,0,5.78-9.975A1.764,1.764,0,0,0,215.628,151.643Zm-6.393,8.391a3.495,3.495,0,0,1,3.482-6.008A15.363,15.363,0,0,1,209.235,160.034Z" transform="translate(-168.532 -120.112)"/><path class="d" d="M216.47,159.6a19.123,19.123,0,0,0-5.78-9.989,1.745,1.745,0,0,0-2.055-.228l-.813.471a6.988,6.988,0,1,0,6.992,12.1l.814-.471A1.744,1.744,0,0,0,216.47,159.6Zm-8.177-1.941a3.517,3.517,0,0,1,.942-4.567,15.464,15.464,0,0,1,3.482,6.008A3.485,3.485,0,0,1,208.293,157.661Z" transform="translate(-168.532 -134.229)"/><path class="d" d="M213.781,153.726a6.994,6.994,0,0,0-9.547-2.554l-.814.471a1.745,1.745,0,0,0-.827,1.9,19.21,19.21,0,0,0,5.765,9.975,1.767,1.767,0,0,0,2.069.228l.8-.471A6.981,6.981,0,0,0,213.781,153.726Zm-3.967,6.308a15.721,15.721,0,0,1-3.482-6.008,3.495,3.495,0,0,1,3.482,6.008Z" transform="translate(-191.73 -120.112)"/><path class="d" d="M208.751,149.807a5.237,5.237,0,1,0,5.237,5.237A5.253,5.253,0,0,0,208.751,149.807Zm0,6.992a1.748,1.748,0,1,1,1.741-1.755A1.754,1.754,0,0,1,208.751,156.8Z" transform="translate(-179.35 -125.651)"/></g></g><g transform="translate(72.993 523.892)"><g transform="translate(0 0)"><path class="d" d="M247.634,68.572a27.713,27.713,0,1,0,19.6,33.94A27.771,27.771,0,0,0,247.634,68.572Zm-13.5,50.4a24.465,24.465,0,1,1,29.965-17.3A24.491,24.491,0,0,1,234.13,118.972Z" transform="translate(-212.749 -67.627)"/><path class="d" d="M241.315,70.582A20.912,20.912,0,1,0,256.1,96.193,20.938,20.938,0,0,0,241.315,70.582Zm10.933,16.337a4.89,4.89,0,0,0,.782-.563,17.533,17.533,0,0,1,.569,4.274,4.825,4.825,0,0,0-3.229-.388,14.128,14.128,0,0,0-.356-2.68A4.832,4.832,0,0,0,252.248,86.919Zm-3.217-5.573a1.609,1.609,0,0,1,2.1.441c.061.1.12.2.178.307a1.609,1.609,0,1,1-2.277-.747ZM246.78,93.7a11.26,11.26,0,1,1-7.961-13.791A11.275,11.275,0,0,1,246.78,93.7Zm-1.895-18.164a17.558,17.558,0,0,1,3.416,2.63,4.541,4.541,0,0,0-.879.4,4.81,4.81,0,0,0-1.676,1.609,14.27,14.27,0,0,0-2.14-1.647,4.846,4.846,0,0,0,1.279-2.989Zm-4.4-1.842a1.608,1.608,0,1,1-1.971,1.136A1.609,1.609,0,0,1,240.483,73.691Zm-4.732-.6a4.82,4.82,0,0,0-.388,3.226,14.617,14.617,0,0,0-2.677.356,4.861,4.861,0,0,0-1.209-3.016A17.532,17.532,0,0,1,235.751,73.087Zm-8.843,2.47c.1-.061.2-.12.307-.178a1.613,1.613,0,1,1-.307.178Zm-3.623,2.829a4.726,4.726,0,0,0,.4.879,4.816,4.816,0,0,0,1.612,1.673,14.316,14.316,0,0,0-1.65,2.143,4.776,4.776,0,0,0-2.029-1.124,5.03,5.03,0,0,0-.958-.155A17.43,17.43,0,0,1,223.285,78.385ZM218.812,86.2a1.608,1.608,0,1,1,1.136,1.968A1.608,1.608,0,0,1,218.812,86.2Zm.747,8.443a4.741,4.741,0,0,0-.785.563,17.707,17.707,0,0,1-.566-4.274,4.8,4.8,0,0,0,3.226.385A14.4,14.4,0,0,0,221.793,94,4.762,4.762,0,0,0,219.559,94.646Zm3.217,5.573a1.613,1.613,0,0,1-2.1-.441c-.061-.1-.12-.2-.178-.309a1.608,1.608,0,1,1,2.277.75Zm4.146,5.809a17.535,17.535,0,0,1-3.416-2.627,5.118,5.118,0,0,0,.879-.4,4.817,4.817,0,0,0,1.676-1.611,14.286,14.286,0,0,0,2.14,1.649,4.8,4.8,0,0,0-1.121,2.029A4.75,4.75,0,0,0,226.922,106.029Zm4.4,1.845a1.609,1.609,0,1,1,1.971-1.139A1.609,1.609,0,0,1,231.325,107.874Zm4.732.6a4.825,4.825,0,0,0,.388-3.229,14.128,14.128,0,0,0,2.677-.356,4.832,4.832,0,0,0,1.209,3.016A17.7,17.7,0,0,1,236.057,108.478Zm8.843-2.47c-.1.061-.2.12-.309.178a1.608,1.608,0,1,1,.309-.178Zm3.623-2.829a4.738,4.738,0,0,0-.4-.879,4.79,4.79,0,0,0-1.611-1.673,14.457,14.457,0,0,0,1.649-2.143,4.8,4.8,0,0,0,2.029,1.121,4.969,4.969,0,0,0,.958.158A17.431,17.431,0,0,1,248.523,103.179Zm2.5-6.679A1.609,1.609,0,1,1,253,95.361,1.611,1.611,0,0,1,251.025,96.5Z" transform="translate(-208.19 -63.068)"/><path class="d" d="M226.815,75.55a5.017,5.017,0,1,0,3.548,6.144A5.021,5.021,0,0,0,226.815,75.55Zm-1.73,6.462a1.673,1.673,0,1,1,2.049-1.184A1.677,1.677,0,0,1,225.085,82.012Z" transform="translate(-197.804 -52.682)"/></g></g><g transform="translate(172.089 415.963)"><path class="d" d="M264.9,95.848h-6.036v-1.98a1.965,1.965,0,1,0-3.93,0v1.98H225.278a25.7,25.7,0,1,0,23.75,15.833h5.908v1.98a1.965,1.965,0,1,0,3.93,0v-1.98H264.9a1.968,1.968,0,0,0,1.969-1.98V97.828A1.973,1.973,0,0,0,264.9,95.848Zm-17.843,11.881H225.278a13.825,13.825,0,1,0,9.629,3.952h9.79a21.715,21.715,0,1,1-19.418-11.873h21.781Zm-27.351,15.833c.072.194.153.388.241.574l-2.877,2.9a9.824,9.824,0,0,1-1.439-3.475Zm-4.075-3.96a9.823,9.823,0,0,1,1.439-3.475l2.877,2.893c-.088.194-.169.38-.241.582Zm7.1,7.339a4.553,4.553,0,0,0,.579.234v4.106a9.8,9.8,0,0,1-3.456-1.447Zm0-10.717-2.877-2.893a9.8,9.8,0,0,1,3.456-1.447v4.1A6.2,6.2,0,0,0,222.73,116.223Zm2.548,3.378a1.98,1.98,0,1,1-1.969,1.98A1.978,1.978,0,0,1,225.278,119.6Zm1.969,7.573a4.971,4.971,0,0,0,.571-.234l2.885,2.893a9.859,9.859,0,0,1-3.456,1.447Zm0-11.194v-4.1a9.86,9.86,0,0,1,3.456,1.447l-2.885,2.893C227.633,116.134,227.44,116.053,227.247,115.981Zm3.36,8.147a4.641,4.641,0,0,0,.233-.582h4.083a9.908,9.908,0,0,1-1.439,3.475Zm.233-4.526a5.178,5.178,0,0,0-.233-.582l2.877-2.893a9.972,9.972,0,0,1,1.439,3.475Zm24.1-11.873H251v-7.92h3.938Zm8,0h-4.067v-7.92h4.067Z" transform="translate(-199.687 -91.888)"/></g><g transform="translate(282.943 267.454)"><g transform="translate(0 0)"><ellipse class="d" cx="1.731" cy="1.731" rx="1.731" ry="1.731" transform="translate(35.011 6.955)"/><path class="d" d="M221.019,106.286a8.361,8.361,0,0,0-11.568,3.166,8.775,8.775,0,0,0-.636,7.254l-5.023,3.918-1.956-1.151a5.023,5.023,0,0,0-6.94,1.9l-1.7,3a1.751,1.751,0,0,0,.62,2.363l1.466.864-1.7,3-1.466-.868a1.673,1.673,0,0,0-2.312.634,1.753,1.753,0,0,0,.62,2.367l1.466.864-1.7,3-1.466-.864a1.673,1.673,0,0,0-2.312.634,1.747,1.747,0,0,0,.62,2.363l1.466.868-1.7,3-1.466-.864a1.668,1.668,0,0,0-2.312.63l-1.7,3a5.258,5.258,0,0,0,1.861,7.092l1.858,1.1-1.609,7.431a6.805,6.805,0,0,0-2.64,2.621,7.019,7.019,0,0,0,2.482,9.459,6.706,6.706,0,0,0,9.256-2.536,6.98,6.98,0,0,0,.9-3.643l5.493-5.141,1.857,1.1a5.033,5.033,0,0,0,6.944-1.9l1.691-3a1.753,1.753,0,0,0-.62-2.367l-1.466-.864,1.7-3,1.466.864a1.673,1.673,0,0,0,2.312-.634,1.746,1.746,0,0,0-.617-2.363l-1.47-.868,1.7-3,1.466.864a1.672,1.672,0,0,0,2.316-.634,1.752,1.752,0,0,0-.62-2.363l-1.466-.864,1.691-3,1.466.868a1.679,1.679,0,0,0,2.316-.634l1.691-3a5.262,5.262,0,0,0-1.858-7.1l-1.956-1.155.81-6.406a8.429,8.429,0,0,0,5.829-4.188,8.77,8.77,0,0,0,.846-6.567A8.568,8.568,0,0,0,221.019,106.286Zm-10.433,13.393a8.515,8.515,0,0,0,4.3,2.54l-.581,4.608L206.97,122.5ZM189.616,168.8a3.346,3.346,0,0,1-4.624,1.264,3.5,3.5,0,0,1-1.241-4.729,3.349,3.349,0,0,1,4.628-1.264A3.5,3.5,0,0,1,189.616,168.8Zm2.715-5.557a6.857,6.857,0,0,0-2.26-2.173,6.644,6.644,0,0,0-2.968-.913l1.035-4.79,7.734,4.564Zm12.481-4.031a1.672,1.672,0,0,1-2.312.63l-2.932-1.729h0l-14.67-8.655a1.755,1.755,0,0,1-.62-2.367l.85-1.5L205.662,157.7Zm-.391-6.232-14.67-8.651,1.7-3,14.67,8.655Zm3.387-5.994-14.666-8.655,1.691-3,14.67,8.655Zm3.387-6-14.666-8.655,1.691-3,14.67,8.655Zm7.169-5.763-.846,1.5L196.983,124.6l.846-1.5a1.674,1.674,0,0,1,2.312-.634c2.972,1.753,15.342,9.051,17.6,10.388A1.751,1.751,0,0,1,218.363,135.22Zm2.822-18.845a5.018,5.018,0,0,1-6.94,1.9,5.254,5.254,0,0,1-1.861-7.092,5.022,5.022,0,0,1,6.944-1.9,5.156,5.156,0,0,1,2.367,3.154A5.245,5.245,0,0,1,221.185,116.375Z" transform="translate(-179.91 -105.122)"/></g></g><g transform="translate(581.912 421.002)"><path class="d" d="M201.974,140.625H191.9l-1.6-3.227a4.077,4.077,0,0,0-3.664-2.286H181.5v-5.694h1.364a1.377,1.377,0,0,0,0-2.755H169.222a1.377,1.377,0,0,0,0,2.755h1.364v5.694h-1.364a4.119,4.119,0,0,0-4.092,4.136v1.616a4.131,4.131,0,0,0-2.733,3.893v24.8a4.119,4.119,0,0,0,4.1,4.132h35.481a4.118,4.118,0,0,0,4.092-4.132v-24.8A4.118,4.118,0,0,0,201.974,140.625Zm-28.66-11.207h5.461v5.694h-5.461Zm-5.457,9.83a1.371,1.371,0,0,1,1.364-1.377h17.417a1.357,1.357,0,0,1,1.221.761l.99,1.994H167.858Zm-2.728,9.645h5.457v16.531H165.13Zm38.209,20.668a1.374,1.374,0,0,1-1.364,1.377H166.494a1.374,1.374,0,0,1-1.364-1.377v-1.382h38.209Zm-30.024-4.136V148.893h5.461v16.531Zm8.189,0V148.893h5.461v16.531Zm8.189,0V148.893h5.457v16.531Zm13.646,0h-5.461V148.893h5.461Zm0-19.29H165.13v-1.377a1.374,1.374,0,0,1,1.364-1.377h35.481a1.374,1.374,0,0,1,1.364,1.377Z" transform="translate(-162.397 -126.664)"/></g><g transform="translate(471.058 528.931)"><g transform="translate(0)"><ellipse class="d" cx="1.978" cy="1.978" rx="1.978" ry="1.978" transform="translate(15.874 31.326)"/><ellipse class="d" cx="1.978" cy="1.978" rx="1.978" ry="1.978" transform="translate(27.679 31.326)"/><ellipse class="d" cx="1.978" cy="1.978" rx="1.978" ry="1.978" transform="translate(39.484 31.326)"/><path class="d" d="M246.616,162.917h-3.938a1.962,1.962,0,0,0-1.39.568l-3.359,3.344h-5.224v-1.96a1.961,1.961,0,0,0-1.969-1.952H220.9V159h1.969a1.961,1.961,0,0,0,1.961-1.96v-5.881H226.8a1.96,1.96,0,1,0,0-3.92H195.312a1.96,1.96,0,1,0,0,3.92h1.969v5.881A1.968,1.968,0,0,0,199.25,159h1.969v3.92h-9.845a1.961,1.961,0,0,0-1.969,1.952v1.96h-4.066v-1.96a1.969,1.969,0,0,0-3.938,0v23.514a1.969,1.969,0,0,0,3.938,0v-1.96h5.224l7.3,7.265a1.969,1.969,0,0,0,1.39.576h31.486a1.968,1.968,0,0,0,1.969-1.96v-1.96h5.224l3.359,3.344a1.969,1.969,0,0,0,1.39.576h3.938a1.968,1.968,0,0,0,1.969-1.96V164.869A1.961,1.961,0,0,0,246.616,162.917Zm-57.211,19.594h-4.066V170.749h4.066Zm11.813-31.355H220.9v3.92H201.219ZM216.962,159v3.92H205.148V159Zm11.805,29.387v1.96H200.061l-6.719-6.689V174.67h35.424Zm0-17.634H193.343v-3.92h35.424Zm8,15.674h-4.066V170.749h4.066Zm7.876,3.921H243.49l-2.781-2.768v-17.97l2.781-2.776h1.157Z" transform="translate(-181.401 -147.235)"/></g></g><g transform="translate(371.962 417.642)"><g transform="translate(0 0)"><path class="d" d="M245.29,151.832a1.648,1.648,0,0,0-1.375-1.421L227.494,148l-1.749-6.737a4.951,4.951,0,0,0-2.263-3.045l-5.849-3.492,1.62-2.9,4.206,2.511a1.594,1.594,0,0,0,2.213-.613,1.7,1.7,0,0,0-.594-2.286l-11.219-6.692a1.592,1.592,0,0,0-2.213.613,1.705,1.705,0,0,0,.594,2.286l4.206,2.508-1.619,2.9-6.784-4.044-3.642-4.242a4.769,4.769,0,0,0-7.842.82l-1.443,2.584a5.147,5.147,0,0,0,.57,5.842l4.473,5.21-4.273,7.648a5.114,5.114,0,0,0,1.778,6.856l18.19,10.848a4.719,4.719,0,0,0,4.435.225l24.06-11.207A1.683,1.683,0,0,0,245.29,151.832Zm-47.179-20.045a1.71,1.71,0,0,1-.191-1.946l1.443-2.584a1.594,1.594,0,0,1,2.616-.273l3.039,3.54-3.151,5.641Zm20.844,29.962a1.573,1.573,0,0,1-1.481-.073l-18.19-10.852a1.7,1.7,0,0,1-.594-2.283l.808-1.448,22.332,13.317Zm6.513-3.033-24.351-14.522c.782-1.4,6.34-11.343,6.478-11.589,1.47.874,12.629,7.53,14.267,8.507a1.65,1.65,0,0,1,.755,1.017l2.022,7.8a1.635,1.635,0,0,0,1.337,1.224l11.957,1.758Z" transform="translate(-194.463 -123.072)"/><path class="d" d="M221.451,144.313l-4.384-9.264a1.673,1.673,0,0,0-3.024,0l-4.387,9.264a6.693,6.693,0,1,0,11.8,0Zm-5.9,6.51a3.348,3.348,0,0,1-3.346-3.346,3.3,3.3,0,0,1,.407-1.6l.046-.088,2.894-6.112,2.894,6.112.042.088a3.272,3.272,0,0,1,.41,1.6A3.35,3.35,0,0,1,215.555,150.823Z" transform="translate(-166.82 -102.101)"/></g></g><g transform="translate(669.251 321.604)"><path class="d" d="M219.685,148.084a9.357,9.357,0,0,0-1.878,18.521v9.65a1.873,1.873,0,0,1-1.863,1.878H199V166.605a9.352,9.352,0,1,0-3.741,0v11.528H176.428V166.605a9.352,9.352,0,1,0-3.741,0v26.8a9.352,9.352,0,1,0,3.741,0V181.874h18.827V193.4a9.352,9.352,0,1,0,3.741,0V181.874h16.949a5.62,5.62,0,0,0,5.6-5.619v-9.65a9.355,9.355,0,0,0-1.863-18.521Zm-39.516,54.48a5.611,5.611,0,1,1-5.6-5.619A5.617,5.617,0,0,1,180.169,202.564Zm-5.6-39.516a5.611,5.611,0,1,1,5.6-5.6A5.62,5.62,0,0,1,174.565,163.048Zm28.172,39.516a5.611,5.611,0,1,1-5.619-5.619A5.62,5.62,0,0,1,202.737,202.564Zm-5.619-39.516a5.611,5.611,0,1,1,5.619-5.6A5.617,5.617,0,0,1,197.118,163.048Zm22.568,0a5.611,5.611,0,1,1,5.6-5.6A5.621,5.621,0,0,1,219.685,163.048Z" transform="translate(-165.205 -148.084)"/></g><g transform="translate(-29.463 414.283)"><g transform="translate(0)"><path class="d" d="M259.607,172.485l-3.5-1.7a25.129,25.129,0,0,0-2.574-6.2l1.2-3.6a1.721,1.721,0,0,0-.408-1.772l-4.881-4.866a1.726,1.726,0,0,0-1.758-.422l-3.6,1.21a25.588,25.588,0,0,0-6.218-2.588l-1.688-3.488a1.746,1.746,0,0,0-1.547-.97h-6.893a1.715,1.715,0,0,0-1.548.97l-1.7,3.488a25.823,25.823,0,0,0-6.218,2.588l-3.6-1.21a1.733,1.733,0,0,0-1.758.422l-4.867,4.866a1.727,1.727,0,0,0-.422,1.772l1.2,3.6a25.708,25.708,0,0,0-2.574,6.2l-3.489,1.7a1.73,1.73,0,0,0-.971,1.547v6.891a1.715,1.715,0,0,0,.971,1.547l3.489,1.7a26.037,26.037,0,0,0,2.574,6.216l-1.2,3.6a1.7,1.7,0,0,0,.422,1.758l4.867,4.866a1.732,1.732,0,0,0,1.758.422l3.6-1.209a25.3,25.3,0,0,0,6.218,2.588l1.7,3.488a1.716,1.716,0,0,0,1.548.97h6.893a1.747,1.747,0,0,0,1.547-.97l1.688-3.488a25.071,25.071,0,0,0,6.218-2.588l3.6,1.209a1.725,1.725,0,0,0,1.758-.422l4.881-4.866a1.7,1.7,0,0,0,.408-1.758l-1.2-3.6a25.445,25.445,0,0,0,2.574-6.216l3.5-1.7a1.7,1.7,0,0,0,.956-1.547v-6.891A1.717,1.717,0,0,0,259.607,172.485Zm-2.476,7.355-3.249,1.589a1.745,1.745,0,0,0-.928,1.153,21.891,21.891,0,0,1-2.771,6.68,1.726,1.726,0,0,0-.169,1.463l1.111,3.333-3.362,3.375-3.348-1.125a1.7,1.7,0,0,0-1.449.183,22.5,22.5,0,0,1-6.7,2.771,1.719,1.719,0,0,0-1.154.914l-1.575,3.249H228.8l-1.576-3.249a1.688,1.688,0,0,0-1.153-.914,22.262,22.262,0,0,1-6.682-2.771,1.73,1.73,0,0,0-1.463-.183l-3.334,1.125-3.376-3.375,1.111-3.333a1.677,1.677,0,0,0-.169-1.463,22.253,22.253,0,0,1-2.771-6.68,1.67,1.67,0,0,0-.928-1.153l-3.235-1.589v-4.725l3.235-1.575a1.693,1.693,0,0,0,.928-1.167,22.556,22.556,0,0,1,2.771-6.68,1.652,1.652,0,0,0,.169-1.449l-1.111-3.347,3.376-3.361,3.334,1.111a1.779,1.779,0,0,0,1.463-.169,22.292,22.292,0,0,1,6.682-2.785,1.688,1.688,0,0,0,1.153-.914l1.576-3.249h4.741l1.575,3.249a1.746,1.746,0,0,0,1.154.928,22.126,22.126,0,0,1,6.7,2.77,1.752,1.752,0,0,0,1.449.169l3.348-1.111,3.362,3.361-1.111,3.347a1.7,1.7,0,0,0,.169,1.449,22.184,22.184,0,0,1,2.771,6.68,1.769,1.769,0,0,0,.928,1.167l3.249,1.575Z" transform="translate(-201.777 -148.084)"/><path class="d" d="M216.135,149.712a19.223,19.223,0,0,0-11.531,0,1.747,1.747,0,0,0-1.227,1.67v.942a6.985,6.985,0,1,0,13.971,0v-.942A1.734,1.734,0,0,0,216.135,149.712Zm-5.765,6.108a3.507,3.507,0,0,1-3.482-3.111,15.864,15.864,0,0,1,6.95,0A3.482,3.482,0,0,1,210.37,155.82Z" transform="translate(-180.969 -138.411)"/><path class="d" d="M210.37,150.786a7,7,0,0,0-6.993,6.993v.942a1.748,1.748,0,0,0,1.227,1.67,19.227,19.227,0,0,0,11.531,0,1.735,1.735,0,0,0,1.213-1.67v-.942A6.992,6.992,0,0,0,210.37,150.786Zm0,6.993a15.781,15.781,0,0,1-3.482-.385,3.5,3.5,0,0,1,6.95,0A15.653,15.653,0,0,1,210.37,157.779Z" transform="translate(-180.969 -112.905)"/><path class="d" d="M211.226,149.855l-.8-.471a1.767,1.767,0,0,0-2.069.228,19.2,19.2,0,0,0-5.765,9.989,1.735,1.735,0,0,0,.827,1.884l.814.471a6.988,6.988,0,1,0,6.993-12.1Zm-.471,7.806a3.48,3.48,0,0,1-4.424,1.441,15.826,15.826,0,0,1,3.482-6.008A3.486,3.486,0,0,1,210.755,157.661Z" transform="translate(-191.73 -134.229)"/><path class="d" d="M215.628,151.643l-.814-.471a6.988,6.988,0,0,0-6.992,12.1l.813.471a1.745,1.745,0,0,0,2.055-.228,19.138,19.138,0,0,0,5.78-9.975A1.764,1.764,0,0,0,215.628,151.643Zm-6.393,8.391a3.495,3.495,0,0,1,3.482-6.008A15.363,15.363,0,0,1,209.235,160.034Z" transform="translate(-168.532 -120.112)"/><path class="d" d="M216.47,159.6a19.123,19.123,0,0,0-5.78-9.989,1.745,1.745,0,0,0-2.055-.228l-.813.471a6.988,6.988,0,1,0,6.992,12.1l.814-.471A1.744,1.744,0,0,0,216.47,159.6Zm-8.177-1.941a3.517,3.517,0,0,1,.942-4.567,15.464,15.464,0,0,1,3.482,6.008A3.485,3.485,0,0,1,208.293,157.661Z" transform="translate(-168.532 -134.229)"/><path class="d" d="M213.781,153.726a6.994,6.994,0,0,0-9.547-2.554l-.814.471a1.745,1.745,0,0,0-.827,1.9,19.21,19.21,0,0,0,5.765,9.975,1.767,1.767,0,0,0,2.069.228l.8-.471A6.981,6.981,0,0,0,213.781,153.726Zm-3.967,6.308a15.721,15.721,0,0,1-3.482-6.008,3.495,3.495,0,0,1,3.482,6.008Z" transform="translate(-191.73 -120.112)"/><path class="d" d="M208.751,149.807a5.237,5.237,0,1,0,5.237,5.237A5.253,5.253,0,0,0,208.751,149.807Zm0,6.992a1.748,1.748,0,1,1,1.741-1.755A1.754,1.754,0,0,1,208.751,156.8Z" transform="translate(-179.35 -125.651)"/></g></g><g transform="translate(73.856 856.92)"><g transform="translate(0 0)"><path class="d" d="M247.634,68.572a27.713,27.713,0,1,0,19.6,33.94A27.771,27.771,0,0,0,247.634,68.572Zm-13.5,50.4a24.465,24.465,0,1,1,29.965-17.3A24.491,24.491,0,0,1,234.13,118.972Z" transform="translate(-212.749 -67.627)"/><path class="d" d="M241.315,70.582A20.912,20.912,0,1,0,256.1,96.193,20.938,20.938,0,0,0,241.315,70.582Zm10.933,16.337a4.89,4.89,0,0,0,.782-.563,17.533,17.533,0,0,1,.569,4.274,4.825,4.825,0,0,0-3.229-.388,14.128,14.128,0,0,0-.356-2.68A4.832,4.832,0,0,0,252.248,86.919Zm-3.217-5.573a1.609,1.609,0,0,1,2.1.441c.061.1.12.2.178.307a1.609,1.609,0,1,1-2.277-.747ZM246.78,93.7a11.26,11.26,0,1,1-7.961-13.791A11.275,11.275,0,0,1,246.78,93.7Zm-1.895-18.164a17.558,17.558,0,0,1,3.416,2.63,4.541,4.541,0,0,0-.879.4,4.81,4.81,0,0,0-1.676,1.609,14.27,14.27,0,0,0-2.14-1.647,4.846,4.846,0,0,0,1.279-2.989Zm-4.4-1.842a1.608,1.608,0,1,1-1.971,1.136A1.609,1.609,0,0,1,240.483,73.691Zm-4.732-.6a4.82,4.82,0,0,0-.388,3.226,14.617,14.617,0,0,0-2.677.356,4.861,4.861,0,0,0-1.209-3.016A17.532,17.532,0,0,1,235.751,73.087Zm-8.843,2.47c.1-.061.2-.12.307-.178a1.613,1.613,0,1,1-.307.178Zm-3.623,2.829a4.726,4.726,0,0,0,.4.879,4.816,4.816,0,0,0,1.612,1.673,14.316,14.316,0,0,0-1.65,2.143,4.776,4.776,0,0,0-2.029-1.124,5.03,5.03,0,0,0-.958-.155A17.43,17.43,0,0,1,223.285,78.385ZM218.812,86.2a1.608,1.608,0,1,1,1.136,1.968A1.608,1.608,0,0,1,218.812,86.2Zm.747,8.443a4.741,4.741,0,0,0-.785.563,17.707,17.707,0,0,1-.566-4.274,4.8,4.8,0,0,0,3.226.385A14.4,14.4,0,0,0,221.793,94,4.762,4.762,0,0,0,219.559,94.646Zm3.217,5.573a1.613,1.613,0,0,1-2.1-.441c-.061-.1-.12-.2-.178-.309a1.608,1.608,0,1,1,2.277.75Zm4.146,5.809a17.535,17.535,0,0,1-3.416-2.627,5.118,5.118,0,0,0,.879-.4,4.817,4.817,0,0,0,1.676-1.611,14.286,14.286,0,0,0,2.14,1.649,4.8,4.8,0,0,0-1.121,2.029A4.75,4.75,0,0,0,226.922,106.029Zm4.4,1.845a1.609,1.609,0,1,1,1.971-1.139A1.609,1.609,0,0,1,231.325,107.874Zm4.732.6a4.825,4.825,0,0,0,.388-3.229,14.128,14.128,0,0,0,2.677-.356,4.832,4.832,0,0,0,1.209,3.016A17.7,17.7,0,0,1,236.057,108.478Zm8.843-2.47c-.1.061-.2.12-.309.178a1.608,1.608,0,1,1,.309-.178Zm3.623-2.829a4.738,4.738,0,0,0-.4-.879,4.79,4.79,0,0,0-1.611-1.673,14.457,14.457,0,0,0,1.649-2.143,4.8,4.8,0,0,0,2.029,1.121,4.969,4.969,0,0,0,.958.158A17.431,17.431,0,0,1,248.523,103.179Zm2.5-6.679A1.609,1.609,0,1,1,253,95.361,1.611,1.611,0,0,1,251.025,96.5Z" transform="translate(-208.19 -63.068)"/><path class="d" d="M226.815,75.55a5.017,5.017,0,1,0,3.548,6.144A5.021,5.021,0,0,0,226.815,75.55Zm-1.73,6.462a1.673,1.673,0,1,1,2.049-1.184A1.677,1.677,0,0,1,225.085,82.012Z" transform="translate(-197.804 -52.682)"/></g></g><g transform="translate(172.952 748.99)"><path class="d" d="M264.9,95.848h-6.036v-1.98a1.965,1.965,0,1,0-3.93,0v1.98H225.278a25.7,25.7,0,1,0,23.75,15.833h5.908v1.98a1.965,1.965,0,1,0,3.93,0v-1.98H264.9a1.968,1.968,0,0,0,1.969-1.98V97.828A1.973,1.973,0,0,0,264.9,95.848Zm-17.843,11.881H225.278a13.825,13.825,0,1,0,9.629,3.952h9.79a21.715,21.715,0,1,1-19.418-11.873h21.781Zm-27.351,15.833c.072.194.153.388.241.574l-2.877,2.9a9.824,9.824,0,0,1-1.439-3.475Zm-4.075-3.96a9.823,9.823,0,0,1,1.439-3.475l2.877,2.893c-.088.194-.169.38-.241.582Zm7.1,7.339a4.553,4.553,0,0,0,.579.234v4.106a9.8,9.8,0,0,1-3.456-1.447Zm0-10.717-2.877-2.893a9.8,9.8,0,0,1,3.456-1.447v4.1A6.2,6.2,0,0,0,222.73,116.223Zm2.548,3.378a1.98,1.98,0,1,1-1.969,1.98A1.978,1.978,0,0,1,225.278,119.6Zm1.969,7.573a4.971,4.971,0,0,0,.571-.234l2.885,2.893a9.859,9.859,0,0,1-3.456,1.447Zm0-11.194v-4.1a9.86,9.86,0,0,1,3.456,1.447l-2.885,2.893C227.633,116.134,227.44,116.053,227.247,115.981Zm3.36,8.147a4.641,4.641,0,0,0,.233-.582h4.083a9.908,9.908,0,0,1-1.439,3.475Zm.233-4.526a5.178,5.178,0,0,0-.233-.582l2.877-2.893a9.972,9.972,0,0,1,1.439,3.475Zm24.1-11.873H251v-7.92h3.938Zm8,0h-4.067v-7.92h4.067Z" transform="translate(-199.687 -91.888)"/></g><g transform="translate(283.806 600.482)"><g transform="translate(0 0)"><ellipse class="d" cx="1.731" cy="1.731" rx="1.731" ry="1.731" transform="translate(35.011 6.955)"/><path class="d" d="M221.019,106.286a8.361,8.361,0,0,0-11.568,3.166,8.775,8.775,0,0,0-.636,7.254l-5.023,3.918-1.956-1.151a5.023,5.023,0,0,0-6.94,1.9l-1.7,3a1.751,1.751,0,0,0,.62,2.363l1.466.864-1.7,3-1.466-.868a1.673,1.673,0,0,0-2.312.634,1.753,1.753,0,0,0,.62,2.367l1.466.864-1.7,3-1.466-.864a1.673,1.673,0,0,0-2.312.634,1.747,1.747,0,0,0,.62,2.363l1.466.868-1.7,3-1.466-.864a1.668,1.668,0,0,0-2.312.63l-1.7,3a5.258,5.258,0,0,0,1.861,7.092l1.858,1.1-1.609,7.431a6.805,6.805,0,0,0-2.64,2.621,7.019,7.019,0,0,0,2.482,9.459,6.706,6.706,0,0,0,9.256-2.536,6.98,6.98,0,0,0,.9-3.643l5.493-5.141,1.857,1.1a5.033,5.033,0,0,0,6.944-1.9l1.691-3a1.753,1.753,0,0,0-.62-2.367l-1.466-.864,1.7-3,1.466.864a1.673,1.673,0,0,0,2.312-.634,1.746,1.746,0,0,0-.617-2.363l-1.47-.868,1.7-3,1.466.864a1.672,1.672,0,0,0,2.316-.634,1.752,1.752,0,0,0-.62-2.363l-1.466-.864,1.691-3,1.466.868a1.679,1.679,0,0,0,2.316-.634l1.691-3a5.262,5.262,0,0,0-1.858-7.1l-1.956-1.155.81-6.406a8.429,8.429,0,0,0,5.829-4.188,8.77,8.77,0,0,0,.846-6.567A8.568,8.568,0,0,0,221.019,106.286Zm-10.433,13.393a8.515,8.515,0,0,0,4.3,2.54l-.581,4.608L206.97,122.5ZM189.616,168.8a3.346,3.346,0,0,1-4.624,1.264,3.5,3.5,0,0,1-1.241-4.729,3.349,3.349,0,0,1,4.628-1.264A3.5,3.5,0,0,1,189.616,168.8Zm2.715-5.557a6.857,6.857,0,0,0-2.26-2.173,6.644,6.644,0,0,0-2.968-.913l1.035-4.79,7.734,4.564Zm12.481-4.031a1.672,1.672,0,0,1-2.312.63l-2.932-1.729h0l-14.67-8.655a1.755,1.755,0,0,1-.62-2.367l.85-1.5L205.662,157.7Zm-.391-6.232-14.67-8.651,1.7-3,14.67,8.655Zm3.387-5.994-14.666-8.655,1.691-3,14.67,8.655Zm3.387-6-14.666-8.655,1.691-3,14.67,8.655Zm7.169-5.763-.846,1.5L196.983,124.6l.846-1.5a1.674,1.674,0,0,1,2.312-.634c2.972,1.753,15.342,9.051,17.6,10.388A1.751,1.751,0,0,1,218.363,135.22Zm2.822-18.845a5.018,5.018,0,0,1-6.94,1.9,5.254,5.254,0,0,1-1.861-7.092,5.022,5.022,0,0,1,6.944-1.9,5.156,5.156,0,0,1,2.367,3.154A5.245,5.245,0,0,1,221.185,116.375Z" transform="translate(-179.91 -105.122)"/></g></g><g transform="translate(582.775 754.029)"><path class="d" d="M201.974,140.625H191.9l-1.6-3.227a4.077,4.077,0,0,0-3.664-2.286H181.5v-5.694h1.364a1.377,1.377,0,0,0,0-2.755H169.222a1.377,1.377,0,0,0,0,2.755h1.364v5.694h-1.364a4.119,4.119,0,0,0-4.092,4.136v1.616a4.131,4.131,0,0,0-2.733,3.893v24.8a4.119,4.119,0,0,0,4.1,4.132h35.481a4.118,4.118,0,0,0,4.092-4.132v-24.8A4.118,4.118,0,0,0,201.974,140.625Zm-28.66-11.207h5.461v5.694h-5.461Zm-5.457,9.83a1.371,1.371,0,0,1,1.364-1.377h17.417a1.357,1.357,0,0,1,1.221.761l.99,1.994H167.858Zm-2.728,9.645h5.457v16.531H165.13Zm38.209,20.668a1.374,1.374,0,0,1-1.364,1.377H166.494a1.374,1.374,0,0,1-1.364-1.377v-1.382h38.209Zm-30.024-4.136V148.893h5.461v16.531Zm8.189,0V148.893h5.461v16.531Zm8.189,0V148.893h5.457v16.531Zm13.646,0h-5.461V148.893h5.461Zm0-19.29H165.13v-1.377a1.374,1.374,0,0,1,1.364-1.377h35.481a1.374,1.374,0,0,1,1.364,1.377Z" transform="translate(-162.397 -126.664)"/></g><g transform="translate(471.921 861.959)"><g transform="translate(0)"><ellipse class="d" cx="1.978" cy="1.978" rx="1.978" ry="1.978" transform="translate(15.874 31.326)"/><ellipse class="d" cx="1.978" cy="1.978" rx="1.978" ry="1.978" transform="translate(27.679 31.326)"/><ellipse class="d" cx="1.978" cy="1.978" rx="1.978" ry="1.978" transform="translate(39.484 31.326)"/><path class="d" d="M246.616,162.917h-3.938a1.962,1.962,0,0,0-1.39.568l-3.359,3.344h-5.224v-1.96a1.961,1.961,0,0,0-1.969-1.952H220.9V159h1.969a1.961,1.961,0,0,0,1.961-1.96v-5.881H226.8a1.96,1.96,0,1,0,0-3.92H195.312a1.96,1.96,0,1,0,0,3.92h1.969v5.881A1.968,1.968,0,0,0,199.25,159h1.969v3.92h-9.845a1.961,1.961,0,0,0-1.969,1.952v1.96h-4.066v-1.96a1.969,1.969,0,0,0-3.938,0v23.514a1.969,1.969,0,0,0,3.938,0v-1.96h5.224l7.3,7.265a1.969,1.969,0,0,0,1.39.576h31.486a1.968,1.968,0,0,0,1.969-1.96v-1.96h5.224l3.359,3.344a1.969,1.969,0,0,0,1.39.576h3.938a1.968,1.968,0,0,0,1.969-1.96V164.869A1.961,1.961,0,0,0,246.616,162.917Zm-57.211,19.594h-4.066V170.749h4.066Zm11.813-31.355H220.9v3.92H201.219ZM216.962,159v3.92H205.148V159Zm11.805,29.387v1.96H200.061l-6.719-6.689V174.67h35.424Zm0-17.634H193.343v-3.92h35.424Zm8,15.674h-4.066V170.749h4.066Zm7.876,3.921H243.49l-2.781-2.768v-17.97l2.781-2.776h1.157Z" transform="translate(-181.401 -147.235)"/></g></g><g transform="translate(372.825 750.67)"><g transform="translate(0 0)"><path class="d" d="M245.29,151.832a1.648,1.648,0,0,0-1.375-1.421L227.494,148l-1.749-6.737a4.951,4.951,0,0,0-2.263-3.045l-5.849-3.492,1.62-2.9,4.206,2.511a1.594,1.594,0,0,0,2.213-.613,1.7,1.7,0,0,0-.594-2.286l-11.219-6.692a1.592,1.592,0,0,0-2.213.613,1.705,1.705,0,0,0,.594,2.286l4.206,2.508-1.619,2.9-6.784-4.044-3.642-4.242a4.769,4.769,0,0,0-7.842.82l-1.443,2.584a5.147,5.147,0,0,0,.57,5.842l4.473,5.21-4.273,7.648a5.114,5.114,0,0,0,1.778,6.856l18.19,10.848a4.719,4.719,0,0,0,4.435.225l24.06-11.207A1.683,1.683,0,0,0,245.29,151.832Zm-47.179-20.045a1.71,1.71,0,0,1-.191-1.946l1.443-2.584a1.594,1.594,0,0,1,2.616-.273l3.039,3.54-3.151,5.641Zm20.844,29.962a1.573,1.573,0,0,1-1.481-.073l-18.19-10.852a1.7,1.7,0,0,1-.594-2.283l.808-1.448,22.332,13.317Zm6.513-3.033-24.351-14.522c.782-1.4,6.34-11.343,6.478-11.589,1.47.874,12.629,7.53,14.267,8.507a1.65,1.65,0,0,1,.755,1.017l2.022,7.8a1.635,1.635,0,0,0,1.337,1.224l11.957,1.758Z" transform="translate(-194.463 -123.072)"/><path class="d" d="M221.451,144.313l-4.384-9.264a1.673,1.673,0,0,0-3.024,0l-4.387,9.264a6.693,6.693,0,1,0,11.8,0Zm-5.9,6.51a3.348,3.348,0,0,1-3.346-3.346,3.3,3.3,0,0,1,.407-1.6l.046-.088,2.894-6.112,2.894,6.112.042.088a3.272,3.272,0,0,1,.41,1.6A3.35,3.35,0,0,1,215.555,150.823Z" transform="translate(-166.82 -102.101)"/></g></g><g transform="translate(670.114 654.631)"><path class="d" d="M219.685,148.084a9.357,9.357,0,0,0-1.878,18.521v9.65a1.873,1.873,0,0,1-1.863,1.878H199V166.605a9.352,9.352,0,1,0-3.741,0v11.528H176.428V166.605a9.352,9.352,0,1,0-3.741,0v26.8a9.352,9.352,0,1,0,3.741,0V181.874h18.827V193.4a9.352,9.352,0,1,0,3.741,0V181.874h16.949a5.62,5.62,0,0,0,5.6-5.619v-9.65a9.355,9.355,0,0,0-1.863-18.521Zm-39.516,54.48a5.611,5.611,0,1,1-5.6-5.619A5.617,5.617,0,0,1,180.169,202.564Zm-5.6-39.516a5.611,5.611,0,1,1,5.6-5.6A5.62,5.62,0,0,1,174.565,163.048Zm28.172,39.516a5.611,5.611,0,1,1-5.619-5.619A5.62,5.62,0,0,1,202.737,202.564Zm-5.619-39.516a5.611,5.611,0,1,1,5.619-5.6A5.617,5.617,0,0,1,197.118,163.048Zm22.568,0a5.611,5.611,0,1,1,5.6-5.6A5.621,5.621,0,0,1,219.685,163.048Z" transform="translate(-165.205 -148.084)"/></g><g transform="translate(-28.6 747.311)"><g transform="translate(0)"><path class="d" d="M259.607,172.485l-3.5-1.7a25.129,25.129,0,0,0-2.574-6.2l1.2-3.6a1.721,1.721,0,0,0-.408-1.772l-4.881-4.866a1.726,1.726,0,0,0-1.758-.422l-3.6,1.21a25.588,25.588,0,0,0-6.218-2.588l-1.688-3.488a1.746,1.746,0,0,0-1.547-.97h-6.893a1.715,1.715,0,0,0-1.548.97l-1.7,3.488a25.823,25.823,0,0,0-6.218,2.588l-3.6-1.21a1.733,1.733,0,0,0-1.758.422l-4.867,4.866a1.727,1.727,0,0,0-.422,1.772l1.2,3.6a25.708,25.708,0,0,0-2.574,6.2l-3.489,1.7a1.73,1.73,0,0,0-.971,1.547v6.891a1.715,1.715,0,0,0,.971,1.547l3.489,1.7a26.037,26.037,0,0,0,2.574,6.216l-1.2,3.6a1.7,1.7,0,0,0,.422,1.758l4.867,4.866a1.732,1.732,0,0,0,1.758.422l3.6-1.209a25.3,25.3,0,0,0,6.218,2.588l1.7,3.488a1.716,1.716,0,0,0,1.548.97h6.893a1.747,1.747,0,0,0,1.547-.97l1.688-3.488a25.071,25.071,0,0,0,6.218-2.588l3.6,1.209a1.725,1.725,0,0,0,1.758-.422l4.881-4.866a1.7,1.7,0,0,0,.408-1.758l-1.2-3.6a25.445,25.445,0,0,0,2.574-6.216l3.5-1.7a1.7,1.7,0,0,0,.956-1.547v-6.891A1.717,1.717,0,0,0,259.607,172.485Zm-2.476,7.355-3.249,1.589a1.745,1.745,0,0,0-.928,1.153,21.891,21.891,0,0,1-2.771,6.68,1.726,1.726,0,0,0-.169,1.463l1.111,3.333-3.362,3.375-3.348-1.125a1.7,1.7,0,0,0-1.449.183,22.5,22.5,0,0,1-6.7,2.771,1.719,1.719,0,0,0-1.154.914l-1.575,3.249H228.8l-1.576-3.249a1.688,1.688,0,0,0-1.153-.914,22.262,22.262,0,0,1-6.682-2.771,1.73,1.73,0,0,0-1.463-.183l-3.334,1.125-3.376-3.375,1.111-3.333a1.677,1.677,0,0,0-.169-1.463,22.253,22.253,0,0,1-2.771-6.68,1.67,1.67,0,0,0-.928-1.153l-3.235-1.589v-4.725l3.235-1.575a1.693,1.693,0,0,0,.928-1.167,22.556,22.556,0,0,1,2.771-6.68,1.652,1.652,0,0,0,.169-1.449l-1.111-3.347,3.376-3.361,3.334,1.111a1.779,1.779,0,0,0,1.463-.169,22.292,22.292,0,0,1,6.682-2.785,1.688,1.688,0,0,0,1.153-.914l1.576-3.249h4.741l1.575,3.249a1.746,1.746,0,0,0,1.154.928,22.126,22.126,0,0,1,6.7,2.77,1.752,1.752,0,0,0,1.449.169l3.348-1.111,3.362,3.361-1.111,3.347a1.7,1.7,0,0,0,.169,1.449,22.184,22.184,0,0,1,2.771,6.68,1.769,1.769,0,0,0,.928,1.167l3.249,1.575Z" transform="translate(-201.777 -148.084)"/><path class="d" d="M216.135,149.712a19.223,19.223,0,0,0-11.531,0,1.747,1.747,0,0,0-1.227,1.67v.942a6.985,6.985,0,1,0,13.971,0v-.942A1.734,1.734,0,0,0,216.135,149.712Zm-5.765,6.108a3.507,3.507,0,0,1-3.482-3.111,15.864,15.864,0,0,1,6.95,0A3.482,3.482,0,0,1,210.37,155.82Z" transform="translate(-180.969 -138.411)"/><path class="d" d="M210.37,150.786a7,7,0,0,0-6.993,6.993v.942a1.748,1.748,0,0,0,1.227,1.67,19.227,19.227,0,0,0,11.531,0,1.735,1.735,0,0,0,1.213-1.67v-.942A6.992,6.992,0,0,0,210.37,150.786Zm0,6.993a15.781,15.781,0,0,1-3.482-.385,3.5,3.5,0,0,1,6.95,0A15.653,15.653,0,0,1,210.37,157.779Z" transform="translate(-180.969 -112.905)"/><path class="d" d="M211.226,149.855l-.8-.471a1.767,1.767,0,0,0-2.069.228,19.2,19.2,0,0,0-5.765,9.989,1.735,1.735,0,0,0,.827,1.884l.814.471a6.988,6.988,0,1,0,6.993-12.1Zm-.471,7.806a3.48,3.48,0,0,1-4.424,1.441,15.826,15.826,0,0,1,3.482-6.008A3.486,3.486,0,0,1,210.755,157.661Z" transform="translate(-191.73 -134.229)"/><path class="d" d="M215.628,151.643l-.814-.471a6.988,6.988,0,0,0-6.992,12.1l.813.471a1.745,1.745,0,0,0,2.055-.228,19.138,19.138,0,0,0,5.78-9.975A1.764,1.764,0,0,0,215.628,151.643Zm-6.393,8.391a3.495,3.495,0,0,1,3.482-6.008A15.363,15.363,0,0,1,209.235,160.034Z" transform="translate(-168.532 -120.112)"/><path class="d" d="M216.47,159.6a19.123,19.123,0,0,0-5.78-9.989,1.745,1.745,0,0,0-2.055-.228l-.813.471a6.988,6.988,0,1,0,6.992,12.1l.814-.471A1.744,1.744,0,0,0,216.47,159.6Zm-8.177-1.941a3.517,3.517,0,0,1,.942-4.567,15.464,15.464,0,0,1,3.482,6.008A3.485,3.485,0,0,1,208.293,157.661Z" transform="translate(-168.532 -134.229)"/><path class="d" d="M213.781,153.726a6.994,6.994,0,0,0-9.547-2.554l-.814.471a1.745,1.745,0,0,0-.827,1.9,19.21,19.21,0,0,0,5.765,9.975,1.767,1.767,0,0,0,2.069.228l.8-.471A6.981,6.981,0,0,0,213.781,153.726Zm-3.967,6.308a15.721,15.721,0,0,1-3.482-6.008,3.495,3.495,0,0,1,3.482,6.008Z" transform="translate(-191.73 -120.112)"/><path class="d" d="M208.751,149.807a5.237,5.237,0,1,0,5.237,5.237A5.253,5.253,0,0,0,208.751,149.807Zm0,6.992a1.748,1.748,0,1,1,1.741-1.755A1.754,1.754,0,0,1,208.751,156.8Z" transform="translate(-179.35 -125.651)"/></g></g><g transform="translate(179.467 1087.056)"><path class="d" d="M201.974,140.625H191.9l-1.6-3.227a4.077,4.077,0,0,0-3.664-2.286H181.5v-5.694h1.364a1.377,1.377,0,0,0,0-2.755H169.222a1.377,1.377,0,0,0,0,2.755h1.364v5.694h-1.364a4.119,4.119,0,0,0-4.092,4.136v1.616a4.131,4.131,0,0,0-2.733,3.893v24.8a4.119,4.119,0,0,0,4.1,4.132h35.481a4.118,4.118,0,0,0,4.092-4.132v-24.8A4.118,4.118,0,0,0,201.974,140.625Zm-28.66-11.207h5.461v5.694h-5.461Zm-5.457,9.83a1.371,1.371,0,0,1,1.364-1.377h17.417a1.357,1.357,0,0,1,1.221.761l.99,1.994H167.858Zm-2.728,9.645h5.457v16.531H165.13Zm38.209,20.668a1.374,1.374,0,0,1-1.364,1.377H166.494a1.374,1.374,0,0,1-1.364-1.377v-1.382h38.209Zm-30.024-4.136V148.893h5.461v16.531Zm8.189,0V148.893h5.461v16.531Zm8.189,0V148.893h5.457v16.531Zm13.646,0h-5.461V148.893h5.461Zm0-19.29H165.13v-1.377a1.374,1.374,0,0,1,1.364-1.377h35.481a1.374,1.374,0,0,1,1.364,1.377Z" transform="translate(-162.397 -126.664)"/></g><g transform="translate(68.613 1194.986)"><g transform="translate(0)"><ellipse class="d" cx="1.978" cy="1.978" rx="1.978" ry="1.978" transform="translate(15.874 31.326)"/><ellipse class="d" cx="1.978" cy="1.978" rx="1.978" ry="1.978" transform="translate(27.679 31.326)"/><ellipse class="d" cx="1.978" cy="1.978" rx="1.978" ry="1.978" transform="translate(39.484 31.326)"/><path class="d" d="M246.616,162.917h-3.938a1.962,1.962,0,0,0-1.39.568l-3.359,3.344h-5.224v-1.96a1.961,1.961,0,0,0-1.969-1.952H220.9V159h1.969a1.961,1.961,0,0,0,1.961-1.96v-5.881H226.8a1.96,1.96,0,1,0,0-3.92H195.312a1.96,1.96,0,1,0,0,3.92h1.969v5.881A1.968,1.968,0,0,0,199.25,159h1.969v3.92h-9.845a1.961,1.961,0,0,0-1.969,1.952v1.96h-4.066v-1.96a1.969,1.969,0,0,0-3.938,0v23.514a1.969,1.969,0,0,0,3.938,0v-1.96h5.224l7.3,7.265a1.969,1.969,0,0,0,1.39.576h31.486a1.968,1.968,0,0,0,1.969-1.96v-1.96h5.224l3.359,3.344a1.969,1.969,0,0,0,1.39.576h3.938a1.968,1.968,0,0,0,1.969-1.96V164.869A1.961,1.961,0,0,0,246.616,162.917Zm-57.211,19.594h-4.066V170.749h4.066Zm11.813-31.355H220.9v3.92H201.219ZM216.962,159v3.92H205.148V159Zm11.805,29.387v1.96H200.061l-6.719-6.689V174.67h35.424Zm0-17.634H193.343v-3.92h35.424Zm8,15.674h-4.066V170.749h4.066Zm7.876,3.921H243.49l-2.781-2.768v-17.97l2.781-2.776h1.157Z" transform="translate(-181.401 -147.235)"/></g></g><g transform="translate(266.806 987.659)"><path class="d" d="M219.685,148.084a9.357,9.357,0,0,0-1.878,18.521v9.65a1.873,1.873,0,0,1-1.863,1.878H199V166.605a9.352,9.352,0,1,0-3.741,0v11.528H176.428V166.605a9.352,9.352,0,1,0-3.741,0v26.8a9.352,9.352,0,1,0,3.741,0V181.874h18.827V193.4a9.352,9.352,0,1,0,3.741,0V181.874h16.949a5.62,5.62,0,0,0,5.6-5.619v-9.65a9.355,9.355,0,0,0-1.863-18.521Zm-39.516,54.48a5.611,5.611,0,1,1-5.6-5.619A5.617,5.617,0,0,1,180.169,202.564Zm-5.6-39.516a5.611,5.611,0,1,1,5.6-5.6A5.62,5.62,0,0,1,174.565,163.048Zm28.172,39.516a5.611,5.611,0,1,1-5.619-5.619A5.62,5.62,0,0,1,202.737,202.564Zm-5.619-39.516a5.611,5.611,0,1,1,5.619-5.6A5.617,5.617,0,0,1,197.118,163.048Zm22.568,0a5.611,5.611,0,1,1,5.6-5.6A5.621,5.621,0,0,1,219.685,163.048Z" transform="translate(-165.205 -148.084)"/></g><g transform="translate(454.249 1189.947)"><g transform="translate(0 0)"><path class="d" d="M247.634,68.572a27.713,27.713,0,1,0,19.6,33.94A27.771,27.771,0,0,0,247.634,68.572Zm-13.5,50.4a24.465,24.465,0,1,1,29.965-17.3A24.491,24.491,0,0,1,234.13,118.972Z" transform="translate(-212.749 -67.627)"/><path class="d" d="M241.315,70.582A20.912,20.912,0,1,0,256.1,96.193,20.938,20.938,0,0,0,241.315,70.582Zm10.933,16.337a4.89,4.89,0,0,0,.782-.563,17.533,17.533,0,0,1,.569,4.274,4.825,4.825,0,0,0-3.229-.388,14.128,14.128,0,0,0-.356-2.68A4.832,4.832,0,0,0,252.248,86.919Zm-3.217-5.573a1.609,1.609,0,0,1,2.1.441c.061.1.12.2.178.307a1.609,1.609,0,1,1-2.277-.747ZM246.78,93.7a11.26,11.26,0,1,1-7.961-13.791A11.275,11.275,0,0,1,246.78,93.7Zm-1.895-18.164a17.558,17.558,0,0,1,3.416,2.63,4.541,4.541,0,0,0-.879.4,4.81,4.81,0,0,0-1.676,1.609,14.27,14.27,0,0,0-2.14-1.647,4.846,4.846,0,0,0,1.279-2.989Zm-4.4-1.842a1.608,1.608,0,1,1-1.971,1.136A1.609,1.609,0,0,1,240.483,73.691Zm-4.732-.6a4.82,4.82,0,0,0-.388,3.226,14.617,14.617,0,0,0-2.677.356,4.861,4.861,0,0,0-1.209-3.016A17.532,17.532,0,0,1,235.751,73.087Zm-8.843,2.47c.1-.061.2-.12.307-.178a1.613,1.613,0,1,1-.307.178Zm-3.623,2.829a4.726,4.726,0,0,0,.4.879,4.816,4.816,0,0,0,1.612,1.673,14.316,14.316,0,0,0-1.65,2.143,4.776,4.776,0,0,0-2.029-1.124,5.03,5.03,0,0,0-.958-.155A17.43,17.43,0,0,1,223.285,78.385ZM218.812,86.2a1.608,1.608,0,1,1,1.136,1.968A1.608,1.608,0,0,1,218.812,86.2Zm.747,8.443a4.741,4.741,0,0,0-.785.563,17.707,17.707,0,0,1-.566-4.274,4.8,4.8,0,0,0,3.226.385A14.4,14.4,0,0,0,221.793,94,4.762,4.762,0,0,0,219.559,94.646Zm3.217,5.573a1.613,1.613,0,0,1-2.1-.441c-.061-.1-.12-.2-.178-.309a1.608,1.608,0,1,1,2.277.75Zm4.146,5.809a17.535,17.535,0,0,1-3.416-2.627,5.118,5.118,0,0,0,.879-.4,4.817,4.817,0,0,0,1.676-1.611,14.286,14.286,0,0,0,2.14,1.649,4.8,4.8,0,0,0-1.121,2.029A4.75,4.75,0,0,0,226.922,106.029Zm4.4,1.845a1.609,1.609,0,1,1,1.971-1.139A1.609,1.609,0,0,1,231.325,107.874Zm4.732.6a4.825,4.825,0,0,0,.388-3.229,14.128,14.128,0,0,0,2.677-.356,4.832,4.832,0,0,0,1.209,3.016A17.7,17.7,0,0,1,236.057,108.478Zm8.843-2.47c-.1.061-.2.12-.309.178a1.608,1.608,0,1,1,.309-.178Zm3.623-2.829a4.738,4.738,0,0,0-.4-.879,4.79,4.79,0,0,0-1.611-1.673,14.457,14.457,0,0,0,1.649-2.143,4.8,4.8,0,0,0,2.029,1.121,4.969,4.969,0,0,0,.958.158A17.431,17.431,0,0,1,248.523,103.179Zm2.5-6.679A1.609,1.609,0,1,1,253,95.361,1.611,1.611,0,0,1,251.025,96.5Z" transform="translate(-208.19 -63.068)"/><path class="d" d="M226.815,75.55a5.017,5.017,0,1,0,3.548,6.144A5.021,5.021,0,0,0,226.815,75.55Zm-1.73,6.462a1.673,1.673,0,1,1,2.049-1.184A1.677,1.677,0,0,1,225.085,82.012Z" transform="translate(-197.804 -52.682)"/></g></g><g transform="translate(553.345 1082.018)"><path class="d" d="M264.9,95.848h-6.036v-1.98a1.965,1.965,0,1,0-3.93,0v1.98H225.278a25.7,25.7,0,1,0,23.75,15.833h5.908v1.98a1.965,1.965,0,1,0,3.93,0v-1.98H264.9a1.968,1.968,0,0,0,1.969-1.98V97.828A1.973,1.973,0,0,0,264.9,95.848Zm-17.843,11.881H225.278a13.825,13.825,0,1,0,9.629,3.952h9.79a21.715,21.715,0,1,1-19.418-11.873h21.781Zm-27.351,15.833c.072.194.153.388.241.574l-2.877,2.9a9.824,9.824,0,0,1-1.439-3.475Zm-4.075-3.96a9.823,9.823,0,0,1,1.439-3.475l2.877,2.893c-.088.194-.169.38-.241.582Zm7.1,7.339a4.553,4.553,0,0,0,.579.234v4.106a9.8,9.8,0,0,1-3.456-1.447Zm0-10.717-2.877-2.893a9.8,9.8,0,0,1,3.456-1.447v4.1A6.2,6.2,0,0,0,222.73,116.223Zm2.548,3.378a1.98,1.98,0,1,1-1.969,1.98A1.978,1.978,0,0,1,225.278,119.6Zm1.969,7.573a4.971,4.971,0,0,0,.571-.234l2.885,2.893a9.859,9.859,0,0,1-3.456,1.447Zm0-11.194v-4.1a9.86,9.86,0,0,1,3.456,1.447l-2.885,2.893C227.633,116.134,227.44,116.053,227.247,115.981Zm3.36,8.147a4.641,4.641,0,0,0,.233-.582h4.083a9.908,9.908,0,0,1-1.439,3.475Zm.233-4.526a5.178,5.178,0,0,0-.233-.582l2.877-2.893a9.972,9.972,0,0,1,1.439,3.475Zm24.1-11.873H251v-7.92h3.938Zm8,0h-4.067v-7.92h4.067Z" transform="translate(-199.687 -91.888)"/></g><g transform="translate(664.199 933.509)"><g transform="translate(0 0)"><ellipse class="d" cx="1.731" cy="1.731" rx="1.731" ry="1.731" transform="translate(35.011 6.955)"/><path class="d" d="M221.019,106.286a8.361,8.361,0,0,0-11.568,3.166,8.775,8.775,0,0,0-.636,7.254l-5.023,3.918-1.956-1.151a5.023,5.023,0,0,0-6.94,1.9l-1.7,3a1.751,1.751,0,0,0,.62,2.363l1.466.864-1.7,3-1.466-.868a1.673,1.673,0,0,0-2.312.634,1.753,1.753,0,0,0,.62,2.367l1.466.864-1.7,3-1.466-.864a1.673,1.673,0,0,0-2.312.634,1.747,1.747,0,0,0,.62,2.363l1.466.868-1.7,3-1.466-.864a1.668,1.668,0,0,0-2.312.63l-1.7,3a5.258,5.258,0,0,0,1.861,7.092l1.858,1.1-1.609,7.431a6.805,6.805,0,0,0-2.64,2.621,7.019,7.019,0,0,0,2.482,9.459,6.706,6.706,0,0,0,9.256-2.536,6.98,6.98,0,0,0,.9-3.643l5.493-5.141,1.857,1.1a5.033,5.033,0,0,0,6.944-1.9l1.691-3a1.753,1.753,0,0,0-.62-2.367l-1.466-.864,1.7-3,1.466.864a1.673,1.673,0,0,0,2.312-.634,1.746,1.746,0,0,0-.617-2.363l-1.47-.868,1.7-3,1.466.864a1.672,1.672,0,0,0,2.316-.634,1.752,1.752,0,0,0-.62-2.363l-1.466-.864,1.691-3,1.466.868a1.679,1.679,0,0,0,2.316-.634l1.691-3a5.262,5.262,0,0,0-1.858-7.1l-1.956-1.155.81-6.406a8.429,8.429,0,0,0,5.829-4.188,8.77,8.77,0,0,0,.846-6.567A8.568,8.568,0,0,0,221.019,106.286Zm-10.433,13.393a8.515,8.515,0,0,0,4.3,2.54l-.581,4.608L206.97,122.5ZM189.616,168.8a3.346,3.346,0,0,1-4.624,1.264,3.5,3.5,0,0,1-1.241-4.729,3.349,3.349,0,0,1,4.628-1.264A3.5,3.5,0,0,1,189.616,168.8Zm2.715-5.557a6.857,6.857,0,0,0-2.26-2.173,6.644,6.644,0,0,0-2.968-.913l1.035-4.79,7.734,4.564Zm12.481-4.031a1.672,1.672,0,0,1-2.312.63l-2.932-1.729h0l-14.67-8.655a1.755,1.755,0,0,1-.62-2.367l.85-1.5L205.662,157.7Zm-.391-6.232-14.67-8.651,1.7-3,14.67,8.655Zm3.387-5.994-14.666-8.655,1.691-3,14.67,8.655Zm3.387-6-14.666-8.655,1.691-3,14.67,8.655Zm7.169-5.763-.846,1.5L196.983,124.6l.846-1.5a1.674,1.674,0,0,1,2.312-.634c2.972,1.753,15.342,9.051,17.6,10.388A1.751,1.751,0,0,1,218.363,135.22Zm2.822-18.845a5.018,5.018,0,0,1-6.94,1.9,5.254,5.254,0,0,1-1.861-7.092,5.022,5.022,0,0,1,6.944-1.9,5.156,5.156,0,0,1,2.367,3.154A5.245,5.245,0,0,1,221.185,116.375Z" transform="translate(-179.91 -105.122)"/></g></g><g transform="translate(351.793 1080.338)"><g transform="translate(0)"><path class="d" d="M259.607,172.485l-3.5-1.7a25.129,25.129,0,0,0-2.574-6.2l1.2-3.6a1.721,1.721,0,0,0-.408-1.772l-4.881-4.866a1.726,1.726,0,0,0-1.758-.422l-3.6,1.21a25.588,25.588,0,0,0-6.218-2.588l-1.688-3.488a1.746,1.746,0,0,0-1.547-.97h-6.893a1.715,1.715,0,0,0-1.548.97l-1.7,3.488a25.823,25.823,0,0,0-6.218,2.588l-3.6-1.21a1.733,1.733,0,0,0-1.758.422l-4.867,4.866a1.727,1.727,0,0,0-.422,1.772l1.2,3.6a25.708,25.708,0,0,0-2.574,6.2l-3.489,1.7a1.73,1.73,0,0,0-.971,1.547v6.891a1.715,1.715,0,0,0,.971,1.547l3.489,1.7a26.037,26.037,0,0,0,2.574,6.216l-1.2,3.6a1.7,1.7,0,0,0,.422,1.758l4.867,4.866a1.732,1.732,0,0,0,1.758.422l3.6-1.209a25.3,25.3,0,0,0,6.218,2.588l1.7,3.488a1.716,1.716,0,0,0,1.548.97h6.893a1.747,1.747,0,0,0,1.547-.97l1.688-3.488a25.071,25.071,0,0,0,6.218-2.588l3.6,1.209a1.725,1.725,0,0,0,1.758-.422l4.881-4.866a1.7,1.7,0,0,0,.408-1.758l-1.2-3.6a25.445,25.445,0,0,0,2.574-6.216l3.5-1.7a1.7,1.7,0,0,0,.956-1.547v-6.891A1.717,1.717,0,0,0,259.607,172.485Zm-2.476,7.355-3.249,1.589a1.745,1.745,0,0,0-.928,1.153,21.891,21.891,0,0,1-2.771,6.68,1.726,1.726,0,0,0-.169,1.463l1.111,3.333-3.362,3.375-3.348-1.125a1.7,1.7,0,0,0-1.449.183,22.5,22.5,0,0,1-6.7,2.771,1.719,1.719,0,0,0-1.154.914l-1.575,3.249H228.8l-1.576-3.249a1.688,1.688,0,0,0-1.153-.914,22.262,22.262,0,0,1-6.682-2.771,1.73,1.73,0,0,0-1.463-.183l-3.334,1.125-3.376-3.375,1.111-3.333a1.677,1.677,0,0,0-.169-1.463,22.253,22.253,0,0,1-2.771-6.68,1.67,1.67,0,0,0-.928-1.153l-3.235-1.589v-4.725l3.235-1.575a1.693,1.693,0,0,0,.928-1.167,22.556,22.556,0,0,1,2.771-6.68,1.652,1.652,0,0,0,.169-1.449l-1.111-3.347,3.376-3.361,3.334,1.111a1.779,1.779,0,0,0,1.463-.169,22.292,22.292,0,0,1,6.682-2.785,1.688,1.688,0,0,0,1.153-.914l1.576-3.249h4.741l1.575,3.249a1.746,1.746,0,0,0,1.154.928,22.126,22.126,0,0,1,6.7,2.77,1.752,1.752,0,0,0,1.449.169l3.348-1.111,3.362,3.361-1.111,3.347a1.7,1.7,0,0,0,.169,1.449,22.184,22.184,0,0,1,2.771,6.68,1.769,1.769,0,0,0,.928,1.167l3.249,1.575Z" transform="translate(-201.777 -148.084)"/><path class="d" d="M216.135,149.712a19.223,19.223,0,0,0-11.531,0,1.747,1.747,0,0,0-1.227,1.67v.942a6.985,6.985,0,1,0,13.971,0v-.942A1.734,1.734,0,0,0,216.135,149.712Zm-5.765,6.108a3.507,3.507,0,0,1-3.482-3.111,15.864,15.864,0,0,1,6.95,0A3.482,3.482,0,0,1,210.37,155.82Z" transform="translate(-180.969 -138.411)"/><path class="d" d="M210.37,150.786a7,7,0,0,0-6.993,6.993v.942a1.748,1.748,0,0,0,1.227,1.67,19.227,19.227,0,0,0,11.531,0,1.735,1.735,0,0,0,1.213-1.67v-.942A6.992,6.992,0,0,0,210.37,150.786Zm0,6.993a15.781,15.781,0,0,1-3.482-.385,3.5,3.5,0,0,1,6.95,0A15.653,15.653,0,0,1,210.37,157.779Z" transform="translate(-180.969 -112.905)"/><path class="d" d="M211.226,149.855l-.8-.471a1.767,1.767,0,0,0-2.069.228,19.2,19.2,0,0,0-5.765,9.989,1.735,1.735,0,0,0,.827,1.884l.814.471a6.988,6.988,0,1,0,6.993-12.1Zm-.471,7.806a3.48,3.48,0,0,1-4.424,1.441,15.826,15.826,0,0,1,3.482-6.008A3.486,3.486,0,0,1,210.755,157.661Z" transform="translate(-191.73 -134.229)"/><path class="d" d="M215.628,151.643l-.814-.471a6.988,6.988,0,0,0-6.992,12.1l.813.471a1.745,1.745,0,0,0,2.055-.228,19.138,19.138,0,0,0,5.78-9.975A1.764,1.764,0,0,0,215.628,151.643Zm-6.393,8.391a3.495,3.495,0,0,1,3.482-6.008A15.363,15.363,0,0,1,209.235,160.034Z" transform="translate(-168.532 -120.112)"/><path class="d" d="M216.47,159.6a19.123,19.123,0,0,0-5.78-9.989,1.745,1.745,0,0,0-2.055-.228l-.813.471a6.988,6.988,0,1,0,6.992,12.1l.814-.471A1.744,1.744,0,0,0,216.47,159.6Zm-8.177-1.941a3.517,3.517,0,0,1,.942-4.567,15.464,15.464,0,0,1,3.482,6.008A3.485,3.485,0,0,1,208.293,157.661Z" transform="translate(-168.532 -134.229)"/><path class="d" d="M213.781,153.726a6.994,6.994,0,0,0-9.547-2.554l-.814.471a1.745,1.745,0,0,0-.827,1.9,19.21,19.21,0,0,0,5.765,9.975,1.767,1.767,0,0,0,2.069.228l.8-.471A6.981,6.981,0,0,0,213.781,153.726Zm-3.967,6.308a15.721,15.721,0,0,1-3.482-6.008,3.495,3.495,0,0,1,3.482,6.008Z" transform="translate(-191.73 -120.112)"/><path class="d" d="M208.751,149.807a5.237,5.237,0,1,0,5.237,5.237A5.253,5.253,0,0,0,208.751,149.807Zm0,6.992a1.748,1.748,0,1,1,1.741-1.755A1.754,1.754,0,0,1,208.751,156.8Z" transform="translate(-179.35 -125.651)"/></g></g><g transform="translate(131.661 1415.045)"><path class="d" d="M264.9,95.848h-6.036v-1.98a1.965,1.965,0,1,0-3.93,0v1.98H225.278a25.7,25.7,0,1,0,23.75,15.833h5.908v1.98a1.965,1.965,0,1,0,3.93,0v-1.98H264.9a1.968,1.968,0,0,0,1.969-1.98V97.828A1.973,1.973,0,0,0,264.9,95.848Zm-17.843,11.881H225.278a13.825,13.825,0,1,0,9.629,3.952h9.79a21.715,21.715,0,1,1-19.418-11.873h21.781Zm-27.351,15.833c.072.194.153.388.241.574l-2.877,2.9a9.824,9.824,0,0,1-1.439-3.475Zm-4.075-3.96a9.823,9.823,0,0,1,1.439-3.475l2.877,2.893c-.088.194-.169.38-.241.582Zm7.1,7.339a4.553,4.553,0,0,0,.579.234v4.106a9.8,9.8,0,0,1-3.456-1.447Zm0-10.717-2.877-2.893a9.8,9.8,0,0,1,3.456-1.447v4.1A6.2,6.2,0,0,0,222.73,116.223Zm2.548,3.378a1.98,1.98,0,1,1-1.969,1.98A1.978,1.978,0,0,1,225.278,119.6Zm1.969,7.573a4.971,4.971,0,0,0,.571-.234l2.885,2.893a9.859,9.859,0,0,1-3.456,1.447Zm0-11.194v-4.1a9.86,9.86,0,0,1,3.456,1.447l-2.885,2.893C227.633,116.134,227.44,116.053,227.247,115.981Zm3.36,8.147a4.641,4.641,0,0,0,.233-.582h4.083a9.908,9.908,0,0,1-1.439,3.475Zm.233-4.526a5.178,5.178,0,0,0-.233-.582l2.877-2.893a9.972,9.972,0,0,1,1.439,3.475Zm24.1-11.873H251v-7.92h3.938Zm8,0h-4.067v-7.92h4.067Z" transform="translate(-199.687 -91.888)"/></g><g transform="translate(242.515 1266.537)"><g transform="translate(0 0)"><ellipse class="d" cx="1.731" cy="1.731" rx="1.731" ry="1.731" transform="translate(35.011 6.955)"/><path class="d" d="M221.019,106.286a8.361,8.361,0,0,0-11.568,3.166,8.775,8.775,0,0,0-.636,7.254l-5.023,3.918-1.956-1.151a5.023,5.023,0,0,0-6.94,1.9l-1.7,3a1.751,1.751,0,0,0,.62,2.363l1.466.864-1.7,3-1.466-.868a1.673,1.673,0,0,0-2.312.634,1.753,1.753,0,0,0,.62,2.367l1.466.864-1.7,3-1.466-.864a1.673,1.673,0,0,0-2.312.634,1.747,1.747,0,0,0,.62,2.363l1.466.868-1.7,3-1.466-.864a1.668,1.668,0,0,0-2.312.63l-1.7,3a5.258,5.258,0,0,0,1.861,7.092l1.858,1.1-1.609,7.431a6.805,6.805,0,0,0-2.64,2.621,7.019,7.019,0,0,0,2.482,9.459,6.706,6.706,0,0,0,9.256-2.536,6.98,6.98,0,0,0,.9-3.643l5.493-5.141,1.857,1.1a5.033,5.033,0,0,0,6.944-1.9l1.691-3a1.753,1.753,0,0,0-.62-2.367l-1.466-.864,1.7-3,1.466.864a1.673,1.673,0,0,0,2.312-.634,1.746,1.746,0,0,0-.617-2.363l-1.47-.868,1.7-3,1.466.864a1.672,1.672,0,0,0,2.316-.634,1.752,1.752,0,0,0-.62-2.363l-1.466-.864,1.691-3,1.466.868a1.679,1.679,0,0,0,2.316-.634l1.691-3a5.262,5.262,0,0,0-1.858-7.1l-1.956-1.155.81-6.406a8.429,8.429,0,0,0,5.829-4.188,8.77,8.77,0,0,0,.846-6.567A8.568,8.568,0,0,0,221.019,106.286Zm-10.433,13.393a8.515,8.515,0,0,0,4.3,2.54l-.581,4.608L206.97,122.5ZM189.616,168.8a3.346,3.346,0,0,1-4.624,1.264,3.5,3.5,0,0,1-1.241-4.729,3.349,3.349,0,0,1,4.628-1.264A3.5,3.5,0,0,1,189.616,168.8Zm2.715-5.557a6.857,6.857,0,0,0-2.26-2.173,6.644,6.644,0,0,0-2.968-.913l1.035-4.79,7.734,4.564Zm12.481-4.031a1.672,1.672,0,0,1-2.312.63l-2.932-1.729h0l-14.67-8.655a1.755,1.755,0,0,1-.62-2.367l.85-1.5L205.662,157.7Zm-.391-6.232-14.67-8.651,1.7-3,14.67,8.655Zm3.387-5.994-14.666-8.655,1.691-3,14.67,8.655Zm3.387-6-14.666-8.655,1.691-3,14.67,8.655Zm7.169-5.763-.846,1.5L196.983,124.6l.846-1.5a1.674,1.674,0,0,1,2.312-.634c2.972,1.753,15.342,9.051,17.6,10.388A1.751,1.751,0,0,1,218.363,135.22Zm2.822-18.845a5.018,5.018,0,0,1-6.94,1.9,5.254,5.254,0,0,1-1.861-7.092,5.022,5.022,0,0,1,6.944-1.9,5.156,5.156,0,0,1,2.367,3.154A5.245,5.245,0,0,1,221.185,116.375Z" transform="translate(-179.91 -105.122)"/></g></g><g transform="translate(541.483 1420.084)"><path class="d" d="M201.974,140.625H191.9l-1.6-3.227a4.077,4.077,0,0,0-3.664-2.286H181.5v-5.694h1.364a1.377,1.377,0,0,0,0-2.755H169.222a1.377,1.377,0,0,0,0,2.755h1.364v5.694h-1.364a4.119,4.119,0,0,0-4.092,4.136v1.616a4.131,4.131,0,0,0-2.733,3.893v24.8a4.119,4.119,0,0,0,4.1,4.132h35.481a4.118,4.118,0,0,0,4.092-4.132v-24.8A4.118,4.118,0,0,0,201.974,140.625Zm-28.66-11.207h5.461v5.694h-5.461Zm-5.457,9.83a1.371,1.371,0,0,1,1.364-1.377h17.417a1.357,1.357,0,0,1,1.221.761l.99,1.994H167.858Zm-2.728,9.645h5.457v16.531H165.13Zm38.209,20.668a1.374,1.374,0,0,1-1.364,1.377H166.494a1.374,1.374,0,0,1-1.364-1.377v-1.382h38.209Zm-30.024-4.136V148.893h5.461v16.531Zm8.189,0V148.893h5.461v16.531Zm8.189,0V148.893h5.457v16.531Zm13.646,0h-5.461V148.893h5.461Zm0-19.29H165.13v-1.377a1.374,1.374,0,0,1,1.364-1.377h35.481a1.374,1.374,0,0,1,1.364,1.377Z" transform="translate(-162.397 -126.664)"/></g><g class="e" transform="translate(331.533 1416.725)"><g transform="translate(0 0)"><path class="d" d="M245.29,151.832a1.648,1.648,0,0,0-1.375-1.421L227.494,148l-1.749-6.737a4.951,4.951,0,0,0-2.263-3.045l-5.849-3.492,1.62-2.9,4.206,2.511a1.594,1.594,0,0,0,2.213-.613,1.7,1.7,0,0,0-.594-2.286l-11.219-6.692a1.592,1.592,0,0,0-2.213.613,1.705,1.705,0,0,0,.594,2.286l4.206,2.508-1.619,2.9-6.784-4.044-3.642-4.242a4.769,4.769,0,0,0-7.842.82l-1.443,2.584a5.147,5.147,0,0,0,.57,5.842l4.473,5.21-4.273,7.648a5.114,5.114,0,0,0,1.778,6.856l18.19,10.848a4.719,4.719,0,0,0,4.435.225l24.06-11.207A1.683,1.683,0,0,0,245.29,151.832Zm-47.179-20.045a1.71,1.71,0,0,1-.191-1.946l1.443-2.584a1.594,1.594,0,0,1,2.616-.273l3.039,3.54-3.151,5.641Zm20.844,29.962a1.573,1.573,0,0,1-1.481-.073l-18.19-10.852a1.7,1.7,0,0,1-.594-2.283l.808-1.448,22.332,13.317Zm6.513-3.033-24.351-14.522c.782-1.4,6.34-11.343,6.478-11.589,1.47.874,12.629,7.53,14.267,8.507a1.65,1.65,0,0,1,.755,1.017l2.022,7.8a1.635,1.635,0,0,0,1.337,1.224l11.957,1.758Z" transform="translate(-194.463 -123.072)"/><path class="d" d="M221.451,144.313l-4.384-9.264a1.673,1.673,0,0,0-3.024,0l-4.387,9.264a6.693,6.693,0,1,0,11.8,0Zm-5.9,6.51a3.348,3.348,0,0,1-3.346-3.346,3.3,3.3,0,0,1,.407-1.6l.046-.088,2.894-6.112,2.894,6.112.042.088a3.272,3.272,0,0,1,.41,1.6A3.35,3.35,0,0,1,215.555,150.823Z" transform="translate(-166.82 -102.101)"/></g></g><g transform="translate(628.823 1320.687)"><path class="d" d="M219.685,148.084a9.357,9.357,0,0,0-1.878,18.521v9.65a1.873,1.873,0,0,1-1.863,1.878H199V166.605a9.352,9.352,0,1,0-3.741,0v11.528H176.428V166.605a9.352,9.352,0,1,0-3.741,0v26.8a9.352,9.352,0,1,0,3.741,0V181.874h18.827V193.4a9.352,9.352,0,1,0,3.741,0V181.874h16.949a5.62,5.62,0,0,0,5.6-5.619v-9.65a9.355,9.355,0,0,0-1.863-18.521Zm-39.516,54.48a5.611,5.611,0,1,1-5.6-5.619A5.617,5.617,0,0,1,180.169,202.564Zm-5.6-39.516a5.611,5.611,0,1,1,5.6-5.6A5.62,5.62,0,0,1,174.565,163.048Zm28.172,39.516a5.611,5.611,0,1,1-5.619-5.619A5.62,5.62,0,0,1,202.737,202.564Zm-5.619-39.516a5.611,5.611,0,1,1,5.619-5.6A5.617,5.617,0,0,1,197.118,163.048Zm22.568,0a5.611,5.611,0,1,1,5.6-5.6A5.621,5.621,0,0,1,219.685,163.048Z" transform="translate(-165.205 -148.084)"/></g></g></g></svg>