<svg xmlns="http://www.w3.org/2000/svg" width="40" height="40" viewBox="0 0 40 40"><defs><style>.a{fill:none;}.b{fill:#f2421b;}</style></defs><g transform="translate(-3418 -1249)"><rect class="a" width="40" height="40" transform="translate(3418 1249)"/><g transform="translate(3421.333 1254)"><g transform="translate(0 0)"><path class="b" d="M30.059,16.417l-.616,11.428A1.523,1.523,0,0,1,28.91,28.9a1.459,1.459,0,0,1-1.133.329l-22-1.053a1.853,1.853,0,0,1-1.1-.461A1.181,1.181,0,0,1,4.31,26.66l.133-3.027-1,.066a1.321,1.321,0,0,1-1.033-.3,1.348,1.348,0,0,1-.5-.888L.51,6.985a1.184,1.184,0,0,1,.3-.954,1.428,1.428,0,0,1,.967-.494L17.93,4.245a8.683,8.683,0,0,0-.617,2.025L3.177,7.446q-.667,0-.667.592V8.1L3.577,19.817l1.2-1.645.467-8.817a1.656,1.656,0,0,1,.5-1.02,1.5,1.5,0,0,1,1.1-.428l10.333.512a9.219,9.219,0,0,0,.359,2.2L8.043,10.21a.723.723,0,0,0-.8.592v.066l-.2,4.146-.467,8.423V23.9l.4-.461,6.8-7.172a1.287,1.287,0,0,1,.933-.395,1.086,1.086,0,0,1,.933.461l2.867,3.224.2.2a.911.911,0,0,0,.667.263,1.549,1.549,0,0,0,.6-.2l1.133-.79a1.157,1.157,0,0,1,.733-.263.787.787,0,0,1,.733.329l1.8,2.171,3.133,3.619.4-7.837a8.711,8.711,0,0,0,2.149-.63ZM21.082,2.691a7.458,7.458,0,0,1,10.56,0,7.2,7.2,0,0,1,2.191,5.28,7.2,7.2,0,0,1-2.191,5.28,7.458,7.458,0,0,1-10.56,0,7.2,7.2,0,0,1-2.191-5.28A7.2,7.2,0,0,1,21.082,2.691Zm9.124,6.034V7.217H27.116V4.128H25.608V7.217H22.519V8.726h3.089v3.089h1.509V8.726Z" transform="translate(-0.5 -0.5)"/></g></g></g></svg>