<svg xmlns="http://www.w3.org/2000/svg" width="40" height="40" viewBox="0 0 40 40"><defs><style>.a{fill:#f3f8ff;}.b{fill:#b8c5d3;}</style></defs><g transform="translate(-125 -1059)"><circle class="a" cx="20" cy="20" r="20" transform="translate(125 1059)"/><path class="b" d="M410.865,367.1a4.5,4.5,0,0,0-2.739,0l-2.935-2.935,5.33-5.33,1.109.079h.029a.511.511,0,0,0,.432-.245l1.767-3.18a.491.491,0,0,0-.088-.589l-1.021-1.021a.492.492,0,0,0-.589-.088l-3.18,1.767a.48.48,0,0,0-.245.461l.069,1.109-5.32,5.32-2.935-2.925a4.419,4.419,0,0,0-5.585-5.556.01.01,0,0,0-.01.01c-.02,0-.029.01-.049.02s-.029.01-.039.02a35289908965.04,35289908965.04,0,0,1-.079.059.03.03,0,0,0-.02.01c0,.01,0,.02-.01.02s-.029.029-.039.039-.01.029-.02.039-.02.029-.02.049a.074.074,0,0,0-.02.039c-.01.01-.01.029-.02.039v.049c-.01.01,0,.029,0,.049v.049a.03.03,0,0,0,0,.039.124.124,0,0,0,.01.059v.029a.01.01,0,0,0,.01.01c0,.02.01.029.02.049a.074.074,0,0,0,.02.039.051.051,0,0,1,.02.039c.01.01.029.02.039.039l.01.01,1.659,1.669a.7.7,0,0,1,0,.991l-.825.834a.718.718,0,0,1-.991,0l-1.669-1.669a.01.01,0,0,1-.01-.01c-.01-.02-.029-.029-.039-.039a.135.135,0,0,0-.039-.029.074.074,0,0,1-.039-.02c-.02-.01-.029-.01-.049-.02a.01.01,0,0,1-.01-.01.018.018,0,0,1-.029,0l-.049-.01h-.137c-.01,0-.039.01-.049.01s-.029,0-.039.01a.165.165,0,0,1-.049.02c-.02.01-.029.02-.039.02s-.029.02-.049.029l-.029.029c-.02.02-.02.02-.029.02s0,.01-.01.02l-.029.029a.131.131,0,0,0-.029.049c-.01.01-.01.02-.02.039a.075.075,0,0,0-.02.049v.01a4.392,4.392,0,0,0,2.8,5.566,4.318,4.318,0,0,0,2.749.01l1.806,1.806a1.358,1.358,0,0,0-.844.393l-5.939,5.939a2.091,2.091,0,0,0,0,2.955l1.472,1.472a2.091,2.091,0,0,0,2.955,0l5.939-5.939a1.358,1.358,0,0,0,.393-.844l1.806,1.8a4.418,4.418,0,0,0,2.847,5.566,4.467,4.467,0,0,0,2.729,0c.01,0,.01-.01.02-.01s.029-.01.039-.02.029-.01.039-.02a.136.136,0,0,0,.039-.029.077.077,0,0,0,.039-.039h.02c0-.01.01-.02.01-.029a.076.076,0,0,0,.039-.039.051.051,0,0,0,.02-.039.136.136,0,0,0,.029-.039.074.074,0,0,1,.02-.039.088.088,0,0,1,.01-.049.428.428,0,0,0,.01-.049v-.137a.1.1,0,0,0-.02-.049.018.018,0,0,0,0-.029v-.01a.214.214,0,0,0-.029-.049.075.075,0,0,0-.02-.039.051.051,0,0,0-.02-.039c-.01-.02-.029-.029-.039-.039a.03.03,0,0,0-.01-.02l-1.659-1.669a.687.687,0,0,1,0-.982l.834-.834a.7.7,0,0,1,.991,0l1.669,1.659v.01a.172.172,0,0,0,.049.039l.029.02c.02.01.029.02.049.02l.049.029h.029a.457.457,0,0,0,.265,0l.02-.01a.3.3,0,0,0,.128-.059l.01-.01a.118.118,0,0,0,.049-.049.077.077,0,0,0,.039-.039l.02-.02c.02-.039.039-.079.059-.128a4.436,4.436,0,0,0-2.817-5.576Zm-7.784-.756-.314.314-.569-.56a.484.484,0,0,0-.687.039.5.5,0,0,0,0,.658l.589.589.294.294a.444.444,0,0,1,0,.618l-5.939,5.929a1.093,1.093,0,0,1-1.561.01c-.01,0-.01,0-.01-.01l-1.472-1.472a1.114,1.114,0,0,1,0-1.571l5.939-5.929a.444.444,0,0,1,.618,0l.393.393a.488.488,0,0,0,.687-.1.5.5,0,0,0,0-.589l-.079-.069.324-.324a.344.344,0,0,1,.491,0l1.3,1.3A.35.35,0,0,1,403.081,366.344Zm.206-1.659-.324-.324,6.695-6.7v-.01a.26.26,0,0,0,.049-.059c.01,0,.01-.01.02-.02a.139.139,0,0,0,.02-.059c.01-.01.02-.02.02-.029s.01-.029.02-.049,0-.029.01-.039v-.118l-.069-1.011,2.582-1.433.5.5-1.433,2.582-1-.069h-.128c-.02,0-.02.01-.029.01a.139.139,0,0,0-.059.02l-.02.01c-.02.01-.049.02-.069.029l-.01.01-.069.049Z" transform="translate(-257.92 714.272)"/></g></svg>