<svg xmlns="http://www.w3.org/2000/svg" width="18" height="18" viewBox="0 0 18 18"><defs><style>.a{fill:none;}.b{fill:#f2cf3c;}</style></defs><rect class="a" width="18" height="18"/><path class="b" d="M20.957,19.619a1.182,1.182,0,0,0-.34,1.048l.686,4a.454.454,0,0,1-.659.477l-3.593-1.888a1.174,1.174,0,0,0-1.1,0l-3.593,1.888a.454.454,0,0,1-.659-.477l.686-4a1.182,1.182,0,0,0-.34-1.048L9.138,16.786a.443.443,0,0,1-.113-.465.437.437,0,0,1,.366-.307l4.015-.585a1.182,1.182,0,0,0,.893-.648l1.8-3.639a.453.453,0,0,1,.812,0l1.8,3.639a1.182,1.182,0,0,0,.893.648l4.015.585a.437.437,0,0,1,.366.307.443.443,0,0,1-.113.465Z" transform="translate(-7.501 -9.39)"/></svg>