<svg xmlns="http://www.w3.org/2000/svg" width="20" height="20" viewBox="0 0 20 20"><defs><style>.a{fill:none;}.b{fill:#818e94;}</style></defs><g transform="translate(-261 -373)"><rect class="a" width="20" height="20" transform="translate(261 373)"/><path class="b" d="M14.115,12.145l-3.287-3.3a5.256,5.256,0,0,0,1.308-3.461A5.488,5.488,0,0,0,6.56,0,5.488,5.488,0,0,0,.984,5.383,5.488,5.488,0,0,0,6.56,10.767a5.653,5.653,0,0,0,3.195-.974l3.312,3.325a.746.746,0,0,0,1.028.019A.686.686,0,0,0,14.115,12.145ZM6.56,1.4a4.057,4.057,0,0,1,4.121,3.979A4.057,4.057,0,0,1,6.56,9.362,4.057,4.057,0,0,1,2.439,5.383,4.057,4.057,0,0,1,6.56,1.4Z" transform="translate(263.349 376.333)"/></g></svg>