<svg xmlns="http://www.w3.org/2000/svg" width="24" height="24" viewBox="0 0 24 24"><defs><style>.a{fill:#f2421b;}.b{fill:#fff;fill-rule:evenodd;}</style></defs><rect class="a" width="24" height="24" rx="3"/><g transform="translate(3 4)"><path class="b" d="M61.094,67.228a4.163,4.163,0,0,1,1.564.618l.557-.531,1.05,1-.557.531a3.767,3.767,0,0,1,.648,1.49h.787v1.415h-.787a3.771,3.771,0,0,1-.648,1.49l.557.531-1.05,1-.557-.531a4.171,4.171,0,0,1-1.564.618v.751H59.609V74.86a4.148,4.148,0,0,1-1.564-.618l-.557.531-1.049-1L57,73.241a3.765,3.765,0,0,1-.648-1.49H55.56V70.336h.787A3.764,3.764,0,0,1,57,68.846l-.557-.531,1.049-1,.558.531a4.155,4.155,0,0,1,1.563-.618v-.751h1.485Zm2.352-8.338,2.5.637L67.26,61.7l-.669,2.379,3.388,5.593,2.23.57,1.351,2.229-.6,2.128L70.623,75.89l-2.233-.57L67.04,73.09l.6-2.126-3.388-5.593-2.5-.637-1.318-2.177.669-2.379,1.36,2.245a.892.892,0,0,0,1.183.3l.842-.464a.806.806,0,0,0,.317-1.127l-1.36-2.245ZM69.5,71.468a1.636,1.636,0,0,1,2.175.556A1.479,1.479,0,0,1,71.1,74.1a1.635,1.635,0,0,1-2.175-.555A1.479,1.479,0,0,1,69.5,71.468Zm-9.152-1.831a1.408,1.408,0,1,1-1.475,1.406A1.442,1.442,0,0,1,60.351,69.638Zm0-.77a2.178,2.178,0,1,1-2.283,2.176A2.231,2.231,0,0,1,60.351,68.868Z" transform="translate(-55.56 -58.89)"/></g></svg>