<svg xmlns="http://www.w3.org/2000/svg" width="24" height="24" viewBox="0 0 24 24"><defs><style>.a{fill:none;}.b{fill:#464646;}</style></defs><g transform="translate(-1164 -295)"><rect class="a" width="24" height="24" transform="translate(1164 295)"/><g transform="translate(1165 296)"><path class="b" d="M9.2,19.1a.9.9,0,0,1-.9.9H2.9a.9.9,0,0,1,0-1.8H8.3A.9.9,0,0,1,9.2,19.1ZM2.9,3.8H13.7a.9.9,0,1,0,0-1.8H2.9a.9.9,0,0,0,0,1.8Zm7.2,9H2.9a.9.9,0,0,0,0,1.8h7.2a.9.9,0,0,0,0-1.8Zm9.636,2.96a.9.9,0,0,0-1.278,0L17.3,16.927V2.9a.9.9,0,0,0-1.8,0V16.927l-1.161-1.17a.9.9,0,1,0-1.278,1.278l2.7,2.7a.9.9,0,0,0,1.278,0l2.7-2.7a.9.9,0,0,0,0-1.278ZM11.9,7.4h-9a.9.9,0,1,0,0,1.8h9a.9.9,0,1,0,0-1.8Z"/></g></g></svg>