<svg xmlns="http://www.w3.org/2000/svg" xmlns:xlink="http://www.w3.org/1999/xlink" width="24" height="24" viewBox="0 0 24 24"><defs><style>.a{fill:#f2421b;}.b{clip-path:url(#a);}</style><clipPath id="a"><rect class="a" width="24" height="24"/></clipPath></defs><g class="b"><path class="a" d="M21.5,16.247v4.5a.75.75,0,0,1-.75.75H3.252a.749.749,0,0,1-.75-.75v-4.5H4V19.5a.5.5,0,0,0,.5.5h15a.5.5,0,0,0,.5-.5v-3.25Z"/><path class="a" d="M16.812,7.007l-1.06,1.06L13.6,5.917a.5.5,0,0,0-.85.35v10.24h-1.5V6.267a.5.5,0,0,0-.31-.46.531.531,0,0,0-.55.11l-2.14,2.15-1.06-1.06,4.28-4.29a.745.745,0,0,1,1.06.01Z"/></g></svg>