<svg xmlns="http://www.w3.org/2000/svg" width="40" height="40" viewBox="0 0 40 40"><defs><style>.a{fill:#f3f8ff;}.b{fill:#b8c5d3;}</style></defs><g transform="translate(-125 -1059)"><circle class="a" cx="20" cy="20" r="20" transform="translate(125 1059)"/><path class="b" d="M25.557,14.687A4.85,4.85,0,0,0,30.367,9.77,4.879,4.879,0,0,0,25.557,4.8a4.944,4.944,0,1,0,0,9.887Zm-3.03,1.488A5.92,5.92,0,0,0,16.6,22.049V25c.027,3.269,3.429,3.8,8.93,3.8,5.4,0,8.771-.532,8.771-3.8v-2.95a5.84,5.84,0,0,0-5.874-5.874Z" transform="translate(119.4 1062.2)"/></g></svg>