<?xml version="1.0" encoding="utf-8"?>
<!-- Generator: Adobe Illustrator 24.0.0, SVG Export Plug-In . SVG Version: 6.00 Build 0)  -->
<svg version="1.1" id="Layer_1" xmlns="http://www.w3.org/2000/svg" xmlns:xlink="http://www.w3.org/1999/xlink" x="0px" y="0px"
	 viewBox="0 0 128 128" style="enable-background:new 0 0 128 128;" xml:space="preserve">
<style type="text/css">
	.st0{fill:#E6E7E8;}
	.st1{fill:#6DC9F7;}
	.st2{fill:#D4FBFF;}
	.st3{fill:#FFD7E5;}
	.st4{fill:#FFFFFF;}
	.st5{fill: #FF0000;}
	.st6{fill:#0089EF;}
	.st7{fill:#3A2C60;}
</style>
<g>
	<path class="st0" d="M75.26,75.351c0.784-1.352,1.608-2.748,2.508-4.22c1.738-2.844,4.116-5.409,7.067-7.625
		c7.981-5.994,12.559-15.146,12.559-25.11c0-8.681-3.645-17.055-9.999-22.975c-6.443-6.003-14.861-8.972-23.682-8.338
		c-15.81,1.119-28.308,13.914-29.071,29.761C34.14,47.255,38.809,57.212,47.13,63.48c2.984,2.248,5.454,4.955,7.343,8.047
		c0.812,1.329,1.558,2.592,2.273,3.822C47.14,79.072,40.308,88.405,40.308,99.31c0,14.166,11.525,25.691,25.691,25.691
		s25.691-11.525,25.691-25.691C91.691,88.407,84.862,79.076,75.26,75.351z"/>
	<g>
		<circle class="st6" cx="62" cy="95.309" r="24.692"/>
		<path class="st4" d="M73.939,92.054h-8.683V83.37c0-1.798-1.458-3.256-3.256-3.256c-1.798,0-3.256,1.458-3.256,3.256v8.684h-8.683
			c-1.798,0-3.256,1.458-3.256,3.256c0,1.798,1.458,3.256,3.256,3.256h8.683v8.683c0,1.798,1.458,3.256,3.256,3.256
			c1.798,0,3.256-1.458,3.256-3.256v-8.683h8.683c1.798,0,3.256-1.458,3.256-3.256C77.195,93.512,75.737,92.054,73.939,92.054z"/>
		<path class="st5" d="M92.394,34.396c0-17.519-14.822-31.576-32.61-30.316C44.566,5.158,32.376,17.654,31.642,32.892
			c-0.508,10.538,4.357,19.964,12.089,25.788c3.026,2.279,5.62,5.092,7.595,8.325c4.626,7.572,7.656,13.622,9.267,17.068
			c0.559,1.197,2.257,1.198,2.818,0.002c1.64-3.498,4.745-9.686,9.503-17.465c1.891-3.092,4.422-5.727,7.32-7.904
			C87.617,53.162,92.394,44.339,92.394,34.396z"/>
		<circle class="st3" cx="62" cy="34.396" r="17.634"/>
		<path class="st4" d="M62,19.761c9.233,0,16.796,7.099,17.558,16.134c0.042-0.496,0.076-0.994,0.076-1.5
			c0-9.739-7.895-17.634-17.634-17.634s-17.634,7.895-17.634,17.634c0,0.506,0.034,1.004,0.076,1.5
			C45.204,26.86,52.767,19.761,62,19.761z"/>
		<g>
			<path class="st7" d="M80.078,110.623c-1.55,1.828-3.361,3.407-5.384,4.693c-0.466,0.296-0.604,0.914-0.307,1.381
				c0.19,0.299,0.514,0.463,0.845,0.463c0.184,0,0.369-0.051,0.536-0.156c2.191-1.394,4.154-3.105,5.835-5.088
				c0.357-0.421,0.306-1.052-0.116-1.409C81.065,110.149,80.433,110.203,80.078,110.623z"/>
			<path class="st7" d="M71.249,71.368c0.787-1.357,1.615-2.759,2.519-4.237c1.738-2.843,4.116-5.408,7.066-7.625
				c7.981-5.994,12.56-15.146,12.56-25.11c0-8.681-3.645-17.055-9.999-22.975c-6.444-6.003-14.858-8.974-23.682-8.338
				c-15.81,1.119-28.308,13.914-29.071,29.761C30.14,43.255,34.809,53.212,43.13,59.48c2.984,2.248,5.454,4.955,7.343,8.047
				c0.816,1.336,1.565,2.604,2.283,3.84c-9.606,3.722-16.447,13.038-16.447,23.944c0,14.166,11.525,25.691,25.691,25.691
				c3.522,0,6.936-0.7,10.146-2.081c0.507-0.219,0.741-0.807,0.523-1.314c-0.22-0.508-0.811-0.737-1.314-0.523
				c-2.958,1.273-6.105,1.919-9.354,1.919c-13.063,0-23.691-10.628-23.691-23.691c0-10.167,6.446-18.837,15.457-22.192
				c2.72,4.792,4.667,8.695,5.921,11.378c0.426,0.909,1.313,1.475,2.314,1.475c0.001,0,0.001,0,0.002,0
				c1.002,0,1.888-0.564,2.313-1.472c1.264-2.696,3.218-6.598,5.926-11.378c9.007,3.357,15.449,12.025,15.449,22.189
				c0,4.336-1.182,8.577-3.418,12.266c-0.286,0.473-0.135,1.088,0.337,1.374c0.472,0.284,1.087,0.136,1.374-0.337
				c2.425-4.001,3.707-8.602,3.707-13.303C87.691,84.406,80.853,75.092,71.249,71.368z M62.506,83.651
				c-0.136,0.289-0.397,0.32-0.503,0.32h-0.001c-0.105,0-0.367-0.031-0.503-0.321c-1.734-3.712-4.759-9.702-9.319-17.166
				c-2.021-3.307-4.66-6.201-7.847-8.602C36.542,52.014,32.171,42.69,32.64,32.94C33.355,18.105,45.055,6.126,59.854,5.077
				c0.728-0.051,1.449-0.076,2.169-0.076c7.469,0,14.507,2.757,20.009,7.883c5.95,5.543,9.362,13.384,9.362,21.512
				c0,9.329-4.286,17.898-11.761,23.511c-3.153,2.369-5.701,5.122-7.571,8.182C67.389,73.725,64.286,79.854,62.506,83.651z"/>
			<path class="st7" d="M80.634,34.396c0-10.275-8.359-18.635-18.634-18.635S43.366,24.12,43.366,34.396
				C43.366,44.67,51.725,53.03,62,53.03S80.634,44.67,80.634,34.396z M62,51.03c-9.172,0-16.634-7.462-16.634-16.634
				c0-9.173,7.462-16.635,16.634-16.635s16.634,7.462,16.634,16.635C78.634,43.568,71.172,51.03,62,51.03z"/>
		</g>
	</g>
</g>
</svg>
