<svg xmlns="http://www.w3.org/2000/svg" width="32" height="32" viewBox="0 0 32 32"><defs><style>.a{fill:none;}.b{fill:#fff;}</style></defs><rect class="a" width="32" height="32"/><g transform="translate(2.667 6.667)"><path class="b" d="M20.921,27.919a1.91,1.91,0,0,0,1.409-.608l2.081,1.152a2.471,2.471,0,0,0-.064.48,1.921,1.921,0,1,0,3.842,0,1.957,1.957,0,0,0-.32-1.056l2.849-3.169a2.061,2.061,0,0,0,.9.224,1.776,1.776,0,0,0,.9-.224l2.849,3.169a2.045,2.045,0,0,0-.32,1.056,1.921,1.921,0,1,0,1.921-1.921,1.776,1.776,0,0,0-.9.224l-2.849-3.169a2.045,2.045,0,0,0,.32-1.056,1.921,1.921,0,1,0-3.842,0,1.957,1.957,0,0,0,.32,1.056l-2.849,3.169a2.061,2.061,0,0,0-.9-.224,1.91,1.91,0,0,0-1.409.608l-2.081-1.152a2.471,2.471,0,0,0,.064-.48,1.921,1.921,0,1,0-1.921,1.921Zm16.967,1.024a.963.963,0,0,1-.96.96.985.985,0,0,1-.96-.96.963.963,0,0,1,.96-.96A.985.985,0,0,1,37.888,28.943Zm-6.307-6.915a.96.96,0,0,1,0,1.921.96.96,0,0,1,0-1.921Zm-5.314,5.954a.96.96,0,1,1,0,1.921.985.985,0,0,1-.96-.96A.943.943,0,0,1,26.267,27.983Zm-5.346-2.977a.96.96,0,0,1,0,1.921.985.985,0,0,1-.96-.96A.963.963,0,0,1,20.921,25.006Z" transform="translate(-15.575 -21.1)"/><path class="b" d="M8.78,76.96H34.486a.492.492,0,0,0,.48-.48.465.465,0,0,0-.448-.48H8.78a.48.48,0,1,0,0,.96Z" transform="translate(-8.3 -58.425)"/><path class="b" d="M18.98,57.763h3.2a.492.492,0,0,0,.48-.48v-6.4a.492.492,0,0,0-.48-.48h-3.2a.492.492,0,0,0-.48.48v6.4A.492.492,0,0,0,18.98,57.763Zm.48-6.4H21.7V56.8H19.46Z" transform="translate(-15.235 -41.02)"/><path class="b" d="M35.68,55.4a.492.492,0,0,0-.48.48v4.8a.492.492,0,0,0,.48.48h3.2a.492.492,0,0,0,.48-.48v-4.8a.492.492,0,0,0-.48-.48ZM38.4,60.2H36.16V56.36H38.4Z" transform="translate(-26.589 -44.42)"/><path class="b" d="M52.28,40.4a.492.492,0,0,0-.48.48v9.6a.492.492,0,0,0,.48.48h3.2a.492.492,0,0,0,.48-.48v-9.6a.492.492,0,0,0-.48-.48ZM55,50H52.76V41.36H55Z" transform="translate(-37.874 -34.222)"/><path class="b" d="M71.981,60.4h-3.2a.492.492,0,0,0-.48.48v3.2a.492.492,0,0,0,.48.48h3.2a.492.492,0,0,0,.48-.48v-3.2A.492.492,0,0,0,71.981,60.4Zm-.48,3.2H69.26V61.36H71.5Z" transform="translate(-49.092 -47.819)"/></g></svg>