<svg xmlns="http://www.w3.org/2000/svg" width="24" height="24" viewBox="0 0 24 24"><defs><style>.a{fill:none;}.b{fill:#fff;}</style></defs><g transform="translate(-158 -422)"><rect class="a" width="24" height="24" transform="translate(158 422)"/><path class="b" d="M24.064,13.039a4.042,4.042,0,0,0,4.009-4.1A4.066,4.066,0,0,0,24.064,4.8a4.12,4.12,0,1,0,0,8.239Zm-2.525,1.24A4.933,4.933,0,0,0,16.6,19.174v2.458c.022,2.724,2.857,3.167,7.442,3.167,4.5,0,7.309-.443,7.309-3.167V19.174a4.867,4.867,0,0,0-4.895-4.895Z" transform="translate(146.4 419.2)"/></g></svg>