<svg xmlns="http://www.w3.org/2000/svg" width="32" height="32" viewBox="0 0 32 32"><defs><style>.a{fill:none;}.b{fill:#fff;}</style></defs><rect class="a" width="32" height="32"/><g transform="translate(8 4.8)"><path class="b" d="M239.211,215.637h-13a1.654,1.654,0,0,1-1.742-1.55V197.071a2.038,2.038,0,0,1,2.146-1.906h2.761a.442.442,0,1,1,.1.878.458.458,0,0,1-.1,0h-2.761a1.1,1.1,0,0,0-1.161,1.031v17a.718.718,0,0,0,.758.676h13a.718.718,0,0,0,.758-.676v-17a1.1,1.1,0,0,0-1.161-1.033h-2.819a.442.442,0,0,1-.1-.878.46.46,0,0,1,.1,0h2.819a2.037,2.037,0,0,1,2.143,1.906v17.009a1.466,1.466,0,0,1-.5,1.1A1.857,1.857,0,0,1,239.211,215.637Z" transform="translate(-224.468 -193.24)"/><path class="b" d="M240.065,194.542h-.393a.86.86,0,0,1-.837-.718l-.068-.406-.152-.879-.11-.659a1.5,1.5,0,0,0-1.471-1.259h-3.888a1.5,1.5,0,0,0-1.458,1.259l-.114.668-.152.879-.068.4a.845.845,0,0,1-.833.714h-.292a1.518,1.518,0,0,0-1.5,1.53v.435a1.521,1.521,0,0,0,1.5,1.53h9.834a1.515,1.515,0,0,0,1.5-1.53v-.435A1.511,1.511,0,0,0,240.065,194.542Zm.507,1.957a.523.523,0,0,1-.516.528h-9.834a.52.52,0,0,1-.516-.511v-.431a.518.518,0,0,1,.516-.528h.287a1.84,1.84,0,0,0,1.8-1.547l.334-1.944a.512.512,0,0,1,.5-.427h3.888a.509.509,0,0,1,.5.427l.33,1.944a1.848,1.848,0,0,0,1.8,1.547h.393a.521.521,0,0,1,.507.511Z" transform="translate(-226.929 -190.62)"/><rect class="b" width="6.56" height="1.002" transform="translate(6.373 10.841)"/><rect class="b" width="6.56" height="1.002" transform="translate(6.373 13.566)"/><rect class="b" width="6.56" height="1.002" transform="translate(6.373 16.294)"/><rect class="b" width="1.41" height="1.002" transform="translate(3.717 10.841)"/><rect class="b" width="1.41" height="1.002" transform="translate(3.717 13.566)"/><rect class="b" width="1.41" height="1.002" transform="translate(3.717 16.294)"/><path class="b" d="M242.807,199.906a.5.5,0,0,1-.486.486h-3.985a.5.5,0,0,1,0-1h3.985A.5.5,0,0,1,242.807,199.906Z" transform="translate(-232.194 -195.684)"/></g></svg>