<svg xmlns="http://www.w3.org/2000/svg" width="32" height="32" viewBox="0 0 32 32"><defs><style>.a{fill:none;}.b{fill:#fff;}</style></defs><rect class="a" width="32" height="32"/><g transform="translate(5.6 6.4)"><path class="b" d="M20.2,3.13H3.4A2.4,2.4,0,0,0,1,5.528V16.565a2.4,2.4,0,0,0,2.4,2.4H5.32L6.7,21.13a1.066,1.066,0,0,0,.914.5h0a1.094,1.094,0,0,0,.922-.526l1.31-2.16H20.2a2.4,2.4,0,0,0,2.4-2.383V5.528A2.4,2.4,0,0,0,20.2,3.13Zm.958,13.435a.965.965,0,0,1-.958.965H9.734a1.166,1.166,0,0,0-.994.562l-1.1,1.814L6.479,18.077a1.152,1.152,0,0,0-.986-.547H3.4a.965.965,0,0,1-.958-.965V5.528A.965.965,0,0,1,3.4,4.57H20.2a.965.965,0,0,1,.958.958Z" transform="translate(-1 -3.13)"/><path class="b" d="M17.92,10.21h-7.2a.72.72,0,1,0,0,1.44h7.2a.72.72,0,0,0,0-1.44Z" transform="translate(-3.52 -5.112)"/><path class="b" d="M17.92,15.75h-7.2a.72.72,0,0,0,0,1.44h7.2a.72.72,0,0,0,0-1.44Z" transform="translate(-3.52 -6.664)"/></g></svg>