<svg xmlns="http://www.w3.org/2000/svg" width="32" height="32" viewBox="0 0 32 32"><defs><style>.a{fill:none;}.b{fill:#fff;}</style></defs><rect class="a" width="32" height="32"/><g transform="translate(-391.575 -331.917)"><g transform="translate(396.575 336.917)"><path class="b" d="M416.324,344.487l-.225-.1.092-.225a3.679,3.679,0,0,0-.041-2.853,3.724,3.724,0,0,0-2.046-1.994,3.788,3.788,0,0,0-2.762,0l-.225.092-.1-.225a3.731,3.731,0,0,0-6.864,0l-.1.225-.235-.092a3.6,3.6,0,0,0-1.371-.266,3.741,3.741,0,0,0-3.734,3.732,3.933,3.933,0,0,0,.256,1.38l.092.225-.225.1a3.728,3.728,0,0,0,0,6.851l.225.1-.092.225a3.742,3.742,0,0,0,4.859,4.857l.225-.092.1.225a3.725,3.725,0,0,0,4.9,1.953,3.741,3.741,0,0,0,1.964-1.953l.1-.225.225.092a3.84,3.84,0,0,0,1.371.256,3.681,3.681,0,0,0,2.639-1.094,3.64,3.64,0,0,0,1.1-2.628,3.9,3.9,0,0,0-.266-1.391l-.092-.225.225-.1a3.7,3.7,0,0,0,2.251-3.425v-.031A3.7,3.7,0,0,0,416.324,344.487Zm1.125,3.732a2.609,2.609,0,0,1-2.3,2.3.536.536,0,0,0-.379.215.55.55,0,0,0-.1.4.475.475,0,0,0,.1.276,2.651,2.651,0,0,1-.419,3.7,2.717,2.717,0,0,1-3.263,0,.516.516,0,0,0-.409-.123.486.486,0,0,0-.368.2.471.471,0,0,0-.113.276,2.646,2.646,0,0,1-2.609,2.331c-.1,0-.2-.01-.307-.02a2.629,2.629,0,0,1-2.312-2.3.54.54,0,0,0-.614-.491.514.514,0,0,0-.276.112,2.624,2.624,0,0,1-3.683-3.691.542.542,0,0,0-.1-.767.514.514,0,0,0-.286-.123,2.625,2.625,0,0,1,.01-5.215.567.567,0,0,0,.379-.89,2.626,2.626,0,0,1,3.673-3.7.586.586,0,0,0,.43.112.466.466,0,0,0,.348-.194.546.546,0,0,0,.123-.286,2.626,2.626,0,0,1,5.217.01.546.546,0,0,0,.614.481.522.522,0,0,0,.276-.1,2.624,2.624,0,0,1,3.7,3.671.527.527,0,0,0-.123.419.533.533,0,0,0,.2.358.485.485,0,0,0,.286.123A2.63,2.63,0,0,1,417.45,348.219Z" transform="translate(-396.575 -336.917)"/></g><path class="b" d="M411.21,350.94a2.21,2.21,0,1,1-2.21-2.21,2.169,2.169,0,0,1,1.56.65A2.21,2.21,0,0,1,411.21,350.94Z" transform="translate(0.296 0.335)"/><path class="b" d="M411.75,345.27l-7.85,6.06a.791.791,0,1,1-.97-1.25l7.85-6.07a.8.8,0,0,1,1.11.14A.806.806,0,0,1,411.75,345.27Z" transform="translate(0.248 0.242)"/><path class="b" d="M407.87,344.4a2.205,2.205,0,1,1-2.2-2.2A2.2,2.2,0,0,1,407.87,344.4Z" transform="translate(0.199 0.15)"/></g></svg>