<svg xmlns="http://www.w3.org/2000/svg" width="32" height="32" viewBox="0 0 32 32"><defs><style>.a{fill:none;}.b{fill:#fff;}</style></defs><rect class="a" width="32" height="32"/><g transform="translate(4.8 4.8)"><path class="b" d="M361.032,218.013a.559.559,0,0,0,.4-.164l.818-.818a.56.56,0,0,0-.792-.792l-.818.818a.56.56,0,0,0,.4.956Z" transform="translate(-353.641 -203.764)"/><path class="b" d="M354.347,218.536a.56.56,0,0,0-.792,0L349,223.091a.56.56,0,1,0,.782.8l.01-.01,4.555-4.556A.559.559,0,0,0,354.347,218.536Z" transform="translate(-346.889 -205.094)"/><path class="b" d="M360.879,218.675l-3.959,3.959a.56.56,0,0,0,.782.8l.01-.01,3.959-3.959a.56.56,0,0,0-.782-.8l-.01.01Z" transform="translate(-351.483 -205.171)"/><path class="b" d="M353.82,230.006l-1.236,1.238a.56.56,0,0,0,.792.792l1.237-1.237a.56.56,0,1,0-.792-.792Z" transform="translate(-348.971 -211.746)"/><path class="b" d="M363.5,200.381a4.493,4.493,0,0,0-2.781,0l-2.991-2.991,5.431-5.431,1.121.08h.034a.5.5,0,0,0,.437-.256l1.8-3.238a.5.5,0,0,0-.084-.6l-.122-.118-.8-.8-.118-.122a.5.5,0,0,0-.6-.084l-3.243,1.8a.5.5,0,0,0-.252.47l.076,1.121-5.427,5.427-2.991-2.986a4.5,4.5,0,0,0-5.683-5.658s-.008,0-.013.008a.257.257,0,0,0-.05.021c-.013.008-.029.013-.042.021a.231.231,0,0,0-.038.029.3.3,0,0,0-.042.034s-.008,0-.013.008-.008.017-.017.021a.293.293,0,0,0-.034.042.368.368,0,0,0-.025.042.132.132,0,0,0-.021.042c-.008.013-.013.029-.021.042s-.008.034-.013.046,0,.034-.008.046,0,.034,0,.05v.046a.157.157,0,0,0,0,.046c0,.017.008.038.013.055a.082.082,0,0,0,0,.029.032.032,0,0,0,.008.013.257.257,0,0,0,.021.05.386.386,0,0,0,.021.042c.008.013.017.021.025.034s.025.029.038.046l.008.008,1.693,1.7a.715.715,0,0,1,0,1.008l-.844.848a.715.715,0,0,1-1.008,0l-1.7-1.7s-.008,0-.008-.008c-.017-.013-.029-.025-.042-.034s-.025-.021-.038-.029a.2.2,0,0,1-.042-.021.257.257,0,0,0-.05-.021s-.008,0-.013-.008a.071.071,0,0,1-.029,0l-.05-.013a.158.158,0,0,1-.046,0h-.05c-.017,0-.029,0-.042,0s-.038.008-.055.013-.025,0-.038.008-.034.013-.05.021-.025.013-.038.021a.283.283,0,0,0-.046.029.232.232,0,0,0-.038.029c-.013.013-.017.013-.021.021s-.008.008-.013.013-.021.025-.034.038-.017.029-.025.042a.132.132,0,0,0-.021.042c-.008.013-.017.034-.025.05s0,.008,0,.013a4.489,4.489,0,0,0,5.654,5.679l1.836,1.835a1.417,1.417,0,0,0-.857.407l-6.048,6.044a2.129,2.129,0,0,0,0,3.012l1.5,1.5a2.129,2.129,0,0,0,3.012,0l6.044-6.048a1.418,1.418,0,0,0,.407-.857l1.836,1.831a4.5,4.5,0,0,0,5.679,5.662.032.032,0,0,0,.017-.008.155.155,0,0,0,.046-.021.132.132,0,0,0,.042-.021.294.294,0,0,0,.038-.025.375.375,0,0,0,.042-.038s.008,0,.013-.008a.092.092,0,0,0,.017-.021.3.3,0,0,0,.034-.042.2.2,0,0,0,.025-.038.368.368,0,0,1,.025-.042c0-.017.013-.029.017-.046s.008-.029.013-.046a.18.18,0,0,0,.008-.046.206.206,0,0,0,0-.05v-.046a.158.158,0,0,0,0-.046c0-.017-.008-.038-.013-.055a.053.053,0,0,0,0-.025c0-.008,0-.013-.008-.017a.155.155,0,0,0-.021-.046.4.4,0,0,0-.021-.042.3.3,0,0,0-.025-.038.381.381,0,0,0-.038-.042s0-.008-.008-.013l-1.693-1.7a.715.715,0,0,1,0-1.008l.848-.848a.715.715,0,0,1,1.008,0l1.7,1.693s.008.008.008.013a.37.37,0,0,1,.042.034l.038.025a.2.2,0,0,0,.042.021l.05.025s.008,0,.017,0,.008,0,.013,0a.528.528,0,0,0,.139.021h0a.473.473,0,0,0,.134-.021l.025-.008a.409.409,0,0,0,.122-.059l.017-.017a.168.168,0,0,0,.05-.042.164.164,0,0,0,.034-.042l.021-.021a.587.587,0,0,0,.063-.126.015.015,0,0,0,0-.008A4.5,4.5,0,0,0,363.5,200.381Zm-12.92-5.746a.5.5,0,0,0-.546-.118,3.505,3.505,0,0,1-4.818-3.478l1.037,1.033a1.706,1.706,0,0,0,2.415,0l.848-.848a1.71,1.71,0,0,0,0-2.415l-1.033-1.033a3.5,3.5,0,0,1,3.5,4.746.423.423,0,0,0-.067.055l-.424.424a.5.5,0,0,0,.706.706l.223-.223,2.86,2.86-.563.559a1.347,1.347,0,0,0-1.659.193l-.008.008Zm4.994,4.973v0l-.323.323-.575-.575a.5.5,0,0,0-.706.706l.6.6.3.3a.45.45,0,0,1,0,.634l-6.048,6.044a1.126,1.126,0,0,1-1.6,0l-1.5-1.5a1.131,1.131,0,0,1,0-1.6l6.048-6.044a.449.449,0,0,1,.63,0l.4.4a.5.5,0,0,0,.7-.7l-.071-.071.328-.328a.355.355,0,0,1,.5,0l1.315,1.315A.351.351,0,0,1,355.571,199.608Zm.214-1.689-.336-.336,6.825-6.83a.015.015,0,0,0,0-.008.29.29,0,0,0,.046-.055c.008-.008.013-.017.017-.021a.388.388,0,0,0,.029-.059.243.243,0,0,0,.017-.029c0-.021.013-.038.017-.059a.123.123,0,0,1,.008-.038c0-.013,0-.034,0-.05v-.067l-.071-1.029,2.638-1.466.508.512-1.462,2.634L363,190.947h-.067c-.017,0-.034,0-.055,0s-.021.008-.029.008a.6.6,0,0,0-.067.021l-.017.008a.335.335,0,0,0-.067.034l-.017.013-.063.05,0,0Zm9.808,6.972-1.037-1.037a1.706,1.706,0,0,0-2.415,0l-.848.848a1.706,1.706,0,0,0,0,2.415l1.033,1.037a3.507,3.507,0,0,1-3.486-4.792.589.589,0,0,0,.134-.092l.42-.424a.5.5,0,1,0-.693-.714l-.315.315-2.121-2.125.008-.008a1.346,1.346,0,0,0,.189-1.663l.563-.559,3.213,3.213a.445.445,0,0,0,.046.038.112.112,0,0,1,.025.021.5.5,0,0,0,.479.042,3.5,3.5,0,0,1,4.557,1.941A3.544,3.544,0,0,1,365.592,204.892Z" transform="translate(-344.208 -186.759)"/></g></svg>