<svg xmlns="http://www.w3.org/2000/svg" width="32" height="32" viewBox="0 0 32 32"><defs><style>.a{fill:none;}.b{fill:#fff;}</style></defs><rect class="a" width="32" height="32"/><g transform="translate(4.8 4.8)"><path class="b" d="M73.213,9.426A3.713,3.713,0,1,0,69.5,5.713,3.719,3.719,0,0,0,73.213,9.426Zm0-6.182a2.469,2.469,0,1,1-2.47,2.469A2.471,2.471,0,0,1,73.213,3.243Z" transform="translate(-66.523 -2)"/><path class="b" d="M23.959,198.885l-1.1-.326a5.243,5.243,0,0,0-.234-.564l.547-1.01a.621.621,0,0,0-.106-.736l-1.261-1.261a.621.621,0,0,0-.737-.106l-1.01.547a5.837,5.837,0,0,0-.565-.234l-.326-1.1a.623.623,0,0,0-.6-.445H16.792a.623.623,0,0,0-.6.445l-.326,1.1a5.247,5.247,0,0,0-.565.234l-.088-.048a2.5,2.5,0,0,0-1.42-1.442,13.858,13.858,0,0,0-3.03-.811.616.616,0,0,0-.653.344l-1.433,2.941-1.429-2.937a.628.628,0,0,0-.653-.344,13.772,13.772,0,0,0-3.008.807A2.5,2.5,0,0,0,2,196.257V201.3a.621.621,0,0,0,.622.622h9.01l.869.26a5.243,5.243,0,0,0,.234.564l-.547,1.01a.621.621,0,0,0,.106.736l1.261,1.261a.621.621,0,0,0,.737.106l1.01-.547a5.838,5.838,0,0,0,.565.234l.326,1.1a.623.623,0,0,0,.6.445h1.782a.623.623,0,0,0,.6-.445l.326-1.1a5.248,5.248,0,0,0,.565-.234l1.01.547a.621.621,0,0,0,.737-.106l1.261-1.261a.621.621,0,0,0,.106-.736l-.547-1.01a5.826,5.826,0,0,0,.234-.564l1.1-.326a.623.623,0,0,0,.445-.6V199.48A.614.614,0,0,0,23.959,198.885Zm-20.715.692h.935a.622.622,0,1,0,0-1.243H3.244V197.09H5.731a.622.622,0,1,0,0-1.243H3.319a1.252,1.252,0,0,1,.723-.75,12.875,12.875,0,0,1,2.293-.661L8.122,198.1a.62.62,0,0,0,.56.348h0a.628.628,0,0,0,.56-.348l1.791-3.673a12.368,12.368,0,0,1,2.311.666.367.367,0,0,1,.071.04L12.3,196.253a.621.621,0,0,0-.106.736l.547,1.01a5.829,5.829,0,0,0-.234.564l-1.1.326a.623.623,0,0,0-.445.6v1.2H3.244v-1.107ZM23.161,200.8l-.97.291a.628.628,0,0,0-.419.428,4.34,4.34,0,0,1-.384.935.617.617,0,0,0,0,.6l.481.891-.6.6-.891-.481a.617.617,0,0,0-.6,0,4.252,4.252,0,0,1-.935.384.619.619,0,0,0-.428.419l-.291.97H17.26l-.291-.97a.627.627,0,0,0-.428-.419,4.252,4.252,0,0,1-.935-.384.618.618,0,0,0-.6,0l-.891.481-.6-.6.481-.891a.617.617,0,0,0,0-.6,4.25,4.25,0,0,1-.384-.935.617.617,0,0,0-.423-.428l-.97-.291v-.855l.97-.291a.634.634,0,0,0,.423-.428,4.251,4.251,0,0,1,.384-.935.617.617,0,0,0,0-.6l-.481-.891.6-.6.891.481a.617.617,0,0,0,.6,0,4.252,4.252,0,0,1,.935-.384.619.619,0,0,0,.428-.419l.291-.97h.856l.291.97a.628.628,0,0,0,.428.419,4.252,4.252,0,0,1,.935.384.618.618,0,0,0,.6,0l.891-.481.6.6-.481.891a.617.617,0,0,0,0,.6,4.251,4.251,0,0,1,.384.935.619.619,0,0,0,.419.428l.97.291Z" transform="translate(-2 -184.691)"/><path class="b" d="M299.481,296.8a2.681,2.681,0,1,0,2.682,2.681A2.686,2.686,0,0,0,299.481,296.8Zm0,4.114a1.433,1.433,0,1,1,1.433-1.433A1.436,1.436,0,0,1,299.481,300.914Z" transform="translate(-283.798 -283.801)"/></g></svg>