<svg xmlns="http://www.w3.org/2000/svg" width="122" height="122" viewBox="0 0 122 122"><defs><style>.a{fill:none;}.b{fill:#f7cb39;}.c{fill:#f2421b;}.d{fill:#fff;}</style></defs><path class="a" d="M214.172,228.236a10.958,10.958,0,0,1,.191-15.669,11.431,11.431,0,0,1,20.549,6.9,11.34,11.34,0,0,1-8.731,11.094c-.038.038-.114.076-.152.038a9.947,9.947,0,0,1-4.117.839A10.936,10.936,0,0,1,214.172,228.236Z" transform="translate(-170.1 -177.53)"/><path class="a" d="M236.028,221.1a10.925,10.925,0,0,1-.343,15.784,11.428,11.428,0,1,1-11.666-18.148c.153-.038.267-.076.381-.114a11.006,11.006,0,0,1,3.889-.724A10.626,10.626,0,0,1,236.028,221.1Z" transform="translate(-158.063 -149.771)"/><path class="a" d="M258.736,212.046a3.115,3.115,0,0,1-.572,4.384l-43.386,33.512a3.127,3.127,0,0,1-3.812-4.956l43.386-33.512A3.111,3.111,0,0,1,258.736,212.046Z" transform="translate(-173.565 -169.689)"/><path class="a" d="M200.25,200.03v122h122v-122Zm100.459,76.059a3.145,3.145,0,0,0-.915,2.211v3.431a17.841,17.841,0,0,1-17.843,17.843h-3.431a3.286,3.286,0,0,0-2.211.915l-2.44,2.44a17.787,17.787,0,0,1-25.2,0l-2.44-2.44a3.286,3.286,0,0,0-2.211-.915h-3.431a17.841,17.841,0,0,1-17.843-17.843V278.3a3.146,3.146,0,0,0-.915-2.211l-2.44-2.44a17.833,17.833,0,0,1,0-25.239l2.44-2.44a3.146,3.146,0,0,0,.915-2.211v-3.431a17.865,17.865,0,0,1,17.843-17.842h3.431a3.117,3.117,0,0,0,2.211-.915l2.44-2.4a17.787,17.787,0,0,1,25.2,0l2.44,2.4a3.118,3.118,0,0,0,2.211.915h3.431a17.865,17.865,0,0,1,17.843,17.842v3.431a3.146,3.146,0,0,0,.915,2.211l2.44,2.44a17.833,17.833,0,0,1,0,25.239Z" transform="translate(-200.25 -200.03)"/><path class="b" d="M238.125,229.468a11.15,11.15,0,0,1-2.44,7.053,11.428,11.428,0,1,1-11.666-18.147c.153-.038.267-.076.381-.114a11.08,11.08,0,0,1,2.287-.229A11.422,11.422,0,0,1,238.125,229.468Z" transform="translate(-158.063 -149.405)"/><path class="b" d="M234.125,219.467a11.341,11.341,0,0,1-8.731,11.094c-.038.038-.114.076-.153.038a11.429,11.429,0,1,1,8.883-11.133Z" transform="translate(-169.313 -177.53)"/><path class="c" d="M272.6,265.744a10.626,10.626,0,0,0-7.739-3.2,11.008,11.008,0,0,0-3.889.724c-.114.038-.229.076-.381.114a10.959,10.959,0,0,0,4.27,21.045,10.945,10.945,0,0,0,7.739-18.681ZM268.182,276.8a4.84,4.84,0,0,1-6.634,0,4.691,4.691,0,1,1,6.634,0Zm-21.731-50.363a10.942,10.942,0,1,0,0,21.884,9.946,9.946,0,0,0,4.118-.839c.038.038.114,0,.153-.038a10.936,10.936,0,0,0-4.27-21.007Zm3.317,14.259a4.84,4.84,0,0,1-6.634,0,4.691,4.691,0,1,1,6.634,0Zm30.042-3.927a3.111,3.111,0,0,0-4.384-.572L232.04,269.709a3.126,3.126,0,0,0,3.813,4.956l43.386-33.512A3.115,3.115,0,0,0,279.81,236.769Zm0,0a3.111,3.111,0,0,0-4.384-.572L232.04,269.709a3.126,3.126,0,0,0,3.813,4.956l43.386-33.512A3.115,3.115,0,0,0,279.81,236.769Zm-14.945,25.773a11.008,11.008,0,0,0-3.889.724c-.114.038-.229.076-.381.114a10.959,10.959,0,0,0,4.27,21.045,10.945,10.945,0,0,0,7.739-18.681A10.626,10.626,0,0,0,264.865,262.541Zm3.317,14.259a4.84,4.84,0,0,1-6.634,0,4.691,4.691,0,1,1,6.634,0Zm-21.731-28.479a9.946,9.946,0,0,0,4.118-.839c.038.038.114,0,.153-.038a10.914,10.914,0,1,0-4.27.877Zm-3.317-14.259a4.691,4.691,0,0,1,6.634,6.634,4.84,4.84,0,0,1-6.634,0A4.694,4.694,0,0,1,243.134,234.062Zm58.827,4.308-1.525-1.525V234.71a24.1,24.1,0,0,0-24.1-24.1h-2.135l-1.525-1.525a24.092,24.092,0,0,0-34.084,0l-1.525,1.525H234.9a24.146,24.146,0,0,0-24.1,24.1v2.135l-1.525,1.525a24.161,24.161,0,0,0,0,34.084l1.525,1.525v2.135a24.146,24.146,0,0,0,24.1,24.095h2.173l1.525,1.525a24.092,24.092,0,0,0,34.084,0l1.525-1.525h2.135a24.1,24.1,0,0,0,24.1-24.095v-2.135l1.525-1.525A24.092,24.092,0,0,0,301.961,238.37Zm-4.422,29.661-2.44,2.44a3.146,3.146,0,0,0-.915,2.211v3.431a17.841,17.841,0,0,1-17.842,17.842H272.91a3.287,3.287,0,0,0-2.211.915l-2.44,2.44a17.787,17.787,0,0,1-25.2,0l-2.44-2.44a3.287,3.287,0,0,0-2.211-.915h-3.431a17.841,17.841,0,0,1-17.843-17.842v-3.431a3.146,3.146,0,0,0-.915-2.211l-2.44-2.44a17.833,17.833,0,0,1,0-25.239l2.44-2.44a3.146,3.146,0,0,0,.915-2.211V234.71a17.865,17.865,0,0,1,17.843-17.843h3.431a3.117,3.117,0,0,0,2.211-.915l2.44-2.4a17.787,17.787,0,0,1,25.2,0l2.44,2.4a3.117,3.117,0,0,0,2.211.915h3.431a17.865,17.865,0,0,1,17.842,17.843v3.431a3.146,3.146,0,0,0,.915,2.211l2.44,2.44A17.833,17.833,0,0,1,297.539,268.031ZM275.426,236.2,232.04,269.709a3.126,3.126,0,0,0,3.813,4.956l43.386-33.512a3.126,3.126,0,0,0-3.812-4.956Zm-10.561,26.344a11.008,11.008,0,0,0-3.889.724c-.114.038-.229.076-.381.114a10.959,10.959,0,0,0,4.27,21.045,10.945,10.945,0,0,0,7.739-18.681A10.626,10.626,0,0,0,264.865,262.541Zm3.317,14.259a4.84,4.84,0,0,1-6.634,0,4.691,4.691,0,1,1,6.634,0Zm-21.731-28.479a9.946,9.946,0,0,0,4.118-.839c.038.038.114,0,.153-.038a10.914,10.914,0,1,0-4.27.877Zm-3.317-14.259a4.691,4.691,0,0,1,6.634,6.634,4.84,4.84,0,0,1-6.634,0A4.694,4.694,0,0,1,243.134,234.062Z" transform="translate(-194.639 -194.412)"/><path class="d" d="M292.891,238.152l-2.44-2.44a3.145,3.145,0,0,1-.915-2.211V230.07a17.865,17.865,0,0,0-17.843-17.843h-3.431a3.118,3.118,0,0,1-2.211-.915l-2.44-2.4a17.787,17.787,0,0,0-25.2,0l-2.44,2.4a3.118,3.118,0,0,1-2.211.915h-3.431a17.865,17.865,0,0,0-17.843,17.843V233.5a3.145,3.145,0,0,1-.915,2.211l-2.44,2.44a17.833,17.833,0,0,0,0,25.239l2.44,2.44a3.146,3.146,0,0,1,.915,2.211v3.431a17.841,17.841,0,0,0,17.843,17.843h3.431a3.287,3.287,0,0,1,2.211.915l2.44,2.44a17.787,17.787,0,0,0,25.2,0l2.44-2.44a3.287,3.287,0,0,1,2.211-.915h3.431a17.841,17.841,0,0,0,17.843-17.843v-3.431a3.146,3.146,0,0,1,.915-2.211l2.44-2.44A17.833,17.833,0,0,0,292.891,238.152Zm-58.636-13.344a11.431,11.431,0,0,1,20.549,6.9,11.34,11.34,0,0,1-8.731,11.094c-.038.038-.114.076-.153.038a9.945,9.945,0,0,1-4.117.839,10.948,10.948,0,0,1-7.549-18.872Zm33.359,52.079a11.428,11.428,0,1,1-11.666-18.148c.152-.038.267-.076.381-.114a11,11,0,0,1,3.889-.724,10.626,10.626,0,0,1,7.739,3.2,10.925,10.925,0,0,1-.343,15.784Zm6.977-40.374L231.2,270.024a3.126,3.126,0,1,1-3.812-4.956l43.386-33.512a3.126,3.126,0,1,1,3.813,4.956Z" transform="translate(-189.991 -189.771)"/></svg>