<svg xmlns="http://www.w3.org/2000/svg" width="32" height="32" viewBox="0 0 32 32"><defs><style>.a{fill:none;}.b{fill:#fff;}</style></defs><rect class="a" width="32" height="32"/><g transform="translate(4.8 6.4)"><path class="b" d="M35.331,24.625a1.812,1.812,0,1,0,1.813,1.812A1.812,1.812,0,0,0,35.331,24.625Zm0,2.567a.754.754,0,1,1,.754-.754A.754.754,0,0,1,35.331,27.192Z" transform="translate(-17.682 -15.061)"/><path class="b" d="M25.19,13.736a.519.519,0,0,0-.057-.23,3.742,3.742,0,0,0-2.3-2.838L19.254,6.723a.532.532,0,0,0-.63-.117L14.561,8.651,12.679,7.2a.529.529,0,0,0-.641-.005L7.752,10.4H7.324A3.739,3.739,0,0,0,3.59,14.137v7.58a3.739,3.739,0,0,0,3.735,3.735H21.455a3.739,3.739,0,0,0,3.735-3.735v-7.58c0-.108-.007-.215-.016-.32a.5.5,0,0,0,.016-.081Zm-6.45-6,2.42,2.67H16.828L15.49,9.368Zm-6.39.548L15.1,10.4H9.518ZM7.324,11.46H21.455a2.673,2.673,0,0,1,2.5,1.746H4.824a2.673,2.673,0,0,1,2.5-1.746ZM21.455,24.393H7.324a2.679,2.679,0,0,1-2.676-2.676V14.265H24.132v7.452a2.679,2.679,0,0,1-2.676,2.676Z" transform="translate(-3.59 -6.55)"/></g></svg>